<svg width="121" height="73" fill="none" xmlns="http://www.w3.org/2000/svg"><path d="M120.393 68.809a.5.5 0 00-.084-.702l-3.54-2.778a.5.5 0 00-.618.786l3.147 2.47-2.469 3.146a.5.5 0 10.786.618l2.778-3.54zM.514 1.119c.079.32.161.643.247.97l.967-.255A57.009 57.009 0 011.486.88l-.972.238zm.803 2.943c.19.638.395 1.286.614 1.944l.949-.315a66.756 66.756 0 01-.605-1.915l-.958.286zm1.28 3.86c.229.63.47 1.267.724 1.911l.93-.367a75.396 75.396 0 01-.714-1.885l-.94.341zm1.497 3.8c.26.614.531 1.233.814 1.856l.91-.412a81.805 81.805 0 01-.803-1.834l-.921.39zm1.68 3.71c.291.602.592 1.208.904 1.816l.89-.455a86.23 86.23 0 01-.892-1.796l-.901.434zm1.85 3.618c.321.593.651 1.188.991 1.785l.87-.495a89.717 89.717 0 01-.98-1.765l-.88.475zm2.014 3.535c.348.58.706 1.162 1.073 1.745l.846-.533a91.578 91.578 0 01-1.061-1.727l-.858.515zm2.168 3.443c.373.565.755 1.13 1.146 1.694l.822-.569a93.232 93.232 0 01-1.133-1.676l-.835.551zm2.316 3.347a88.71 88.71 0 001.215 1.64l.797-.603a93.45 93.45 0 01-1.202-1.623l-.81.586zm2.457 3.244c.42.53.847 1.059 1.283 1.586l.77-.637a94.15 94.15 0 01-1.27-1.57l-.783.621zm2.593 3.136c.441.511.892 1.021 1.35 1.53l.742-.67A93.873 93.873 0 0119.93 35.1l-.757.654zm2.724 3.021c.464.493.935.984 1.415 1.472l.713-.7a94.206 94.206 0 01-1.4-1.457l-.728.685zm2.85 2.903c.486.473.978.944 1.479 1.411l.682-.73a94.684 94.684 0 01-1.462-1.397l-.698.716zm2.973 2.778c.505.452 1.018.902 1.539 1.348l.65-.759a93.505 93.505 0 01-1.522-1.334l-.668.745zm3.088 2.648c.523.43 1.054.856 1.592 1.28l.618-.787a93.722 93.722 0 01-1.575-1.266l-.635.773zm3.2 2.515a94.8 94.8 0 001.641 1.206l.584-.812a94.096 94.096 0 01-1.624-1.194l-.601.8zm3.305 2.376A95.77 95.77 0 0039 53.128l.548-.836c-.563-.37-1.12-.743-1.669-1.12l-.566.824zm3.406 2.234a86.26 86.26 0 001.727 1.056l.513-.858a95.751 95.751 0 01-1.71-1.045l-.53.847zm3.494 2.087c.583.331 1.173.659 1.77.982l.475-.88a96.5 96.5 0 01-1.75-.972l-.495.87zm3.57 1.933c.6.31 1.207.614 1.82.914l.44-.898a97.616 97.616 0 01-1.802-.905l-.458.89zm3.65 1.786c.616.285 1.238.567 1.866.843l.403-.916a99.338 99.338 0 01-1.849-.834l-.42.907zm3.723 1.636c.624.26 1.253.514 1.889.763l.365-.93a100.8 100.8 0 01-1.87-.756l-.384.923zm3.793 1.489c.63.232 1.264.46 1.905.683l.328-.945c-.634-.22-1.263-.446-1.886-.676l-.347.938zm3.844 1.336c.637.207 1.28.41 1.93.609l.291-.957c-.642-.196-1.28-.397-1.912-.603l-.31.95zm3.877 1.183c.654.186 1.314.367 1.979.543l.256-.967a108.12 108.12 0 01-1.961-.538l-.274.962zm3.929 1.04c.655.16 1.316.316 1.981.466l.22-.975c-.66-.15-1.314-.304-1.963-.463l-.238.971zm3.98.899c.653.135 1.312.266 1.976.392l.186-.983a114.52 114.52 0 01-1.96-.388l-.203.979zm3.982.753c.666.115 1.338.224 2.014.328l.152-.989c-.67-.103-1.336-.211-1.997-.324l-.169.985zm4.008.618c.67.092 1.344.179 2.023.26l.12-.992c-.674-.081-1.343-.168-2.007-.259l-.135.991zm4.05.488c.665.07 1.333.133 2.005.193l.088-.996c-.667-.06-1.33-.123-1.989-.192l-.103.995zm4.037.356c.676.05 1.356.094 2.041.133l.057-.998c-.68-.04-1.355-.083-2.026-.132l-.073.997zm4.048.233c.673.029 1.35.053 2.032.072l.028-1a131.74 131.74 0 01-2.017-.07l-.043.998zm4.09.115c.663.009 1.331.013 2.003.013l-.001-1c-.667 0-1.33-.004-1.99-.013l-.013 1zm4.028-.002c.68-.01 1.363-.023 2.05-.042l-.028-1c-.682.019-1.361.033-2.036.042l.014 1zm4.071-.111c.667-.027 1.339-.06 2.013-.095l-.053-.999c-.671.036-1.338.068-2.001.095l.041.999zm4.049-.217c.678-.045 1.36-.095 2.045-.149l-.078-.997c-.682.054-1.359.103-2.034.148l.067.998zm4.041-.318c.668-.06 1.34-.126 2.016-.195l-.103-.995c-.671.069-1.339.134-2.004.194l.091.996zm4.052-.417l1.026-.12-.12-.993-1.02.12.114.993z" fill="#000"/></svg>