<svg width="95" height="50" viewBox="0 0 95 50" fill="none" xmlns="http://www.w3.org/2000/svg">
<path d="M2.33968 48.8545C2.48097 49.2438 2.91115 49.4449 3.30052 49.3037L9.64572 47.0013C10.0351 46.86 10.2362 46.4298 10.0949 46.0404C9.95363 45.6511 9.52345 45.4499 9.13408 45.5912L3.4939 47.6378L1.44734 41.9976C1.30605 41.6082 0.875868 41.4071 0.486495 41.5484C0.0971224 41.6897 -0.103992 42.1199 0.0372941 42.5093L2.33968 48.8545ZM94.4566 4.39429C84.1932 0.773288 67.3099 -1.359 49.9154 3.96741C32.4892 9.30357 14.5994 22.1121 2.36528 48.281L3.72412 48.9163C15.7807 23.1272 33.339 10.6121 50.3546 5.40168C67.4021 0.181522 83.9545 2.27969 93.9575 5.80883L94.4566 4.39429Z" fill="#ABABAB"/>
</svg>
