<svg width="224" height="95" viewBox="0 0 224 95" fill="none" xmlns="http://www.w3.org/2000/svg">
<path d="M223.177 81.322C223.355 80.9479 223.196 80.5005 222.822 80.3226L216.726 77.4245C216.352 77.2466 215.904 77.4057 215.727 77.7798C215.549 78.1539 215.708 78.6013 216.082 78.7792L221.501 81.3553L218.924 86.7741C218.747 87.1482 218.906 87.5957 219.28 87.7735C219.654 87.9514 220.101 87.7923 220.279 87.4182L223.177 81.322ZM0.321386 1.31935C11.0468 24.1109 35.0259 55.4406 72.144 75.4601C109.291 95.4954 159.554 104.177 222.751 81.7067L222.249 80.2933C159.446 102.623 109.625 93.9713 72.856 74.1399C36.0574 54.2927 12.2865 23.2224 1.67861 0.680652L0.321386 1.31935Z" fill="#ABABAB"/>
</svg>
