<svg width="107" height="155" viewBox="0 0 107 155" fill="none" xmlns="http://www.w3.org/2000/svg">
<path d="M106.681 4.31381C106.855 3.9376 106.69 3.49212 106.314 3.31881L100.183 0.494533C99.8069 0.321222 99.3614 0.485705 99.1881 0.861918C99.0148 1.23813 99.1792 1.68361 99.5555 1.85692L105.005 4.36739L102.495 9.81693C102.321 10.1931 102.486 10.6386 102.862 10.8119C103.238 10.9852 103.684 10.8208 103.857 10.4445L106.681 4.31381ZM1.28314 154.195C1.72971 154.012 2.18418 153.823 2.64595 153.625L2.05575 152.246C1.60176 152.44 1.15526 152.627 0.716858 152.805L1.28314 154.195ZM5.37887 152.403C6.25495 151.995 7.15109 151.562 8.06384 151.105L7.39198 149.763C6.4918 150.214 5.60846 150.641 4.74544 151.043L5.37887 152.403ZM10.7064 149.736C11.5654 149.277 12.4356 148.797 13.3143 148.298L12.5733 146.994C11.7057 147.487 10.8468 147.96 9.9991 148.413L10.7064 149.736ZM15.8856 146.794C16.7253 146.288 17.5705 145.765 18.4187 145.225L17.6132 143.96C16.7756 144.493 15.9411 145.01 15.112 145.509L15.8856 146.794ZM20.9121 143.594C21.7288 143.044 22.5466 142.479 23.3634 141.899L22.4945 140.676C21.6884 141.249 20.8812 141.807 20.0748 142.349L20.9121 143.594ZM25.7704 140.14C26.5601 139.547 27.3473 138.939 28.13 138.318L27.1969 137.143C26.4251 137.756 25.6487 138.356 24.8696 138.941L25.7704 140.14ZM30.4387 136.43C31.1964 135.793 31.9483 135.141 32.6925 134.477L31.6933 133.358C30.9603 134.012 30.2196 134.654 29.4729 135.283L30.4387 136.43ZM34.886 132.456C35.6055 131.772 36.316 131.076 37.0158 130.366L35.9478 129.313C35.2597 130.011 34.5608 130.696 33.8528 131.369L34.886 132.456ZM39.0759 128.205C39.7498 127.473 40.4116 126.729 41.0596 125.972L39.92 124.996C39.2841 125.739 38.6344 126.47 37.9724 127.189L39.0759 128.205ZM42.9596 123.664C43.5783 122.883 44.1815 122.089 44.7679 121.282L43.5547 120.4C42.9807 121.189 42.3898 121.967 41.7834 122.733L42.9596 123.664ZM46.4755 118.825C47.0271 117.993 47.5601 117.149 48.0728 116.293L46.7859 115.522C46.2853 116.358 45.7646 117.183 45.2253 117.996L46.4755 118.825ZM49.5497 113.686C50.0208 112.805 50.4699 111.912 50.8954 111.007L49.538 110.368C49.1237 111.25 48.6861 112.12 48.2269 112.979L49.5497 113.686ZM52.099 108.258C52.4747 107.333 52.8253 106.395 53.1492 105.446L51.7296 104.962C51.4151 105.883 51.0744 106.794 50.7091 107.694L52.099 108.258ZM54.0357 102.577C54.3019 101.616 54.5403 100.643 54.7493 99.6597L53.2821 99.3479C53.0795 100.301 52.8484 101.244 52.5901 102.177L54.0357 102.577ZM55.2825 96.7029C55.4287 95.718 55.545 94.7229 55.63 93.7178L54.1354 93.5913C54.053 94.5648 53.9403 95.5286 53.7988 96.4828L55.2825 96.7029ZM55.7889 90.7156C55.8102 89.722 55.8006 88.7192 55.759 87.7074L54.2602 87.7691C54.3006 88.7496 54.3099 89.7211 54.2893 90.6836L55.7889 90.7156ZM55.5422 84.7031C55.441 83.7211 55.3095 82.7311 55.1463 81.7334L53.666 81.9754C53.8244 82.944 53.952 83.9045 54.0501 84.8568L55.5422 84.7031ZM54.578 78.7921C54.4687 78.302 54.3518 77.81 54.2272 77.3164L52.7728 77.6836C52.8941 78.1638 53.0077 78.642 53.1139 79.1184L54.578 78.7921ZM54.2272 77.3164C54.1003 76.8141 53.9818 76.3141 53.8714 75.8165L52.407 76.1412C52.5205 76.6532 52.6424 77.1673 52.7728 77.6836L54.2272 77.3164ZM53.3012 72.8289C53.1391 71.814 53.0109 70.8093 52.9152 69.8148L51.4221 69.9583C51.5208 70.9843 51.653 72.02 51.82 73.0655L53.3012 72.8289ZM52.7221 66.7809C52.6904 65.7546 52.6932 64.7394 52.7292 63.7356L51.2301 63.6819C51.193 64.7191 51.19 65.7676 51.2228 66.8273L52.7221 66.7809ZM52.9406 60.7006C53.046 59.6844 53.1852 58.6802 53.3565 57.6881L51.8784 57.4329C51.7014 58.458 51.5575 59.4957 51.4486 60.5458L52.9406 60.7006ZM53.9741 54.7104C54.214 53.7207 54.4858 52.7435 54.7875 51.7791L53.356 51.3312C53.0446 52.3263 52.7641 53.3349 52.5163 54.3569L53.9741 54.7104ZM55.7884 48.9046C56.1527 47.9553 56.5459 47.019 56.9662 46.0958L55.6009 45.4744C55.1685 46.4245 54.7635 47.3888 54.388 48.3671L55.7884 48.9046ZM58.3092 43.3594C58.7831 42.4598 59.2824 41.5735 59.8051 40.7006L58.5181 39.93C57.9818 40.8257 57.4692 41.7358 56.9821 42.6603L58.3092 43.3594ZM61.4412 38.1228C62.0085 37.2775 62.5972 36.4458 63.2055 35.6277L62.0019 34.7326C61.3795 35.5695 60.7768 36.421 60.1957 37.2869L61.4412 38.1228ZM65.0863 33.2163C65.7315 32.4264 66.3943 31.6503 67.0729 30.8882L65.9526 29.8907C65.2603 30.6682 64.5836 31.4605 63.9246 32.2674L65.0863 33.2163ZM69.1553 28.6428C69.8652 27.9071 70.5889 27.1857 71.3247 26.4786L70.2853 25.3971C69.5364 26.1168 68.7993 26.8516 68.0759 27.6012L69.1553 28.6428ZM73.5731 24.3942C74.3369 23.7106 75.111 23.0418 75.8933 22.3879L74.9312 21.237C74.1364 21.9015 73.3496 22.5813 72.5728 23.2764L73.5731 24.3942ZM78.2791 20.458C79.0887 19.8242 79.9047 19.2058 80.725 18.6031L79.8368 17.3943C79.0045 18.0058 78.1763 18.6334 77.3543 19.277L78.2791 20.458ZM83.2263 16.8217C84.0756 16.2354 84.9272 15.6658 85.7789 15.113L84.9622 13.8548C84.0989 14.4152 83.2354 14.9927 82.3741 15.5873L83.2263 16.8217ZM88.3793 13.4762C89.2644 12.9361 90.1469 12.4144 91.0244 11.9114L90.2785 10.6101C89.3893 11.1198 88.4949 11.6484 87.5979 12.1958L88.3793 13.4762ZM93.7115 10.4196C94.63 9.92601 95.5398 9.45368 96.4377 9.0028L95.7646 7.6623C94.8543 8.11937 93.9323 8.59809 93.0015 9.0983L93.7115 10.4196ZM99.1995 7.66492C100.15 7.22153 101.082 6.804 101.992 6.41257L101.399 5.03463C100.475 5.43213 99.5289 5.85589 98.5652 6.30566L99.1995 7.66492ZM104.841 5.24266C105.323 5.05463 105.796 4.87492 106.26 4.70357L105.74 3.29643C105.267 3.47106 104.785 3.65408 104.295 3.84543L104.841 5.24266Z" fill="black"/>
</svg>
