<svg width="25" height="25" viewBox="0 0 25 25" fill="none" xmlns="http://www.w3.org/2000/svg">
<circle cx="12.5" cy="12.5" r="12.5" fill="white"/>
<path d="M15.6828 12.466C16.2348 12.754 16.6668 13.156 16.9788 13.672C17.2908 14.176 17.4468 14.752 17.4468 15.4C17.4468 16.432 17.0808 17.29 16.3488 17.974C15.6168 18.658 14.7228 19 13.6668 19H8.26684V6.4H13.2708C14.3028 6.4 15.1728 6.736 15.8808 7.408C16.6008 8.08 16.9608 8.908 16.9608 9.892C16.9608 10.972 16.5348 11.83 15.6828 12.466ZM13.2708 8.344H10.3368V11.656H13.2708C13.7268 11.656 14.1108 11.5 14.4228 11.188C14.7348 10.864 14.8908 10.468 14.8908 10C14.8908 9.532 14.7348 9.142 14.4228 8.83C14.1108 8.506 13.7268 8.344 13.2708 8.344ZM10.3368 17.056H13.6668C14.1468 17.056 14.5488 16.888 14.8728 16.552C15.2088 16.204 15.3768 15.784 15.3768 15.292C15.3768 14.8 15.2088 14.386 14.8728 14.05C14.5488 13.702 14.1468 13.528 13.6668 13.528H10.3368V17.056Z" fill="#595959"/>
</svg>
