<svg width="12" height="16" viewBox="0 0 12 16" fill="none" xmlns="http://www.w3.org/2000/svg">
<path fill-rule="evenodd" clip-rule="evenodd" d="M0 0.8C0 0.587827 0.0790178 0.384344 0.21967 0.234315C0.360322 0.0842854 0.551088 0 0.75 0H11.25C11.4489 0 11.6397 0.0842854 11.7803 0.234315C11.921 0.384344 12 0.587827 12 0.8V13.6C12 14.2365 11.7629 14.847 11.341 15.2971C10.919 15.7471 10.3467 16 9.75 16H2.25C1.65326 16 1.08097 15.7471 0.65901 15.2971C0.237053 14.847 0 14.2365 0 13.6V0.8ZM10.5 1.6V4.8H1.5V1.6H10.5ZM3 8.8C3 8.58783 3.07902 8.38434 3.21967 8.23431C3.36032 8.08429 3.55109 8 3.75 8H4.5C4.69891 8 4.88968 8.08429 5.03033 8.23431C5.17098 8.38434 5.25 8.58783 5.25 8.8C5.25 9.01217 5.17098 9.21566 5.03033 9.36569C4.88968 9.51571 4.69891 9.6 4.5 9.6H3.75C3.55109 9.6 3.36032 9.51571 3.21967 9.36569C3.07902 9.21566 3 9.01217 3 8.8ZM6.75 8.8C6.75 8.58783 6.82902 8.38434 6.96967 8.23431C7.11032 8.08429 7.30109 8 7.5 8H8.25C8.44891 8 8.63968 8.08429 8.78033 8.23431C8.92098 8.38434 9 8.58783 9 8.8C9 9.01217 8.92098 9.21566 8.78033 9.36569C8.63968 9.51571 8.44891 9.6 8.25 9.6H7.5C7.30109 9.6 7.11032 9.51571 6.96967 9.36569C6.82902 9.21566 6.75 9.01217 6.75 8.8ZM3.75 11.2C3.55109 11.2 3.36032 11.2843 3.21967 11.4343C3.07902 11.5843 3 11.7878 3 12C3 12.2122 3.07902 12.4157 3.21967 12.5657C3.36032 12.7157 3.55109 12.8 3.75 12.8H4.5C4.69891 12.8 4.88968 12.7157 5.03033 12.5657C5.17098 12.4157 5.25 12.2122 5.25 12C5.25 11.7878 5.17098 11.5843 5.03033 11.4343C4.88968 11.2843 4.69891 11.2 4.5 11.2H3.75ZM6.75 12C6.75 11.7878 6.82902 11.5843 6.96967 11.4343C7.11032 11.2843 7.30109 11.2 7.5 11.2H8.25C8.44891 11.2 8.63968 11.2843 8.78033 11.4343C8.92098 11.5843 9 11.7878 9 12C9 12.2122 8.92098 12.4157 8.78033 12.5657C8.63968 12.7157 8.44891 12.8 8.25 12.8H7.5C7.30109 12.8 7.11032 12.7157 6.96967 12.5657C6.82902 12.4157 6.75 12.2122 6.75 12Z" fill="black"/>
</svg>
