<svg width="181" height="100" viewBox="0 0 181 100" fill="none" xmlns="http://www.w3.org/2000/svg">
<path d="M98.3498 54.5811H56.667V60.5779H98.3498V54.5811Z" fill="#333333"/>
<path d="M143.031 60.5777H112.561L119.377 32.5078H143.031V60.5777Z" fill="#4D4D4D"/>
<path d="M179.264 60.5781H8.57715V68.5516H179.264V60.5781Z" fill="#666666"/>
<path d="M175.74 78.3102H8.57715V68.5518H179.609C180.378 68.5518 181 69.1757 181 69.9429V73.0484C181 75.9539 178.646 78.3102 175.74 78.3102Z" fill="#4D4D4D"/>
<path d="M127.114 84.7242C127.058 84.3325 127.019 83.9408 126.991 83.5531L125.681 83.23L125.763 80.4578L127.098 80.2135C127.201 79.4644 127.357 78.7274 127.562 78.0086L126.416 77.2393L127.441 74.6629L128.816 74.8971C129.166 74.2409 129.559 73.6109 129.994 73.0112L129.156 71.8644L131.001 69.7948L132.241 70.4995C132.784 70.0088 133.361 69.5545 133.971 69.1386L133.567 67.7494L136.011 66.435L136.953 67.5434C137.622 67.2729 138.31 67.0427 139.025 66.861L139.124 65.389L141.868 64.9893L142.381 66.3724C143.112 66.3441 143.835 66.3663 144.547 66.435L145.149 65.072L147.865 65.6354L147.875 67.1154C148.565 67.3355 149.238 67.602 149.888 67.9129L150.922 66.8368L153.28 68.2946L152.783 69.6898C153.357 70.1299 153.902 70.6085 154.411 71.1213L155.741 70.4671L157.46 72.6438L156.529 73.7684C156.919 74.3782 157.27 75.0182 157.579 75.6846L159.031 75.5271L159.901 78.16L158.661 78.8869C158.75 79.2867 158.831 79.6905 158.889 80.1024C158.936 80.4234 158.97 80.7445 158.996 81.0655L160.385 81.4068L160.303 84.179L158.928 84.4314C158.833 85.1765 158.689 85.9074 158.495 86.6222L159.652 87.3975L158.627 89.9739L157.282 89.7457C156.937 90.4161 156.545 91.0602 156.111 91.676L156.915 92.7744L155.069 94.844L153.914 94.1878C153.357 94.7047 152.761 95.1832 152.133 95.6194L152.503 96.8914L150.062 98.2059L149.224 97.2205C148.521 97.5153 147.79 97.7597 147.037 97.9535L146.95 99.2498L144.206 99.6495L143.76 98.4502C142.979 98.4885 142.203 98.4663 141.442 98.3916L140.923 99.5647L138.207 99.0014L138.199 97.7334C137.456 97.4992 136.735 97.2125 136.039 96.8773L135.152 97.8L132.794 96.3422L133.224 95.1368C132.612 94.6663 132.035 94.1535 131.496 93.5982L130.333 94.1696L128.614 91.993L129.44 90.9956C129.032 90.3515 128.669 89.6751 128.352 88.9684L127.044 89.1097L126.173 86.4768L127.316 85.8064C127.237 85.449 127.167 85.0896 127.114 84.7242Z" fill="#333333"/>
<path d="M134.036 83.7164C134.756 88.6652 139.352 92.0957 144.301 91.3749C149.25 90.6561 152.68 86.0586 151.959 81.1097C151.241 76.1608 146.643 72.7303 141.694 73.4511C136.745 74.1699 133.317 78.7675 134.036 83.7164Z" fill="#B3B3B3"/>
<path d="M136.023 83.4281C136.582 87.2805 140.16 89.9498 144.014 89.3905C147.867 88.8292 150.536 85.2533 149.977 81.3988C149.418 77.5463 145.84 74.8771 141.985 75.4364C138.131 75.9977 135.461 79.5756 136.023 83.4281Z" fill="#808080"/>
<path d="M139.116 82.9775C139.427 85.1218 141.42 86.6079 143.564 86.297C145.708 85.986 147.194 83.9932 146.883 81.8488C146.572 79.7045 144.58 78.2185 142.435 78.5294C140.289 78.8424 138.803 80.8332 139.116 82.9775Z" fill="#B3B3B3"/>
<path d="M139.866 78.7298C139.421 78.7298 139.04 78.3987 138.975 77.9585C138.904 77.4659 139.246 77.0095 139.736 76.9369C139.781 76.9308 139.823 76.9268 139.868 76.9268C140.312 76.9268 140.693 77.2579 140.758 77.6981C140.829 78.1907 140.487 78.6471 139.997 78.7197C139.952 78.7258 139.908 78.7298 139.866 78.7298Z" fill="#666666"/>
<path d="M145.404 78.3099C145.125 78.3099 144.869 78.1847 144.697 77.9667C144.548 77.7789 144.481 77.5426 144.509 77.3024C144.538 77.0641 144.657 76.8501 144.846 76.7007C145.006 76.5735 145.2 76.5068 145.404 76.5068C145.682 76.5068 145.941 76.632 146.112 76.8501C146.419 77.2398 146.353 77.8072 145.963 78.1161C145.802 78.2433 145.608 78.3099 145.404 78.3099Z" fill="#666666"/>
<path d="M148.535 82.8949C148.42 82.8949 148.309 82.8727 148.202 82.8303C147.739 82.6465 147.515 82.1215 147.697 81.6592C147.834 81.3139 148.163 81.0918 148.535 81.0918C148.65 81.0918 148.761 81.114 148.868 81.1564C149.092 81.2453 149.268 81.4169 149.363 81.637C149.458 81.8591 149.462 82.1034 149.373 82.3255C149.235 82.6707 148.906 82.8949 148.535 82.8949Z" fill="#666666"/>
<path d="M146.129 87.9007C145.685 87.9007 145.303 87.5696 145.239 87.1294C145.205 86.8912 145.265 86.6549 145.408 86.4611C145.552 86.2673 145.764 86.1421 146.002 86.1077C146.047 86.1017 146.089 86.0977 146.133 86.0977C146.578 86.0977 146.959 86.4288 147.024 86.869C147.058 87.1072 146.998 87.3435 146.854 87.5373C146.711 87.7311 146.499 87.8563 146.261 87.8906C146.216 87.8967 146.172 87.9007 146.129 87.9007Z" fill="#666666"/>
<path d="M140.594 88.3207C140.316 88.3207 140.059 88.1955 139.887 87.9774C139.738 87.7896 139.671 87.5534 139.7 87.3131C139.728 87.0749 139.847 86.8608 140.037 86.7114C140.196 86.5842 140.39 86.5176 140.594 86.5176C140.873 86.5176 141.129 86.6428 141.301 86.8608C141.45 87.0486 141.517 87.2848 141.489 87.5251C141.46 87.7634 141.341 87.9774 141.151 88.1268C140.992 88.254 140.798 88.3207 140.594 88.3207Z" fill="#666666"/>
<path d="M137.46 83.7357C137.345 83.7357 137.234 83.7135 137.127 83.6711C136.667 83.4873 136.441 82.9624 136.624 82.5C136.762 82.1547 137.091 81.9326 137.462 81.9326C137.575 81.9326 137.689 81.9548 137.796 81.9972C138.258 82.181 138.482 82.7059 138.298 83.1683C138.161 83.5136 137.832 83.7357 137.46 83.7357Z" fill="#666666"/>
<path d="M64.0311 0.00295068L49.8936 52.7676L72.7507 58.8919L86.8883 6.12723L64.0311 0.00295068Z" fill="#FFD645"/>
<path d="M102.652 58.8918H72.7549L86.8928 6.12598L112.326 21.011C115.728 23.0018 117.422 26.9916 116.489 30.8219L111.324 52.0732C110.351 56.0751 106.769 58.8918 102.652 58.8918Z" fill="#FFCB13"/>
<path d="M64.0337 0L49.8978 52.7678L18.7367 34.7734L16.0371 33.2146L24.9414 0H64.0337Z" fill="#FFCB13"/>
<path d="M52.9837 41.4482L49.8965 52.7654L72.755 58.8915L75.7918 47.5601L52.9837 41.4482Z" fill="#E6E6E6"/>
<path d="M105.737 47.573H75.8421L72.7549 58.8902H102.652C106.769 58.8902 110.351 56.0736 111.324 52.0737L113.557 42.8887C112.025 45.7134 109.069 47.573 105.737 47.573Z" fill="#E6E6E6"/>
<path d="M21.8239 23.4541L19.1244 21.8954L24.9939 0H24.9415L16.0371 33.2146L18.7367 34.7734L49.8978 52.7678L52.9366 41.4223L21.8239 23.4541Z" fill="#E6E6E6"/>
<path d="M28.4608 0L18.7367 34.7734L16.0371 33.2146L24.9414 0H28.4608Z" fill="#E6E6E6"/>
<path d="M19.703 64.9451H13.5305V22.9594L10.4433 19.2927L1.18359 6.12598H19.703V64.9451Z" fill="#666666"/>
<path d="M40.0367 51.3177L19.7021 38.9707V64.9447H40.0367V51.3177Z" fill="#666666"/>
<path d="M54.6387 84.7242C54.5821 84.3325 54.5438 83.9408 54.5155 83.5531L53.2051 83.23L53.2879 80.4578L54.6225 80.2135C54.7255 79.4644 54.881 78.7274 55.0869 78.0086L53.94 77.2393L54.9658 74.6629L56.3408 74.8971C56.6901 74.2409 57.0838 73.6109 57.5179 73.0112L56.68 71.8644L58.5255 69.7948L59.7652 70.4995C60.3084 70.0088 60.8858 69.5545 61.4956 69.1386L61.0918 67.7494L63.5349 66.435L64.4778 67.5434C65.1442 67.2729 65.8347 67.0427 66.5495 66.861L66.6484 65.389L69.3924 64.9893L69.9053 66.3724C70.6362 66.3441 71.359 66.3663 72.0718 66.435L72.6735 65.072L75.3892 65.6354L75.3993 67.1154C76.0898 67.3355 76.7622 67.602 77.4124 67.9129L78.4462 66.8368L80.8045 68.2946L80.3078 69.6898C80.8812 70.1299 81.4264 70.6085 81.9352 71.1213L83.2658 70.4671L84.9841 72.6438L84.0533 73.7684C84.443 74.3782 84.7943 75.0182 85.1032 75.6846L86.5529 75.5271L87.4232 78.16L86.1834 78.8869C86.2723 79.2867 86.353 79.6905 86.4136 80.1024C86.4601 80.4234 86.4944 80.7445 86.5206 81.0655L87.9098 81.4068L87.827 84.179L86.452 84.4314C86.3571 85.1765 86.2137 85.9074 86.0199 86.6222L87.1768 87.3975L86.1511 89.9739L84.8064 89.7457C84.4611 90.4161 84.0694 91.0602 83.6353 91.676L84.4389 92.7744L82.5934 94.844L81.4385 94.1878C80.8812 94.7047 80.2856 95.1832 79.6576 95.6194L80.0271 96.8914L77.586 98.2059L76.7481 97.2205C76.0454 97.5153 75.3145 97.7597 74.5614 97.9535L74.4745 99.2498L71.7305 99.6495L71.2843 98.4502C70.5029 98.4885 69.7276 98.4663 68.9664 98.3916L68.4474 99.5647L65.7317 99.0014L65.7236 97.7334C64.9806 97.4992 64.2598 97.2125 63.5632 96.8773L62.6768 97.8L60.3185 96.3422L60.7485 95.1368C60.1367 94.6663 59.5593 94.1535 59.0202 93.5982L57.8571 94.1696L56.1389 91.993L56.9647 90.9956C56.5568 90.3515 56.1934 89.6751 55.8784 88.9684L54.57 89.1097L53.6998 86.4768L54.8426 85.8064C54.7598 85.449 54.6912 85.0896 54.6387 84.7242Z" fill="#333333"/>
<path d="M61.5595 83.7164C62.2804 88.6652 66.8759 92.0957 71.8248 91.3749C76.7736 90.6561 80.2041 86.0586 79.4833 81.1097C78.7625 76.1608 74.1669 72.7303 69.2181 73.4511C64.2692 74.1699 60.8387 78.7675 61.5595 83.7164Z" fill="#B3B3B3"/>
<path d="M63.5448 83.4281C64.1041 87.2805 67.6819 89.9498 71.5365 89.3905C75.3889 88.8292 78.0582 85.2533 77.4989 81.3988C76.9396 77.5463 73.3617 74.8771 69.5072 75.4364C65.6547 75.9977 62.9855 79.5756 63.5448 83.4281Z" fill="#808080"/>
<path d="M66.6368 82.9775C66.9478 85.1218 68.9406 86.6079 71.085 86.297C73.2293 85.986 74.7153 83.9932 74.4044 81.8488C74.0935 79.7045 72.1006 78.2185 69.9563 78.5294C67.812 78.8424 66.3259 80.8332 66.6368 82.9775Z" fill="#B3B3B3"/>
<path d="M67.389 78.7298C66.9448 78.7298 66.5631 78.3987 66.4985 77.9585C66.4279 77.4659 66.7691 77.0095 67.2597 76.9369C67.3042 76.9308 67.3466 76.9268 67.391 76.9268C67.8352 76.9268 68.2168 77.2579 68.2814 77.6981C68.3521 78.1907 68.0108 78.6471 67.5202 78.7197C67.4758 78.7258 67.4314 78.7298 67.389 78.7298Z" fill="#666666"/>
<path d="M72.9272 78.3099C72.6506 78.3099 72.3921 78.1847 72.2205 77.9667C72.0711 77.7789 72.0045 77.5426 72.0327 77.3024C72.061 77.0641 72.1801 76.8501 72.3699 76.7007C72.5294 76.5735 72.7233 76.5068 72.9272 76.5068C73.2058 76.5068 73.4643 76.632 73.6359 76.8501C73.9428 77.2398 73.8762 77.8072 73.4865 78.1161C73.325 78.2433 73.1311 78.3099 72.9272 78.3099Z" fill="#666666"/>
<path d="M76.059 82.8949C75.944 82.8949 75.8329 82.8727 75.7259 82.8303C75.2635 82.6465 75.0374 82.1215 75.2211 81.6592C75.3584 81.3139 75.6875 81.0918 76.059 81.0918C76.1741 81.0918 76.2852 81.114 76.3922 81.1564C76.6163 81.2453 76.792 81.4169 76.8869 81.637C76.9818 81.8591 76.9858 82.1034 76.897 82.3255C76.7577 82.6707 76.4306 82.8949 76.059 82.8949Z" fill="#666666"/>
<path d="M73.6527 87.9007C73.2085 87.9007 72.8269 87.5696 72.7623 87.1294C72.728 86.8912 72.7886 86.6549 72.9319 86.4611C73.0753 86.2673 73.2873 86.1421 73.5255 86.1077C73.57 86.1017 73.6124 86.0977 73.6568 86.0977C74.101 86.0977 74.4826 86.4288 74.5472 86.869C74.5815 87.1072 74.521 87.3435 74.3776 87.5373C74.2343 87.7311 74.0222 87.8563 73.784 87.8906C73.7396 87.8967 73.6972 87.9007 73.6527 87.9007Z" fill="#666666"/>
<path d="M68.1176 88.3207C67.839 88.3207 67.5826 88.1955 67.4109 87.9774C67.2615 87.7896 67.1949 87.5534 67.2232 87.3131C67.2514 87.0749 67.3706 86.8608 67.5603 86.7114C67.7199 86.5842 67.9137 86.5176 68.1176 86.5176C68.3963 86.5176 68.6527 86.6428 68.8243 86.8608C68.9737 87.0486 69.0404 87.2848 69.0121 87.5251C68.9838 87.7634 68.8647 87.9774 68.6749 88.1268C68.5134 88.254 68.3216 88.3207 68.1176 88.3207Z" fill="#666666"/>
<path d="M64.9848 83.7357C64.8697 83.7357 64.7586 83.7135 64.6516 83.6711C64.1913 83.4873 63.9651 82.9624 64.1489 82.5C64.2862 82.1547 64.6153 81.9326 64.9868 81.9326C65.1019 81.9326 65.2129 81.9548 65.32 81.9972C65.7823 82.181 66.0085 82.7059 65.8227 83.1683C65.6854 83.5136 65.3563 83.7357 64.9848 83.7357Z" fill="#666666"/>
<path d="M13.9531 84.7242C13.8966 84.3325 13.8582 83.9408 13.8299 83.5531L12.5195 83.23L12.6023 80.4578L13.937 80.2135C14.0399 79.4644 14.1954 78.7274 14.4014 78.0086L13.2545 77.2393L14.2802 74.6629L15.6552 74.8971C16.0045 74.2409 16.3983 73.6109 16.8324 73.0112L15.9944 71.8644L17.8399 69.7948L19.0797 70.4995C19.6228 70.0088 20.2003 69.5545 20.8101 69.1386L20.4062 67.7494L22.8494 66.435L23.7923 67.5434C24.4586 67.2729 25.1492 67.0427 25.8639 66.861L25.9629 65.389L28.7069 64.9893L29.2197 66.3724C29.9506 66.3441 30.6735 66.3663 31.3862 66.435L31.9879 65.072L34.7037 65.6354L34.7137 67.1154C35.4043 67.3355 36.0767 67.602 36.7268 67.9129L37.7606 66.8368L40.1189 68.2946L39.6222 69.6898C40.1957 70.1299 40.7408 70.6085 41.2497 71.1213L42.5803 70.4671L44.2985 72.6438L43.3677 73.7684C43.7574 74.3782 44.1087 75.0182 44.4177 75.6846L45.8694 75.5271L46.7397 78.16L45.4999 78.8869C45.5888 79.2867 45.6695 79.6905 45.7301 80.1024C45.7765 80.4234 45.8109 80.7445 45.8371 81.0655L47.2263 81.4068L47.1435 84.179L45.7685 84.4314C45.6736 85.1765 45.5302 85.9074 45.3364 86.6222L46.4933 87.3975L45.4676 89.9739L44.1229 89.7457C43.7776 90.4161 43.3859 91.0602 42.9518 91.676L43.7554 92.7744L41.9099 94.844L40.755 94.1878C40.1977 94.7047 39.602 95.1832 38.9741 95.6194L39.3436 96.8914L36.9025 98.2059L36.0645 97.2205C35.3619 97.5153 34.631 97.7597 33.8778 97.9535L33.791 99.2498L31.047 99.6495L30.6008 98.4502C29.8194 98.4885 29.044 98.4663 28.2828 98.3916L27.7639 99.5647L25.0482 99.0014L25.0401 97.7334C24.2971 97.4992 23.5763 97.2125 22.8797 96.8773L21.9933 97.8L19.6349 96.3422L20.065 95.1368C19.4532 94.6663 18.8757 94.1535 18.3366 93.5982L17.1736 94.1696L15.4553 91.993L16.2812 90.9956C15.8733 90.3515 15.5099 89.6751 15.1929 88.9684L13.8845 89.1097L13.0142 86.4768L14.157 85.8064C14.0763 85.449 14.0076 85.0896 13.9531 84.7242Z" fill="#333333"/>
<path d="M20.8745 83.7164C21.5953 88.6652 26.1909 92.0957 31.1397 91.3749C36.0886 90.6561 39.5191 86.0586 38.7983 81.1097C38.0795 76.1608 33.4819 72.7303 28.5331 73.4511C23.5842 74.1699 20.1557 78.7675 20.8745 83.7164Z" fill="#B3B3B3"/>
<path d="M22.8617 83.4281C23.421 87.2805 26.9988 89.9498 30.8534 89.3905C34.7058 88.8292 37.3751 85.2533 36.8158 81.3988C36.2565 77.5463 32.6786 74.8771 28.8241 75.4364C24.9696 75.9977 22.3003 79.5756 22.8617 83.4281Z" fill="#808080"/>
<path d="M25.9552 82.9775C26.2662 85.1218 28.259 86.6079 30.4034 86.297C32.5477 85.986 34.0337 83.9932 33.7228 81.8488C33.4119 79.7045 31.419 78.2185 29.2747 78.5294C27.1283 78.8424 25.6443 80.8332 25.9552 82.9775Z" fill="#B3B3B3"/>
<path d="M26.7044 78.7298C26.2602 78.7298 25.8786 78.3987 25.814 77.9585C25.7433 77.4659 26.0845 77.0095 26.5752 76.9369C26.6196 76.9308 26.662 76.9268 26.7064 76.9268C27.1506 76.9268 27.5322 77.2579 27.5968 77.6981C27.6675 78.1907 27.3263 78.6471 26.8356 78.7197C26.7912 78.7258 26.7488 78.7298 26.7044 78.7298Z" fill="#666666"/>
<path d="M32.2436 78.3099C31.965 78.3099 31.7085 78.1847 31.5369 77.9667C31.3875 77.7789 31.3209 77.5426 31.3491 77.3024C31.3774 77.0641 31.4965 76.8501 31.6863 76.7007C31.8458 76.5735 32.0397 76.5068 32.2436 76.5068C32.5222 76.5068 32.7807 76.632 32.9523 76.8501C33.2592 77.2398 33.1926 77.8072 32.8029 78.1161C32.6393 78.2433 32.4475 78.3099 32.2436 78.3099Z" fill="#666666"/>
<path d="M35.3735 82.8949C35.2584 82.8949 35.1474 82.8727 35.0403 82.8303C34.578 82.6465 34.3518 82.1215 34.5356 81.6592C34.6729 81.3139 35.002 81.0918 35.3735 81.0918C35.4886 81.0918 35.5996 81.114 35.7067 81.1564C35.9308 81.2453 36.1064 81.4169 36.2013 81.637C36.2962 81.8591 36.3003 82.1034 36.2114 82.3255C36.0741 82.6707 35.745 82.8949 35.3735 82.8949Z" fill="#666666"/>
<path d="M32.9701 87.9007C32.5259 87.9007 32.1443 87.5696 32.0797 87.1294C32.0454 86.8912 32.1059 86.6549 32.2493 86.4611C32.3927 86.2673 32.6047 86.1421 32.8429 86.1077C32.8873 86.1017 32.9298 86.0977 32.9742 86.0977C33.4184 86.0977 33.8 86.4288 33.8646 86.869C33.8989 87.1072 33.8384 87.3435 33.695 87.5373C33.5516 87.7311 33.3396 87.8563 33.1014 87.8906C33.057 87.8967 33.0125 87.9007 32.9701 87.9007Z" fill="#666666"/>
<path d="M27.4331 88.3207C27.1544 88.3207 26.898 88.1955 26.7264 87.9774C26.5769 87.7896 26.5103 87.5534 26.5386 87.3131C26.5668 87.0749 26.686 86.8608 26.8758 86.7114C27.0353 86.5842 27.2291 86.5176 27.4331 86.5176C27.7117 86.5176 27.9681 86.6428 28.1397 86.8608C28.2892 87.0486 28.3558 87.2848 28.3275 87.5251C28.2993 87.7634 28.1801 87.9774 27.9903 88.1268C27.8308 88.254 27.637 88.3207 27.4331 88.3207Z" fill="#666666"/>
<path d="M24.2992 83.7357C24.1842 83.7357 24.0731 83.7135 23.9661 83.6711C23.5057 83.4873 23.2796 82.9624 23.4633 82.5C23.6006 82.1547 23.9297 81.9326 24.3013 81.9326C24.4143 81.9326 24.5274 81.9548 24.6344 81.9972C25.0968 82.181 25.3229 82.7059 25.1372 83.1683C24.9999 83.5136 24.6708 83.7357 24.2992 83.7357Z" fill="#666666"/>
<path d="M95.4695 82.3193H95.2635C92.8709 82.3193 90.9063 80.5788 90.4257 78.2366C88.5318 69.0012 80.3402 62.0352 70.5535 62.0352H29.8681C20.0814 62.0352 11.8919 69.0012 9.99592 78.2366C9.51537 80.5808 7.55076 82.3193 5.1581 82.3193H4.95215C4.95215 68.5812 16.128 57.4033 29.8661 57.4033H70.5515C84.2936 57.4033 95.4695 68.5812 95.4695 82.3193Z" fill="#737373"/>
<path d="M7.82373 68.5516H8.57686V60.5781H7.82373C6.97368 60.5781 6.28516 61.2666 6.28516 62.1167V67.0151C6.28718 67.8631 6.9757 68.5516 7.82373 68.5516Z" fill="#121212"/>
<path d="M115.8 33.6828L111.39 51.7354L114.542 52.5053L118.952 34.4528L115.8 33.6828Z" fill="#333333"/>
<path d="M118.116 60.5779H148.393L131.6 55.6855H118.116V60.5779Z" fill="#666666"/>
<path d="M179.266 64.9456H156.995L131.601 55.6859V18.0656C131.601 16.4301 132.927 15.1035 134.563 15.1035H164.549C166.089 15.1035 167.557 15.8122 168.466 17.058C174.749 25.6615 179.266 40.2335 179.266 51.371V64.9456Z" fill="#FFDB5B"/>
<path d="M176.221 50.1553H144.813L136.937 34.4991V20.2763C136.937 20.135 136.953 20.0078 136.983 19.8665C137.157 18.9679 137.96 18.2754 138.921 18.2754H162.783C164.391 18.2754 165.903 19.0164 166.832 20.3228C172.235 27.8985 176.112 40.4211 176.221 50.1553Z" fill="#FFDD52"/>
<path d="M176.221 49.5112H145.448L137.73 34.172V20.236C137.73 20.0966 137.747 19.9735 137.777 19.8342C137.947 18.9538 138.734 18.2754 139.675 18.2754H163.056C164.631 18.2754 166.111 19.0003 167.022 20.2824C172.316 27.7047 176.114 39.9729 176.221 49.5112Z" fill="#B6B6B6"/>
<path d="M138.645 19.4323H162.026C163.601 19.4323 165.081 20.1572 165.992 21.4394C171.074 28.5669 174.767 40.1566 175.151 49.5133H176.219C176.11 39.9749 172.314 27.7067 167.02 20.2824C166.109 19.0023 164.627 18.2754 163.054 18.2754H139.673C138.813 18.2754 138.106 18.8529 137.855 19.6201C138.102 19.5091 138.362 19.4323 138.645 19.4323Z" fill="#7E7E7E"/>
<path d="M179.266 52.1865H131.601V53.7291H179.266V52.1865Z" fill="#E6E6E6"/>
<path d="M179.211 60.5784H177.247C176.859 60.5784 176.544 60.2634 176.544 59.8757V54.4321C176.544 54.0445 176.859 53.7295 177.247 53.7295H179.211C179.936 53.7295 180.524 54.3171 180.524 55.0419V59.2659C180.524 59.9908 179.936 60.5784 179.211 60.5784Z" fill="#F0E5AF"/>
<g opacity="0.25">
<path d="M156.312 49.5113H151.619L137.776 19.8322C137.946 18.9519 138.733 18.2734 139.674 18.2734H141.742L156.312 49.5113Z" fill="white"/>
<path d="M160.138 49.5112H157.439L142.885 18.2754H145.57L160.138 49.5112Z" fill="white"/>
</g>
<path d="M167.944 82.3193H167.738C165.346 82.3193 163.381 80.5788 162.901 78.2366C161.007 69.0012 156.738 62.0352 143.028 62.0352C133.242 62.0352 125.05 69.0012 123.156 78.2366C122.676 80.5808 120.711 82.3193 118.318 82.3193H118.112C118.112 68.5812 129.29 57.4033 143.028 57.4033C156.768 57.4033 167.944 68.5812 167.944 82.3193Z" fill="#737373"/>
<path d="M19.7026 3.18262H0V6.1265H19.7026V3.18262Z" fill="#4D4D4D"/>
<path d="M138.651 48.249H135.231C134.518 48.249 133.94 48.8265 133.94 49.5392V52.1863H142.998L141.863 50.1409C141.215 48.9719 139.986 48.249 138.651 48.249Z" fill="#E6E6E6"/>
<path d="M46.9473 16.6782H51.6984V17.9208H48.531V18.8385H50.001C50.6886 18.8385 51.2165 18.9847 51.5847 19.2771C51.9529 19.5695 52.1369 19.989 52.1369 20.5359C52.1369 21.1098 51.9312 21.5579 51.5197 21.88C51.1082 22.2022 50.5316 22.3633 49.7898 22.3633H46.9473V16.6782ZM49.6842 21.21C49.955 21.21 50.1607 21.1558 50.3015 21.0476C50.4422 20.9393 50.5127 20.785 50.5127 20.5846C50.5127 20.184 50.2365 19.9836 49.6842 19.9836H48.531V21.21H49.6842ZM57.5297 21.1207V22.3633H52.9653V16.6782H57.4241V17.9208H54.5571V18.8791H57.083V20.0811H54.5571V21.1207H57.5297ZM63.028 17.9533H61.2899V22.3633H59.7062V17.9533H57.9601V16.6782H63.028V17.9533ZM66.4796 22.477C65.8786 22.477 65.3386 22.3497 64.8594 22.0953C64.3802 21.8408 64.0039 21.4888 63.7305 21.0395C63.4571 20.5901 63.3203 20.0838 63.3203 19.5207C63.3203 18.9576 63.4571 18.4514 63.7305 18.002C64.0039 17.5526 64.3802 17.2007 64.8594 16.9462C65.3386 16.6917 65.8786 16.5645 66.4796 16.5645C67.0807 16.5645 67.6208 16.6917 68.0999 16.9462C68.5791 17.2007 68.9553 17.5526 69.2288 18.002C69.5022 18.4514 69.6389 18.9576 69.6389 19.5207C69.6389 20.0838 69.5022 20.5901 69.2288 21.0395C68.9553 21.4888 68.5791 21.8408 68.0999 22.0953C67.6208 22.3497 67.0807 22.477 66.4796 22.477ZM66.4796 21.1451C66.7666 21.1451 67.0265 21.0774 67.2593 20.942C67.4921 20.8067 67.6762 20.6158 67.8116 20.3694C67.9469 20.1231 68.0146 19.8402 68.0146 19.5207C68.0146 19.2013 67.9469 18.9184 67.8116 18.672C67.6762 18.4257 67.4921 18.2348 67.2593 18.0994C67.0265 17.9641 66.7666 17.8964 66.4796 17.8964C66.1927 17.8964 65.9328 17.9641 65.6999 18.0994C65.4671 18.2348 65.2831 18.4257 65.1477 18.672C65.0123 18.9184 64.9447 19.2013 64.9447 19.5207C64.9447 19.8402 65.0123 20.1231 65.1477 20.3694C65.2831 20.6158 65.4671 20.8067 65.6999 20.942C65.9328 21.0774 66.1927 21.1451 66.4796 21.1451ZM75.9088 16.6782V22.3633H74.3007V20.146H72.1079V22.3633H70.4998V16.6782H72.1079V18.8141H74.3007V16.6782H75.9088Z" fill="black"/>
<path d="M74.1248 24.001H47.9625C47.8456 24.001 47.7295 24.0084 47.6149 24.0227C47.4995 24.0374 47.3881 24.0587 47.2797 24.0873C47.1721 24.1158 47.0691 24.1508 46.9715 24.1923C46.8739 24.2336 46.7842 24.281 46.7013 24.3337C46.6185 24.3865 46.5441 24.4437 46.4791 24.5058C46.4141 24.5679 46.3591 24.6334 46.3142 24.7021C46.2693 24.771 46.236 24.842 46.2128 24.9154C46.1903 24.9884 46.1787 25.0623 46.1787 25.1368V30.4373C46.1787 30.5118 46.1903 30.5857 46.2128 30.6587C46.236 30.7321 46.2693 30.8031 46.3142 30.8721C46.3591 30.9406 46.4141 31.0063 46.4791 31.0683C46.5441 31.1305 46.6185 31.1876 46.7013 31.2404C46.7842 31.2931 46.8739 31.3405 46.9715 31.3819C47.0691 31.4233 47.1721 31.4583 47.2797 31.4869C47.3881 31.5155 47.4995 31.5367 47.6149 31.5515C47.7295 31.5657 47.8456 31.5732 47.9625 31.5732H74.1248C74.2417 31.5732 74.3578 31.5657 74.4724 31.5515C74.5878 31.5367 74.6992 31.5155 74.8076 31.4869C74.9152 31.4583 75.0182 31.4233 75.1158 31.3819C75.2133 31.3405 75.3031 31.2931 75.386 31.2404C75.4688 31.1876 75.5432 31.1305 75.6082 31.0683C75.6732 31.0063 75.7282 30.9406 75.7731 30.8721C75.8179 30.8031 75.8513 30.7321 75.8745 30.6587C75.897 30.5857 75.9086 30.5118 75.9086 30.4373V25.1368C75.9086 25.0623 75.897 24.9884 75.8745 24.9154C75.8513 24.842 75.8179 24.771 75.7731 24.7021C75.7282 24.6334 75.6732 24.5679 75.6082 24.5058C75.5432 24.4437 75.4688 24.3865 75.386 24.3337C75.3031 24.281 75.2133 24.2336 75.1158 24.1923C75.0182 24.1508 74.9152 24.1158 74.8076 24.0873C74.6992 24.0587 74.5878 24.0374 74.4724 24.0227C74.3578 24.0084 74.2417 24.001 74.1248 24.001ZM52.5393 26.4089H51.0112V30.2862H49.6189V26.4089H48.0837V25.2879H52.5393V26.4089ZM56.388 29.3151H54.2744L53.8817 30.2862H52.4393L54.6458 25.2879H56.0382L58.2517 30.2862H56.7808L56.388 29.3151ZM55.9739 28.2726L55.3313 26.6732L54.6886 28.2726H55.9739ZM60.8437 28.3725H60.201V30.2862H58.7944V25.2879H60.201V27.2301H60.8794L62.0719 25.2879H63.5571L61.9933 27.7014L63.5714 30.2862H61.979L60.8437 28.3725ZM66.4347 30.3862C65.9111 30.3862 65.441 30.2755 65.0245 30.0542C64.6079 29.8328 64.2806 29.5246 64.0426 29.1294C63.8046 28.7344 63.6856 28.2869 63.6856 27.787C63.6856 27.2872 63.8046 26.8397 64.0426 26.4446C64.2806 26.0495 64.6079 25.7413 65.0245 25.52C65.441 25.2986 65.9111 25.1879 66.4347 25.1879C66.8917 25.1879 67.3035 25.2688 67.67 25.4307C68.0365 25.5926 68.3412 25.8258 68.584 26.1305L67.6843 26.9445C67.3606 26.5541 66.9679 26.359 66.5061 26.359C66.2348 26.359 65.9932 26.4185 65.7813 26.5375C65.5695 26.6565 65.4053 26.8243 65.2886 27.0409C65.172 27.2575 65.1137 27.5062 65.1137 27.787C65.1137 28.0679 65.172 28.3166 65.2886 28.5332C65.4053 28.7498 65.5695 28.9176 65.7813 29.0366C65.9932 29.1556 66.2348 29.2152 66.5061 29.2152C66.9679 29.2152 67.3606 29.02 67.6843 28.6296L68.584 29.4437C68.3412 29.7483 68.0365 29.9816 67.67 30.1434C67.3035 30.3053 66.8917 30.3862 66.4347 30.3862ZM69.2195 25.2879H70.6119V28.2226L72.6754 25.2879H74.0036V30.2862H72.6112V27.3586L70.5547 30.2862H69.2195V25.2879Z" fill="white"/>
<path fill-rule="evenodd" clip-rule="evenodd" d="M93.1768 26.1021V21.3809C93.1768 20.8276 93.5876 20.5781 94.1578 20.5781H97.324C97.6957 20.5781 97.9315 20.6551 98.1174 20.855L100.142 23.9588C100.289 24.1886 100.892 25.0078 100.892 25.2605V26.1021H93.1768ZM95.3228 21.5781H97.1224C97.1637 21.7331 98.5651 23.7425 98.7454 24.0833H95.3228V21.5781Z" fill="black"/>
<path fill-rule="evenodd" clip-rule="evenodd" d="M89.0684 26.1018L90.5959 21.6537C90.7178 21.2878 90.8493 20.9408 90.9749 20.561C91.0832 20.2334 91.2175 19.7356 91.3484 19.4629C91.5355 19.5129 91.604 19.6706 91.7431 19.7817C91.9939 19.982 92.6416 20.5593 92.6416 20.8899C92.6416 21.3971 92.1851 22.5039 92.0004 23.0582L90.9508 26.1018H89.0684Z" fill="black"/>
<path fill-rule="evenodd" clip-rule="evenodd" d="M80.9316 26.1019L84.2129 16.5645C84.4209 16.5691 84.8457 16.633 85.0866 16.6717C86.1056 16.8353 87.2137 17.164 88.1442 17.5385C89.0079 17.8863 89.3585 18.1346 90.0993 18.5266C90.0819 18.7358 89.7848 19.4919 89.6923 19.7695L87.5188 26.1019H80.9316ZM86.6126 19.4351L85.0059 18.8941L85.5453 17.2924L87.152 17.8335L86.6126 19.4351L88.2194 19.9762L87.6801 21.5778L86.0733 21.0367L85.5339 22.6385L87.1407 23.1796L86.6013 24.7813L84.9945 24.2402L84.4551 25.842L82.8484 25.3009L83.3878 23.6991L84.9945 24.2402L85.5339 22.6385L83.9272 22.0974L84.4666 20.4956L86.0733 21.0367L86.6126 19.4351Z" fill="white"/>
<path fill-rule="evenodd" clip-rule="evenodd" d="M78.7012 24.0562C78.7012 24.4235 79.7378 25.3613 79.8606 25.3941C79.9927 24.8272 81.4387 20.7714 81.7279 19.9033C81.8793 19.4489 82.8308 16.7766 82.8484 16.5645C82.6321 16.6149 82.4473 16.5965 82.2038 16.6333C81.3991 16.755 81.1544 16.661 80.8803 17.4949L79.0306 22.9141C78.9224 23.2233 78.7012 23.6906 78.7012 24.0562Z" fill="black"/>
<path d="M80.2276 29.1523C80.7421 29.1523 81.1227 29.2573 81.3694 29.4673C81.6161 29.6773 81.7395 29.9573 81.7395 30.3072C81.7395 30.5347 81.6809 30.7438 81.5637 30.9345C81.4464 31.1253 81.268 31.2775 81.0282 31.3912C80.7885 31.505 80.4919 31.5619 80.1384 31.5619C79.8794 31.5619 79.6231 31.5304 79.3694 31.4674C79.1156 31.4044 78.8978 31.3152 78.7158 31.1996L79.0885 30.4174C79.2355 30.5155 79.3974 30.5907 79.5741 30.6432C79.7508 30.6957 79.9284 30.7219 80.1069 30.7219C80.2854 30.7219 80.428 30.6878 80.5347 30.6196C80.6415 30.5514 80.6949 30.456 80.6949 30.3335C80.6949 30.211 80.6423 30.1183 80.5374 30.0553C80.4324 29.9923 80.2469 29.9608 79.9809 29.9608H78.9835L79.1673 27.8137H81.5085V28.6169H80.0282L79.9809 29.1523H80.2276ZM83.6608 31.5619C83.3459 31.5619 83.0659 31.4866 82.8209 31.3361C82.576 31.1856 82.3843 30.9661 82.2461 30.6773C82.1078 30.3886 82.0388 30.0465 82.0388 29.651C82.0388 29.2556 82.1078 28.9135 82.2461 28.6247C82.3843 28.336 82.576 28.1165 82.8209 27.966C83.0659 27.8154 83.3459 27.7402 83.6608 27.7402C83.9723 27.7402 84.2506 27.8154 84.4955 27.966C84.7405 28.1165 84.9321 28.336 85.0703 28.6247C85.2086 28.9135 85.2777 29.2556 85.2777 29.651C85.2777 30.0465 85.2086 30.3886 85.0703 30.6773C84.9321 30.9661 84.7405 31.1856 84.4955 31.3361C84.2506 31.4866 83.9723 31.5619 83.6608 31.5619ZM83.6608 30.7114C83.8359 30.7114 83.9749 30.6266 84.0782 30.4568C84.1814 30.2871 84.233 30.0185 84.233 29.651C84.233 29.2835 84.1814 29.0149 84.0782 28.8452C83.9749 28.6755 83.8359 28.5906 83.6608 28.5906C83.4823 28.5906 83.3415 28.6755 83.2383 28.8452C83.135 29.0149 83.0834 29.2835 83.0834 29.651C83.0834 30.0185 83.135 30.2871 83.2383 30.4568C83.3415 30.6266 83.4823 30.7114 83.6608 30.7114ZM87.01 29.1523C87.5245 29.1523 87.905 29.2573 88.1518 29.4673C88.3985 29.6773 88.5218 29.9573 88.5218 30.3072C88.5218 30.5347 88.4632 30.7438 88.3461 30.9345C88.2288 31.1253 88.0503 31.2775 87.8106 31.3912C87.5708 31.505 87.2742 31.5619 86.9208 31.5619C86.6618 31.5619 86.4055 31.5304 86.1517 31.4674C85.898 31.4044 85.6802 31.3152 85.4982 31.1996L85.8709 30.4174C86.0179 30.5155 86.1797 30.5907 86.3565 30.6432C86.5332 30.6957 86.7108 30.7219 86.8892 30.7219C87.0678 30.7219 87.2104 30.6878 87.3171 30.6196C87.4238 30.5514 87.4772 30.456 87.4772 30.3335C87.4772 30.211 87.4247 30.1183 87.3197 30.0553C87.2148 29.9923 87.0292 29.9608 86.7633 29.9608H85.7659L85.9496 27.8137H88.2909V28.6169H86.8106L86.7633 29.1523H87.01ZM88.8946 29.609H90.4274V30.3755H88.8946V29.609ZM92.2333 29.1523C92.7478 29.1523 93.1283 29.2573 93.3751 29.4673C93.6218 29.6773 93.7451 29.9573 93.7451 30.3072C93.7451 30.5347 93.6865 30.7438 93.5693 30.9345C93.4521 31.1253 93.2736 31.2775 93.0339 31.3912C92.7941 31.505 92.4975 31.5619 92.1441 31.5619C91.8851 31.5619 91.6287 31.5304 91.375 31.4674C91.1212 31.4044 90.9034 31.3152 90.7215 31.1996L91.0941 30.4174C91.2411 30.5155 91.403 30.5907 91.5798 30.6432C91.7565 30.6957 91.9341 30.7219 92.1125 30.7219C92.291 30.7219 92.4337 30.6878 92.5404 30.6196C92.6471 30.5514 92.7005 30.456 92.7005 30.3335C92.7005 30.211 92.648 30.1183 92.543 30.0553C92.438 29.9923 92.2525 29.9608 91.9866 29.9608H90.9892L91.1729 27.8137H93.5142V28.6169H92.0339L91.9866 29.1523H92.2333ZM95.6665 31.5619C95.3515 31.5619 95.0715 31.4866 94.8265 31.3361C94.5816 31.1856 94.3899 30.9661 94.2517 30.6773C94.1135 30.3886 94.0444 30.0465 94.0444 29.651C94.0444 29.2556 94.1135 28.9135 94.2517 28.6247C94.3899 28.336 94.5816 28.1165 94.8265 27.966C95.0715 27.8154 95.3515 27.7402 95.6665 27.7402C95.9779 27.7402 96.2562 27.8154 96.5012 27.966C96.7461 28.1165 96.9378 28.336 97.076 28.6247C97.2142 28.9135 97.2833 29.2556 97.2833 29.651C97.2833 30.0465 97.2142 30.3886 97.076 30.6773C96.9378 30.9661 96.7461 31.1856 96.5012 31.3361C96.2562 31.4866 95.9779 31.5619 95.6665 31.5619ZM95.6665 30.7114C95.8415 30.7114 95.9805 30.6266 96.0838 30.4568C96.187 30.2871 96.2387 30.0185 96.2387 29.651C96.2387 29.2835 96.187 29.0149 96.0838 28.8452C95.9805 28.6755 95.8415 28.5906 95.6665 28.5906C95.4879 28.5906 95.3472 28.6755 95.2439 28.8452C95.1407 29.0149 95.089 29.2835 95.089 29.651C95.089 30.0185 95.1407 30.2871 95.2439 30.4568C95.3472 30.6266 95.4879 30.7114 95.6665 30.7114ZM99.0157 29.1523C99.5301 29.1523 99.9107 29.2573 100.157 29.4673C100.404 29.6773 100.528 29.9573 100.528 30.3072C100.528 30.5347 100.469 30.7438 100.352 30.9345C100.234 31.1253 100.056 31.2775 99.8162 31.3912C99.5765 31.505 99.2799 31.5619 98.9264 31.5619C98.6674 31.5619 98.4111 31.5304 98.1574 31.4674C97.9036 31.4044 97.6858 31.3152 97.5038 31.1996L97.8765 30.4174C98.0235 30.5155 98.1854 30.5907 98.3621 30.6432C98.5388 30.6957 98.7165 30.7219 98.8949 30.7219C99.0734 30.7219 99.216 30.6878 99.3228 30.6196C99.4295 30.5514 99.4829 30.456 99.4829 30.3335C99.4829 30.211 99.4304 30.1183 99.3254 30.0553C99.2204 29.9923 99.0349 29.9608 98.7689 29.9608H97.7715L97.9553 27.8137H100.297V28.6169H98.8162L98.7689 29.1523H99.0157Z" fill="black"/>
<path fill-rule="evenodd" clip-rule="evenodd" d="M78.8257 26.0273H100.762C100.832 26.0273 100.889 26.0842 100.889 26.1538V26.8959C100.889 26.9655 100.832 27.0223 100.762 27.0223H78.8257C78.7561 27.0223 78.6992 26.9655 78.6992 26.8959V26.1538C78.6992 26.0842 78.7561 26.0273 78.8257 26.0273Z" fill="black"/>
</svg>
