<svg width="29" height="21" viewBox="0 0 29 21" fill="none" xmlns="http://www.w3.org/2000/svg">
<path d="M11.8125 0.799772C10.573 4.19998 9.34054 7.58285 8.07659 11.05C6.68972 10.2053 5.33043 9.37633 3.9467 8.53396C3.9467 9.77978 3.9467 11.0382 3.9467 12.314C3.27454 12.314 2.64099 12.314 1.96568 12.314C1.96568 12.1934 1.96568 12.0792 1.96568 11.9657C1.96568 10.3928 1.96253 8.82 1.96962 7.24716C1.97041 7.06277 1.92155 6.94063 1.77026 6.82637C1.44087 6.57815 1.13277 6.30235 0.808113 6.04783C0.680458 5.94775 0.653666 5.85556 0.711978 5.69796C1.38414 3.87453 2.04921 2.04953 2.71034 0.222958C2.76628 0.0677228 2.8506 0.0180789 3.01135 0.0141389C5.07827 -0.0394448 7.13809 0.0574786 9.18688 0.335641C9.96463 0.441233 10.7361 0.590952 11.5099 0.722548C11.6052 0.73752 11.6967 0.76904 11.8125 0.799772Z" fill="#606060"/>
<path d="M1.94399 18.2425C1.29231 18.2425 0.656401 18.2425 0 18.2425C0 16.7146 0 15.1969 0 13.6611C6.13692 13.6611 12.2652 13.6611 18.4178 13.6611C18.4178 15.1749 18.4178 16.6918 18.4178 18.2559C18.3209 18.2559 18.2185 18.2559 18.1153 18.2559C15.0389 18.2559 11.9626 18.2528 8.88545 18.2615C8.62541 18.2622 8.54188 18.2008 8.52376 17.9266C8.42053 16.3592 7.07148 15.0819 5.43718 14.9779C3.8407 14.8762 2.36163 16.0023 2.03855 17.5704C1.996 17.78 1.97866 17.9951 1.94399 18.2425Z" fill="#606060"/>
<path d="M21.073 18.2398C20.6357 18.2398 20.2172 18.2398 19.7783 18.2398C19.7783 14.2943 19.7783 10.3583 19.7783 6.38833C19.9477 6.38833 20.1014 6.38676 20.2558 6.38833C21.307 6.39858 22.363 6.34657 23.407 6.43876C24.5071 6.53647 25.2297 7.2173 25.5756 8.25903C25.8199 8.99424 26.02 9.74441 26.2281 10.4906C26.3274 10.8468 26.5125 11.1273 26.8128 11.3456C27.3289 11.7215 27.8293 12.1186 28.3446 12.4953C28.7922 12.8223 29.0073 13.2455 29.0002 13.8042C28.9868 14.8364 29.001 15.8687 28.9947 16.9002C28.9908 17.5361 28.6196 18.0357 28.0389 18.2028C27.9301 18.2343 27.8135 18.2366 27.6803 18.2548C27.6307 17.176 27.217 16.3061 26.3849 15.6552C25.7663 15.1713 25.0579 14.9562 24.2715 14.9696C22.7885 14.9964 21.1676 16.1808 21.073 18.2398ZM24.9862 10.9855C24.7356 10.1353 24.5126 9.30234 24.2415 8.48598C24.0981 8.05494 23.7388 7.77442 23.292 7.74763C22.571 7.70429 21.8452 7.7358 21.11 7.7358C21.11 8.82482 21.11 9.90595 21.11 10.9855C22.4087 10.9855 23.6821 10.9855 24.9862 10.9855Z" fill="#606060"/>
<path d="M9.93066 11.7635C11.2001 8.26087 12.4609 4.78422 13.7194 1.31152C15.4269 1.55817 17.4056 3.46906 17.8485 5.27987C18.3748 7.43189 17.4166 10.0276 15.6397 11.3435C13.9329 12.6082 11.5201 12.4751 9.93066 11.7635Z" fill="#606060"/>
<path d="M5.213 20.563C3.93329 20.5339 2.91362 19.474 2.95223 18.2156C2.99163 16.9311 4.04124 15.9201 5.30283 15.9509C6.57544 15.9824 7.60614 17.0541 7.56674 18.3046C7.52498 19.593 6.48403 20.5922 5.213 20.563Z" fill="#606060"/>
<path d="M24.3813 20.5641C23.1047 20.5673 22.0764 19.5421 22.0732 18.2647C22.0709 16.9921 23.1039 15.952 24.3726 15.9512C25.6381 15.9496 26.6822 16.9905 26.687 18.2569C26.6909 19.5247 25.6555 20.561 24.3813 20.5641Z" fill="#606060"/>
</svg>
