<svg width="43" height="18" viewBox="0 0 43 18" fill="none" xmlns="http://www.w3.org/2000/svg">
<path d="M2.68018 -0.00488281C2.87966 0.00890442 3.07915 0.0291541 3.27863 0.035186C7.31915 0.157117 11.3592 0.277324 15.3998 0.398393C18.1197 0.479824 20.8397 0.562117 23.5592 0.64484C26.5015 0.734026 29.4438 0.824075 32.3861 0.914553C32.4606 0.916708 32.5347 0.926617 32.6597 0.936957C32.2327 1.19935 31.7777 1.38461 31.7329 1.90853C31.7019 2.2726 31.6385 2.65692 31.9164 2.97919C32.4399 3.5854 33.2741 3.66597 33.8001 3.14722C34.1396 2.81245 34.2336 2.40013 34.1483 1.93955C34.0604 1.46647 33.7299 1.19375 33.3059 0.974011C33.6213 0.905075 34.0573 1.1442 34.215 1.48198C34.2943 1.65131 34.3538 1.85553 34.3404 2.03821C34.2822 2.83184 34.2038 3.62461 34.1138 4.41522C33.9992 5.42039 33.8648 6.42299 33.7424 7.4273C33.7265 7.55742 33.7157 7.66384 33.5403 7.6647C32.1478 7.66944 30.7553 7.67978 29.3628 7.68667C29.3068 7.6871 29.2503 7.67332 29.1577 7.66168C29.212 7.51002 29.2521 7.36913 29.3124 7.23686C29.4205 7.00033 29.4179 6.76723 29.3331 6.52596C29.2525 6.29588 29.1844 6.0615 29.1047 5.83143C29.0586 5.69872 29.075 5.60049 29.2055 5.52337C29.5381 5.32647 29.8242 5.08347 29.9815 4.7013C29.9901 4.81376 29.9992 4.92621 30.0078 5.03866C30.031 5.04771 30.0547 5.05632 30.078 5.06537C30.4533 4.36438 30.8285 3.66295 31.2288 2.91499C30.7967 2.91499 30.4106 2.91499 29.9996 2.91499C29.9996 3.27432 29.9996 3.65606 29.9996 4.07743C29.8505 3.85899 29.7394 3.66942 29.6019 3.50182C29.4546 3.32172 29.2865 3.15713 29.1172 2.99686C29.0789 2.96067 28.997 2.96239 28.935 2.9611C27.7363 2.93697 26.5377 2.89518 25.3391 2.89604C18.8194 2.89991 12.2998 2.91413 5.78015 2.9249C5.72285 2.9249 5.66598 2.9249 5.58412 2.9249C5.56387 3.21573 5.54362 3.49794 5.52207 3.80513C12.8306 3.80513 20.1228 3.80513 27.4412 3.80513C27.4627 4.32 27.3748 4.84219 27.7975 5.28942C21.9267 5.28942 16.112 5.28942 10.2847 5.28942C10.2847 6.47813 10.2847 7.63799 10.2847 8.81335C10.831 8.81335 11.3726 8.81335 11.9469 8.81335C11.9469 8.52726 11.9543 8.23601 11.9439 7.94561C11.9392 7.81377 11.9801 7.7388 12.0977 7.6759C12.5906 7.41179 13.077 7.13475 13.5704 6.87107C13.6604 6.82281 13.772 6.79309 13.8741 6.79222C14.5419 6.78533 15.2098 6.78576 15.8776 6.79179C15.9732 6.79266 16.0788 6.81721 16.1615 6.86332C16.6367 7.13044 17.1038 7.41136 17.579 7.67848C17.6897 7.74096 17.7216 7.81463 17.7186 7.93441C17.7113 8.22093 17.716 8.5083 17.716 8.81938C19.3201 8.81938 20.9164 8.81938 22.5312 8.81938C22.5312 9.63455 22.5312 10.426 22.5312 11.239C18.4571 11.239 14.3821 11.239 10.2744 11.239C10.2744 11.4717 10.2645 11.685 10.2834 11.8957C10.2869 11.9331 10.4088 11.987 10.4764 11.9874C11.2877 11.9956 12.099 11.9956 12.9103 11.9969C13.3756 11.9978 13.8405 11.9969 14.3119 11.9969C14.3028 12.034 14.3032 12.0533 14.2964 12.0568C13.4045 12.5006 12.8237 13.2304 12.4303 14.1197C12.3274 14.3524 12.2024 14.4243 11.9517 14.4204C10.9112 14.4049 9.87022 14.414 8.8043 14.414C8.8043 14.6561 8.8043 14.8888 8.8043 15.1313C8.7345 15.1421 8.68754 15.1568 8.64057 15.1559C7.87969 15.1473 7.11579 15.1766 6.35965 15.1115C5.91156 15.0732 5.47425 14.8931 5.0365 14.7625C4.81074 14.6953 4.59661 14.588 4.37213 14.5152C4.22392 14.4674 4.20065 14.3864 4.25408 14.258C4.29242 14.1654 4.32948 14.0719 4.37041 13.9805C4.66382 13.3239 4.22952 12.47 3.5212 12.3119C3.20496 12.2412 3.20496 12.2412 3.20496 11.9245C3.20496 11.5885 3.20496 11.2524 3.20496 10.89C4.13732 10.89 5.05201 10.89 5.99041 10.89C5.99041 10.1942 5.99041 9.52425 5.99041 8.83403C6.9301 8.83403 7.84609 8.83403 8.77629 8.83403C8.77629 7.6535 8.77629 6.49364 8.77629 5.29588C8.6996 5.29588 8.61774 5.29588 8.53545 5.29588C6.90554 5.29588 5.27563 5.29372 3.64572 5.29932C3.4932 5.29976 3.3941 5.25839 3.30707 5.13259C3.07915 4.80428 2.79392 4.53543 2.376 4.50354C2.15325 4.48631 1.92102 4.5281 1.69913 4.57334C1.39323 4.63582 1.25794 4.55912 1.18254 4.22694C1.88138 4.06106 2.40357 3.68794 2.36264 2.90509C2.3174 2.04468 1.77324 1.64786 0.892578 1.65217C1.18039 1.03347 1.55609 0.522479 1.90465 -0.00488281C2.16316 -0.00488281 2.42167 -0.00488281 2.68018 -0.00488281Z" fill="#606060"/>
<path d="M42.4479 13.1363C42.4186 13.3487 42.3915 13.5612 42.36 13.7731C42.32 14.0441 42.1588 14.2242 41.9257 14.3526C41.8198 14.4112 41.7482 14.3897 41.703 14.2798C41.6759 14.2139 41.6534 14.1454 41.6276 14.0786C41.0192 12.5146 39.8176 11.6051 38.2196 11.6826C36.7465 11.7542 35.7215 12.512 35.1299 13.8597C35.1213 13.8796 35.1097 13.8989 35.1062 13.9196C35.0425 14.3238 34.759 14.3819 34.4151 14.3828C32.369 14.3892 30.3229 14.4043 28.2768 14.4134C27.444 14.4173 26.6111 14.4095 25.7783 14.4181C25.6228 14.4198 25.5491 14.3673 25.4952 14.2268C25.151 13.3319 24.562 12.6391 23.746 12.1381C23.7309 12.129 23.7236 12.107 23.6719 12.0316C27.4724 11.9614 31.2286 12.0075 35.0192 11.9868C35.0192 11.8821 35.0192 11.7925 35.0192 11.7025C35.0252 9.44092 35.03 7.17895 35.039 4.91742C35.0403 4.58738 35.0563 4.25735 35.0739 3.92775C35.1058 3.33619 35.4509 2.97557 36.0554 2.92688C36.4195 2.89759 36.787 2.88725 37.1523 2.89974C37.8835 2.92473 38.6147 2.96178 39.3445 3.01306C39.7543 3.04149 40.0981 3.22891 40.3699 3.54257C41.1489 4.44176 41.8017 5.42668 42.3639 6.47279C42.4018 6.54345 42.4066 6.63694 42.4092 6.72053C42.4251 7.27934 42.4363 7.83816 42.4488 8.39697C42.4479 9.9769 42.4479 11.5564 42.4479 13.1363ZM35.9576 9.19405C37.7521 9.19405 39.5341 9.19405 41.335 9.19405C41.335 8.565 41.3372 7.94975 41.3316 7.33449C41.3312 7.2759 41.2881 7.21515 41.2571 7.15957C40.6556 6.1001 40.0498 5.04279 39.4535 3.98032C39.3786 3.84675 39.2932 3.80754 39.1485 3.80841C38.1584 3.81358 37.1683 3.81099 36.1782 3.81142C36.1084 3.81142 36.0386 3.81788 35.958 3.82176C35.9576 5.61927 35.9576 7.40171 35.9576 9.19405Z" fill="#606060"/>
<path d="M38.0098 18.0049C37.6936 17.8976 37.3562 17.8304 37.0645 17.6766C36.0107 17.1199 35.4209 15.8911 35.6031 14.7028C35.7742 13.5865 36.7225 12.6412 37.8944 12.4184C39.3618 12.1397 40.8896 13.206 41.146 14.6886C41.4105 16.2186 40.3787 17.7102 38.8845 17.9601C38.822 17.9704 38.7608 17.9898 38.6992 18.0053C38.4696 18.0049 38.2395 18.0049 38.0098 18.0049ZM40.1253 15.2004C40.1417 14.3702 39.5493 13.4503 38.3149 13.437C37.4441 13.4275 36.6548 14.1207 36.6315 15.1875C36.6117 16.0833 37.4484 16.9187 38.3429 16.9191C39.3855 16.92 40.1193 16.2125 40.1253 15.2004Z" fill="#606060"/>
<path d="M15.6925 18.0046C15.4667 17.9701 15.2388 17.9455 15.0156 17.8994C13.8166 17.6521 12.845 16.313 12.9816 14.9813C13.1156 13.6741 13.9657 12.6995 15.2466 12.4285C16.8472 12.0898 18.5327 13.4406 18.5542 14.9951C18.5702 16.139 18.1492 17.0093 17.191 17.625C16.8705 17.8309 16.5206 17.9443 16.1402 17.9671C16.0195 17.9744 15.8993 17.9921 15.7787 18.005C15.7498 18.0046 15.7214 18.0046 15.6925 18.0046ZM17.5185 15.2148C17.5176 14.3023 16.8817 13.4363 15.7485 13.4251C14.7675 13.4156 14.0238 14.2019 14.0109 15.179C13.9984 16.1278 14.7877 16.9253 15.7369 16.933C16.7149 16.9417 17.5133 16.1713 17.5185 15.2148Z" fill="#606060"/>
<path d="M0.224609 2.75305C0.356019 2.41181 0.54904 2.13564 0.938099 2.05507C1.41376 1.95683 1.87822 2.23043 2.00963 2.69144C2.1406 3.15115 1.87262 3.64534 1.40643 3.80432C0.948008 3.96072 0.466317 3.73366 0.283636 3.27481C0.26554 3.22957 0.244429 3.18519 0.22504 3.14038C0.224609 3.01156 0.224609 2.8823 0.224609 2.75305Z" fill="#606060"/>
<path d="M22.1241 17.9805C20.4783 18.0478 19.271 16.476 19.3003 15.1417C19.3344 13.6083 20.5873 12.373 22.1495 12.3653C23.4869 12.3584 24.969 13.6117 24.9229 15.2188C24.8777 16.8009 23.7127 17.9853 22.1241 17.9805ZM23.8471 15.1645C23.9182 14.2278 22.9893 13.4243 22.1797 13.4333C21.2297 13.4437 20.368 14.2683 20.3615 15.2046C20.3551 16.1081 21.1681 16.9172 22.0815 16.9297C22.8462 16.9405 23.8842 16.3743 23.8471 15.1645Z" fill="#606060"/>
<path d="M24.4238 11.2276C24.4238 10.7989 24.4238 10.3852 24.4238 9.9475C24.5897 9.9475 24.7457 9.9475 24.9012 9.9475C25.641 9.9475 26.3803 9.94276 27.1201 9.95095C27.283 9.95267 27.4023 9.90399 27.5234 9.79929C28.0064 9.38093 28.4949 8.96947 28.9874 8.56189C29.0529 8.5076 29.1503 8.46279 29.233 8.46236C30.6117 8.45633 31.9904 8.45805 33.3687 8.45891C33.4174 8.45891 33.4661 8.46968 33.5208 8.47615C33.5208 8.96387 33.5208 9.44298 33.5208 9.94707C33.4368 9.94707 33.3601 9.94707 33.2839 9.94707C32.0848 9.94707 30.8857 9.95009 29.6867 9.94362C29.5186 9.94276 29.3881 9.9893 29.2554 10.0901C28.781 10.4503 28.2998 10.8014 27.8172 11.1504C27.7517 11.1978 27.6643 11.2405 27.5867 11.2409C26.56 11.2465 25.5333 11.2439 24.5066 11.2431C24.485 11.2435 24.4643 11.2357 24.4238 11.2276Z" fill="#606060"/>
<path d="M28.3848 11.1541C28.7631 10.8879 29.1405 10.6203 29.5218 10.3583C29.5644 10.3291 29.6299 10.3235 29.6851 10.3235C30.9251 10.3217 32.1655 10.3222 33.4055 10.323C33.4395 10.323 33.474 10.3303 33.5184 10.3355C33.5184 10.635 33.5184 10.9258 33.5184 11.2119C31.8105 11.2119 30.1056 11.2119 28.4007 11.2119C28.3955 11.192 28.3899 11.1731 28.3848 11.1541Z" fill="#606060"/>
<path d="M20.7601 12.0088C20.4494 12.2208 20.1375 12.3914 19.8785 12.6215C19.6032 12.8662 19.3607 13.1536 19.1362 13.447C18.9427 13.6999 18.9302 13.7063 18.7644 13.4409C18.4826 12.9898 18.0789 12.6542 17.6536 12.3453C17.5045 12.2367 17.3469 12.1398 17.1504 12.0088C18.377 12.0088 19.5532 12.0088 20.7601 12.0088Z" fill="#606060"/>
<path d="M3.11212 5.76746C3.11083 6.24441 2.66447 6.6856 2.18105 6.68776C1.67696 6.68991 1.27282 6.26466 1.2754 5.73514C1.27799 5.23967 1.66791 4.85362 2.16899 4.85061C2.68816 4.84716 3.11341 5.26078 3.11212 5.76746Z" fill="#606060"/>
<path d="M3.2434 12.6436C3.79919 12.6418 4.14732 12.9766 4.14732 13.5126C4.14732 14.0167 3.74491 14.4566 3.28088 14.4605C2.75438 14.4648 2.33258 14.0468 2.33301 13.5221C2.33344 13.0124 2.71388 12.6453 3.2434 12.6436Z" fill="#606060"/>
<path d="M28.681 5.25079C28.2506 5.24863 27.7697 4.79839 27.7628 4.39081C27.7538 3.85526 28.1657 3.44121 28.7047 3.44337C29.2312 3.44552 29.6267 3.85698 29.6168 4.39296C29.609 4.81778 29.1347 5.25294 28.681 5.25079Z" fill="#606060"/>
<path d="M32.0426 2.18313C32.0207 1.6549 32.5764 1.27662 32.9349 1.2904C33.4153 1.30893 33.8522 1.7596 33.8363 2.23138C33.8186 2.75314 33.4011 3.15728 32.8936 3.14479C32.3886 3.13186 32.0275 2.72385 32.0426 2.18313Z" fill="#606060"/>
</svg>
