<svg width="43" height="18" viewBox="0 0 43 18" fill="none" xmlns="http://www.w3.org/2000/svg">
<path d="M2.45557 -0.00488281C2.65505 0.00890442 2.85454 0.0291541 3.05402 0.035186C7.09454 0.157117 11.1346 0.277324 15.1752 0.398393C17.8951 0.479824 20.6151 0.562117 23.3346 0.64484C26.2769 0.734026 29.2192 0.824075 32.1615 0.914553C32.236 0.916708 32.3101 0.926617 32.4351 0.936957C32.0081 1.19935 31.5531 1.38461 31.5083 1.90853C31.4773 2.2726 31.4139 2.65692 31.6918 2.97919C32.2153 3.5854 33.0494 3.66597 33.5755 3.14722C33.915 2.81245 34.009 2.40013 33.9236 1.93955C33.8358 1.46647 33.5053 1.19375 33.0813 0.974011C33.3967 0.905075 33.8327 1.1442 33.9904 1.48198C34.0697 1.65131 34.1292 1.85553 34.1158 2.03821C34.0576 2.83184 33.9792 3.62461 33.8892 4.41522C33.7746 5.42039 33.6401 6.42299 33.5178 7.4273C33.5018 7.55742 33.4911 7.66384 33.3157 7.6647C31.9232 7.66944 30.5307 7.67978 29.1382 7.68667C29.0822 7.6871 29.0257 7.67332 28.9331 7.66168C28.9874 7.51002 29.0275 7.36913 29.0878 7.23686C29.1959 7.00033 29.1933 6.76723 29.1085 6.52596C29.0279 6.29588 28.9598 6.0615 28.8801 5.83143C28.834 5.69872 28.8504 5.60049 28.9809 5.52337C29.3135 5.32647 29.5996 5.08347 29.7569 4.7013C29.7655 4.81376 29.7745 4.92621 29.7832 5.03866C29.8064 5.04771 29.8301 5.05632 29.8534 5.06537C30.2287 4.36438 30.6039 3.66295 31.0042 2.91499C30.5721 2.91499 30.186 2.91499 29.775 2.91499C29.775 3.27432 29.775 3.65606 29.775 4.07743C29.6259 3.85899 29.5147 3.66942 29.3773 3.50182C29.2299 3.32172 29.0619 3.15713 28.8926 2.99686C28.8542 2.96067 28.7724 2.96239 28.7103 2.9611C27.5117 2.93697 26.3131 2.89518 25.1145 2.89604C18.5948 2.89991 12.0752 2.91413 5.55554 2.9249C5.49824 2.9249 5.44137 2.9249 5.35951 2.9249C5.33926 3.21573 5.31901 3.49794 5.29746 3.80513C12.606 3.80513 19.8981 3.80513 27.2166 3.80513C27.2381 4.32 27.1502 4.84219 27.5729 5.28942C21.7021 5.28942 15.8874 5.28942 10.0601 5.28942C10.0601 6.47813 10.0601 7.63799 10.0601 8.81335C10.6064 8.81335 11.148 8.81335 11.7223 8.81335C11.7223 8.52726 11.7296 8.23601 11.7193 7.94561C11.7146 7.81377 11.7555 7.7388 11.8731 7.6759C12.366 7.41179 12.8524 7.13475 13.3458 6.87107C13.4358 6.82281 13.5474 6.79309 13.6495 6.79222C14.3173 6.78533 14.9852 6.78576 15.653 6.79179C15.7486 6.79266 15.8542 6.81721 15.9369 6.86332C16.4121 7.13044 16.8792 7.41136 17.3544 7.67848C17.4651 7.74096 17.497 7.81463 17.494 7.93441C17.4867 8.22093 17.4914 8.5083 17.4914 8.81938C19.0955 8.81938 20.6918 8.81938 22.3066 8.81938C22.3066 9.63455 22.3066 10.426 22.3066 11.239C18.2325 11.239 14.1575 11.239 10.0498 11.239C10.0498 11.4717 10.0398 11.685 10.0588 11.8957C10.0622 11.9331 10.1842 11.987 10.2518 11.9874C11.0631 11.9956 11.8744 11.9956 12.6857 11.9969C13.151 11.9978 13.6159 11.9969 14.0873 11.9969C14.0782 12.034 14.0786 12.0533 14.0717 12.0568C13.1799 12.5006 12.5991 13.2304 12.2057 14.1197C12.1028 14.3524 11.9778 14.4243 11.7271 14.4204C10.6866 14.4049 9.64561 14.414 8.57969 14.414C8.57969 14.6561 8.57969 14.8888 8.57969 15.1313C8.50989 15.1421 8.46293 15.1568 8.41596 15.1559C7.65508 15.1473 6.89118 15.1766 6.13504 15.1115C5.68695 15.0732 5.24964 14.8931 4.81189 14.7625C4.58613 14.6953 4.372 14.588 4.14752 14.5152C3.99931 14.4674 3.97604 14.3864 4.02947 14.258C4.06781 14.1654 4.10487 14.0719 4.1458 13.9805C4.43921 13.3239 4.00491 12.47 3.29659 12.3119C2.98035 12.2412 2.98035 12.2412 2.98035 11.9245C2.98035 11.5885 2.98035 11.2524 2.98035 10.89C3.91271 10.89 4.82741 10.89 5.7658 10.89C5.7658 10.1942 5.7658 9.52425 5.7658 8.83403C6.70549 8.83403 7.62148 8.83403 8.55168 8.83403C8.55168 7.6535 8.55168 6.49364 8.55168 5.29588C8.47499 5.29588 8.39313 5.29588 8.31084 5.29588C6.68093 5.29588 5.05102 5.29372 3.42111 5.29932C3.26859 5.29976 3.16949 5.25839 3.08246 5.13259C2.85454 4.80428 2.56931 4.53543 2.15139 4.50354C1.92864 4.48631 1.69641 4.5281 1.47452 4.57334C1.16862 4.63582 1.03333 4.55912 0.957932 4.22694C1.65677 4.06106 2.17896 3.68794 2.13803 2.90509C2.09279 2.04468 1.54863 1.64786 0.667969 1.65217C0.955777 1.03347 1.33148 0.522479 1.68004 -0.00488281C1.93855 -0.00488281 2.19706 -0.00488281 2.45557 -0.00488281Z" fill="#E93333"/>
<path d="M42.2233 13.1363C42.194 13.3487 42.1669 13.5612 42.1354 13.7731C42.0954 14.0441 41.9342 14.2242 41.7011 14.3526C41.5951 14.4112 41.5236 14.3897 41.4784 14.2798C41.4512 14.2139 41.4288 14.1454 41.403 14.0786C40.7946 12.5146 39.593 11.6051 37.995 11.6826C36.5219 11.7542 35.4969 12.512 34.9053 13.8597C34.8967 13.8796 34.8851 13.8989 34.8816 13.9196C34.8179 14.3238 34.5344 14.3819 34.1905 14.3828C32.1444 14.3892 30.0983 14.4043 28.0522 14.4134C27.2194 14.4173 26.3865 14.4095 25.5537 14.4181C25.3982 14.4198 25.3245 14.3673 25.2706 14.2268C24.9264 13.3319 24.3374 12.6391 23.5214 12.1381C23.5063 12.129 23.499 12.107 23.4473 12.0316C27.2478 11.9614 31.004 12.0075 34.7946 11.9868C34.7946 11.8821 34.7946 11.7925 34.7946 11.7025C34.8006 9.44092 34.8054 7.17895 34.8144 4.91742C34.8157 4.58738 34.8316 4.25735 34.8493 3.92775C34.8812 3.33619 35.2263 2.97557 35.8308 2.92688C36.1949 2.89759 36.5624 2.88725 36.9277 2.89974C37.6589 2.92473 38.39 2.96178 39.1199 3.01306C39.5296 3.04149 39.8735 3.22891 40.1453 3.54257C40.9243 4.44176 41.5771 5.42668 42.1393 6.47279C42.1772 6.54345 42.182 6.63694 42.1845 6.72053C42.2005 7.27934 42.2117 7.83816 42.2242 8.39697C42.2233 9.9769 42.2233 11.5564 42.2233 13.1363ZM35.733 9.19405C37.5275 9.19405 39.3095 9.19405 41.1104 9.19405C41.1104 8.565 41.1126 7.94975 41.107 7.33449C41.1066 7.2759 41.0635 7.21515 41.0325 7.15957C40.431 6.1001 39.8252 5.04279 39.2289 3.98032C39.1539 3.84675 39.0686 3.80754 38.9239 3.80841C37.9338 3.81358 36.9437 3.81099 35.9536 3.81142C35.8838 3.81142 35.814 3.81788 35.7334 3.82176C35.733 5.61927 35.733 7.40171 35.733 9.19405Z" fill="#E93333"/>
<path d="M37.7852 18.0049C37.469 17.8976 37.1316 17.8304 36.8399 17.6766C35.7861 17.1199 35.1962 15.8911 35.3785 14.7028C35.5495 13.5865 36.4978 12.6412 37.6698 12.4184C39.1372 12.1397 40.665 13.206 40.9214 14.6886C41.1859 16.2186 40.154 17.7102 38.6599 17.9601C38.5974 17.9704 38.5362 17.9898 38.4746 18.0053C38.2449 18.0049 38.0149 18.0049 37.7852 18.0049ZM39.9007 15.2004C39.9171 14.3702 39.3247 13.4503 38.0903 13.437C37.2195 13.4275 36.4302 14.1207 36.4069 15.1875C36.3871 16.0833 37.2238 16.9187 38.1183 16.9191C39.1609 16.92 39.8947 16.2125 39.9007 15.2004Z" fill="#E93333"/>
<path d="M15.4679 18.0046C15.2421 17.9701 15.0142 17.9455 14.791 17.8994C13.592 17.6521 12.6204 16.313 12.757 14.9813C12.891 13.6741 13.741 12.6995 15.022 12.4285C16.6226 12.0898 18.3081 13.4406 18.3296 14.9951C18.3456 16.139 17.9246 17.0093 16.9664 17.625C16.6458 17.8309 16.296 17.9443 15.9156 17.9671C15.7949 17.9744 15.6747 17.9921 15.5541 18.005C15.5252 18.0046 15.4968 18.0046 15.4679 18.0046ZM17.2938 15.2148C17.293 14.3023 16.657 13.4363 15.5239 13.4251C14.5429 13.4156 13.7992 14.2019 13.7863 15.179C13.7738 16.1278 14.5631 16.9253 15.5123 16.933C16.4903 16.9417 17.2887 16.1713 17.2938 15.2148Z" fill="#E93333"/>
<path d="M0 2.75305C0.13141 2.41181 0.324431 2.13564 0.71349 2.05507C1.18915 1.95683 1.65361 2.23043 1.78502 2.69144C1.916 3.15115 1.64801 3.64534 1.18182 3.80432C0.723399 3.96072 0.241707 3.73366 0.0590266 3.27481C0.0409309 3.22957 0.0198192 3.18519 0.000430861 3.14038C9.87103e-09 3.01156 0 2.8823 0 2.75305Z" fill="#E93333"/>
<path d="M21.8995 17.9805C20.2537 18.0478 19.0464 16.476 19.0757 15.1417C19.1098 13.6083 20.3627 12.373 21.9249 12.3653C23.2623 12.3584 24.7444 13.6117 24.6983 15.2188C24.6531 16.8009 23.4881 17.9853 21.8995 17.9805ZM23.6225 15.1645C23.6936 14.2278 22.7647 13.4243 21.9551 13.4333C21.0051 13.4437 20.1434 14.2683 20.1369 15.2046C20.1304 16.1081 20.9435 16.9172 21.8569 16.9297C22.6216 16.9405 23.6595 16.3743 23.6225 15.1645Z" fill="#E93333"/>
<path d="M24.1992 11.2276C24.1992 10.7989 24.1992 10.3852 24.1992 9.9475C24.3651 9.9475 24.5211 9.9475 24.6766 9.9475C25.4164 9.9475 26.1557 9.94276 26.8955 9.95095C27.0583 9.95267 27.1777 9.90399 27.2988 9.79929C27.7817 9.38093 28.2703 8.96947 28.7628 8.56189C28.8283 8.5076 28.9257 8.46279 29.0084 8.46236C30.3871 8.45633 31.7658 8.45805 33.1441 8.45891C33.1928 8.45891 33.2415 8.46968 33.2962 8.47615C33.2962 8.96387 33.2962 9.44298 33.2962 9.94707C33.2122 9.94707 33.1355 9.94707 33.0592 9.94707C31.8602 9.94707 30.6611 9.95009 29.4621 9.94362C29.294 9.94276 29.1635 9.9893 29.0308 10.0901C28.5564 10.4503 28.0752 10.8014 27.5926 11.1504C27.5271 11.1978 27.4397 11.2405 27.3621 11.2409C26.3354 11.2465 25.3087 11.2439 24.2819 11.2431C24.2604 11.2435 24.2397 11.2357 24.1992 11.2276Z" fill="#E93333"/>
<path d="M28.1602 11.1541C28.5384 10.8879 28.9159 10.6203 29.2972 10.3583C29.3398 10.3291 29.4053 10.3235 29.4605 10.3235C30.7005 10.3217 31.9409 10.3222 33.1809 10.323C33.2149 10.323 33.2494 10.3303 33.2937 10.3355C33.2937 10.635 33.2937 10.9258 33.2937 11.2119C31.5859 11.2119 29.881 11.2119 28.1761 11.2119C28.1709 11.192 28.1653 11.1731 28.1602 11.1541Z" fill="#E93333"/>
<path d="M20.5355 12.0088C20.2248 12.2208 19.9129 12.3914 19.6539 12.6215C19.3786 12.8662 19.136 13.1536 18.9116 13.447C18.7181 13.6999 18.7056 13.7063 18.5397 13.4409C18.258 12.9898 17.8543 12.6542 17.429 12.3453C17.2799 12.2367 17.1222 12.1398 16.9258 12.0088C18.1524 12.0088 19.3286 12.0088 20.5355 12.0088Z" fill="#E93333"/>
<path d="M2.88751 5.76746C2.88622 6.24441 2.43986 6.6856 1.95644 6.68776C1.45235 6.68991 1.04821 6.26466 1.05079 5.73514C1.05338 5.23967 1.4433 4.85362 1.94438 4.85061C2.46355 4.84716 2.8888 5.26078 2.88751 5.76746Z" fill="#E93333"/>
<path d="M3.01879 12.6436C3.57459 12.6418 3.92271 12.9766 3.92271 13.5126C3.92271 14.0167 3.5203 14.4566 3.05627 14.4605C2.52977 14.4648 2.10797 14.0468 2.1084 13.5221C2.10883 13.0124 2.48927 12.6453 3.01879 12.6436Z" fill="#E93333"/>
<path d="M28.4564 5.25079C28.026 5.24863 27.5451 4.79839 27.5382 4.39081C27.5292 3.85526 27.9411 3.44121 28.4801 3.44337C29.0066 3.44552 29.4021 3.85698 29.3922 4.39296C29.3844 4.81778 28.9101 5.25294 28.4564 5.25079Z" fill="#E93333"/>
<path d="M31.818 2.18313C31.796 1.6549 32.3518 1.27662 32.7103 1.2904C33.1907 1.30893 33.6276 1.7596 33.6116 2.23138C33.594 2.75314 33.1765 3.15728 32.6689 3.14479C32.164 3.13186 31.8029 2.72385 31.818 2.18313Z" fill="#E93333"/>
</svg>
