<svg width="31" height="31" viewBox="0 0 31 31" fill="none" xmlns="http://www.w3.org/2000/svg">
<circle cx="15.5" cy="15.5" r="15.5" transform="rotate(-180 15.5 15.5)" fill="#FFCB13"/>
<path d="M13.0001 19.1698L9.53015 15.6998C9.34317 15.5129 9.08957 15.4078 8.82515 15.4078C8.56072 15.4078 8.30712 15.5129 8.12015 15.6998C7.93317 15.8868 7.82812 16.1404 7.82812 16.4048C7.82813 16.5358 7.85391 16.6654 7.90402 16.7864C7.95412 16.9073 8.02756 17.0173 8.12015 17.1098L12.3001 21.2898C12.6901 21.6798 13.3201 21.6798 13.7101 21.2898L24.2901 10.7098C24.4771 10.5229 24.5822 10.2693 24.5822 10.0048C24.5822 9.74041 24.4771 9.48681 24.2901 9.29983C24.1032 9.11286 23.8496 9.00781 23.5851 9.00781C23.3207 9.00781 23.0671 9.11286 22.8801 9.29983L13.0001 19.1698Z" fill="black"/>
</svg>
