<svg width="14" height="14" viewBox="0 0 14 14" fill="none" xmlns="http://www.w3.org/2000/svg">
<path fill-rule="evenodd" clip-rule="evenodd" d="M12.5687 2.98109C12.7327 3.14518 12.8249 3.3677 12.8249 3.59971C12.8249 3.83173 12.7327 4.05425 12.5687 4.21834L6.01026 10.7768C5.92359 10.8634 5.82069 10.9322 5.70744 10.9791C5.59419 11.0261 5.4728 11.0502 5.35022 11.0502C5.22763 11.0502 5.10625 11.0261 4.993 10.9791C4.87975 10.9322 4.77685 10.8634 4.69018 10.7768L1.43168 7.51884C1.34811 7.43812 1.28145 7.34157 1.23559 7.23482C1.18973 7.12806 1.16559 7.01325 1.16458 6.89707C1.16357 6.78088 1.18571 6.66566 1.22971 6.55813C1.2737 6.4506 1.33868 6.3529 1.42083 6.27074C1.50299 6.18859 1.60068 6.12362 1.70822 6.07962C1.81575 6.03562 1.93097 6.01349 2.04715 6.01449C2.16334 6.0155 2.27815 6.03964 2.38491 6.0855C2.49166 6.13136 2.58821 6.19802 2.66893 6.28159L5.34993 8.96259L11.3308 2.98109C11.4121 2.89978 11.5086 2.83528 11.6148 2.79127C11.721 2.74726 11.8348 2.72461 11.9498 2.72461C12.0647 2.72461 12.1785 2.74726 12.2847 2.79127C12.3909 2.83528 12.4874 2.89978 12.5687 2.98109Z" fill="black"/>
</svg>
