<svg width="31" height="31" viewBox="0 0 31 31" fill="none" xmlns="http://www.w3.org/2000/svg">
<circle cx="15.5" cy="15.5" r="15.5" transform="rotate(-180 15.5 15.5)" fill="#E93333"/>
<path fill-rule="evenodd" clip-rule="evenodd" d="M20.7681 10.2319C20.2407 9.70473 19.5256 9.40857 18.7799 9.40857C18.0342 9.40857 17.3191 9.70473 16.7917 10.2319L10.2301 16.7936C9.71767 17.3238 9.43406 18.0341 9.44029 18.7715C9.44652 19.5088 9.7421 20.2142 10.2634 20.7357C10.7846 21.2572 11.4899 21.5531 12.2272 21.5597C12.9646 21.5663 13.675 21.283 14.2055 20.7709H14.2064L14.6723 20.3022C14.8045 20.1736 14.9818 20.1021 15.1662 20.1031C15.3506 20.1041 15.5272 20.1774 15.658 20.3074C15.7888 20.4373 15.8633 20.6134 15.8655 20.7978C15.8677 20.9822 15.7974 21.16 15.6697 21.293L15.2029 21.7626L15.201 21.7645C14.4099 22.5556 13.337 23 12.2182 23C11.0995 23 10.0266 22.5556 9.23549 21.7645C8.44442 20.9734 8 19.9005 8 18.7818C8 17.663 8.44442 16.5901 9.23549 15.799L15.7971 9.23737C16.5877 8.4458 17.6604 8.0007 18.7791 8C19.8979 7.9993 20.9711 8.44304 21.7626 9.23362C22.5542 10.0242 22.9993 11.0968 23 12.2156C23.0007 13.3343 22.557 14.4075 21.7664 15.1991L18.5277 18.5296C18.3016 18.7681 18.03 18.9588 17.729 19.0906C17.4279 19.2224 17.1035 19.2926 16.7749 19.2969C16.4463 19.3013 16.1201 19.2398 15.8157 19.1161C15.5112 18.9923 15.2347 18.8088 15.0023 18.5765C14.7699 18.3441 14.5864 18.0675 14.4627 17.7631C14.3389 17.4586 14.2774 17.1324 14.2818 16.8038C14.2862 16.4752 14.3563 16.1508 14.4881 15.8498C14.6199 15.5487 14.8106 15.2771 15.0491 15.051L18.2831 11.8161C18.3479 11.7489 18.4255 11.6953 18.5112 11.6584C18.597 11.6216 18.6892 11.6021 18.7826 11.6013C18.8759 11.6004 18.9685 11.6182 19.0549 11.6535C19.1413 11.6888 19.2198 11.7409 19.2859 11.8069C19.3519 11.8729 19.4042 11.9514 19.4395 12.0377C19.4749 12.1241 19.4928 12.2167 19.492 12.31C19.4912 12.4034 19.4719 12.4957 19.4351 12.5814C19.3983 12.6672 19.3448 12.7448 19.2776 12.8097L16.0437 16.0446C15.9455 16.1423 15.8675 16.2584 15.8142 16.3862C15.7609 16.514 15.7333 16.651 15.7329 16.7895C15.7326 16.928 15.7595 17.0652 15.8122 17.1933C15.8649 17.3214 15.9423 17.4378 16.0399 17.536C16.1376 17.6342 16.2537 17.7121 16.3815 17.7654C16.5093 17.8188 16.6464 17.8464 16.7848 17.8467C16.9233 17.8471 17.0605 17.8202 17.1886 17.7675C17.3167 17.7148 17.4331 17.6374 17.5313 17.5397L20.769 14.2092C21.2962 13.6819 21.5924 12.9667 21.5924 12.221C21.5924 11.4754 21.2962 10.7602 20.769 10.2329L20.7681 10.2319Z" fill="white"/>
</svg>
