<svg width="38" height="38" viewBox="0 0 38 38" fill="none" xmlns="http://www.w3.org/2000/svg">
<path d="M24.0685 17.7338C22.8947 17.025 21.7806 16.2218 20.7372 15.3322L15.2272 8.1603C15.056 7.93406 14.8207 7.76456 14.5519 7.67384C14.2831 7.58312 13.9932 7.57537 13.72 7.65161C13.4467 7.72785 13.2027 7.88455 13.0197 8.10132C12.8367 8.3181 12.7231 8.58493 12.6938 8.8671H12.6685V12.6671H8.13129C7.9632 12.6677 7.79667 12.6349 7.6414 12.5705C7.48613 12.5062 7.34522 12.4115 7.22689 12.2922C7.22689 12.2922 6.33516 10.1338 5.06849 10.1338H3.80182C3.46588 10.1338 3.1437 10.2672 2.90615 10.5048C2.66861 10.7423 2.53516 11.0645 2.53516 11.4004V22.8004H16.4685C20.2685 22.8004 21.5352 25.3338 25.3352 25.3338H35.4685V24.0671C35.4685 20.2671 26.7209 19.2386 24.0685 17.7338ZM24.0685 27.8671C22.7039 27.8286 21.3723 27.4386 20.2026 26.7347C18.6812 25.8518 16.9605 25.3698 15.2018 25.3338H2.53516V29.1338C2.53516 29.4697 2.66861 29.7919 2.90615 30.0294C3.1437 30.267 3.46588 30.4004 3.80182 30.4004H13.9352C14.2711 30.4004 14.5933 30.267 14.8308 30.0294C15.0684 29.7919 15.2018 29.4697 15.2018 29.1338V27.8671C16.5664 27.9059 17.8978 28.296 19.0677 28.9995C20.5891 29.8824 22.3098 30.3644 24.0685 30.4004H34.2018C34.5378 30.4004 34.8599 30.267 35.0975 30.0294C35.335 29.7919 35.4685 29.4697 35.4685 29.1338V27.8671H24.0685Z" fill="black"/>
</svg>
