<svg width="46" height="43" viewBox="0 0 46 43" fill="none" xmlns="http://www.w3.org/2000/svg">
<g clip-path="url(#clip0_72_59)">
<path d="M18.0012 9.98828C15.2857 9.98878 12.6213 10.7264 10.2922 12.1224C7.96315 13.5185 6.0567 15.5206 4.77625 17.9152C3.49581 20.3097 2.88941 23.007 3.02173 25.7192C3.15405 28.4314 4.02014 31.0569 5.5276 33.3154C7.03506 35.574 9.12734 37.381 11.5813 38.5437C14.0352 39.7064 16.7587 40.1811 19.4613 39.9173C22.1639 39.6535 24.7442 38.661 26.9269 37.0456C29.1097 35.4303 30.813 33.2528 31.8552 30.7453C32.3667 29.5153 31.1412 28.2793 29.9082 28.7803C27.7949 29.6363 25.4485 29.7246 23.2769 29.0299C21.1053 28.3352 19.2458 26.9014 18.0218 24.9778C16.7977 23.0542 16.2866 20.7624 16.5771 18.501C16.8677 16.2396 17.9416 14.1515 19.6122 12.5998L19.7277 12.4798C20.5542 11.5348 19.8972 10.0003 18.5907 10.0003H18.1917L18.0897 9.99128L17.9997 9.98828H18.0012Z" fill="black"/>
</g>
<g clip-path="url(#clip1_72_59)">
<path d="M33.9989 19C34.2438 19 34.4802 19.09 34.6633 19.2527C34.8463 19.4155 34.9632 19.6397 34.9919 19.883L34.9989 20V21C34.9986 21.2549 34.901 21.5 34.726 21.6854C34.5511 21.8707 34.3119 21.9822 34.0575 21.9972C33.8031 22.0121 33.5525 21.9293 33.3571 21.7657C33.1616 21.6021 33.036 21.3701 33.0059 21.117L32.9989 21V20C32.9989 19.7348 33.1042 19.4804 33.2918 19.2929C33.4793 19.1054 33.7337 19 33.9989 19ZM40.3119 16.91L40.4059 16.993L41.1059 17.693C41.2852 17.873 41.3894 18.1144 41.3971 18.3684C41.4049 18.6223 41.3157 18.8697 41.1476 19.0603C40.9796 19.2508 40.7453 19.3703 40.4924 19.3944C40.2395 19.4185 39.9869 19.3454 39.7859 19.19L39.6919 19.107L38.9919 18.407C38.8193 18.2347 38.7156 18.0054 38.7004 17.762C38.6851 17.5187 38.7592 17.2781 38.9088 17.0856C39.0585 16.8931 39.2733 16.7619 39.5129 16.7166C39.7525 16.6714 40.0004 16.7153 40.2099 16.84L40.3119 16.91ZM29.0059 16.993C29.1781 17.1652 29.2815 17.3943 29.2968 17.6373C29.3121 17.8803 29.2381 18.1206 29.0889 18.313L29.0059 18.407L28.3059 19.107C28.1259 19.2863 27.8845 19.3905 27.6305 19.3982C27.3766 19.406 27.1292 19.3168 26.9386 19.1488C26.748 18.9807 26.6286 18.7464 26.6045 18.4935C26.5804 18.2406 26.6535 17.988 26.8089 17.787L26.8919 17.693L27.5919 16.993C27.7794 16.8055 28.0337 16.7002 28.2989 16.7002C28.5641 16.7002 28.8184 16.8055 29.0059 16.993ZM25.9989 11C26.2538 11.0003 26.4989 11.0979 26.6843 11.2728C26.8696 11.4478 26.9811 11.687 26.9961 11.9414C27.011 12.1958 26.9282 12.4464 26.7646 12.6418C26.601 12.8373 26.369 12.9629 26.1159 12.993L25.9989 13H24.9989C24.744 12.9997 24.4989 12.9021 24.3135 12.7272C24.1282 12.5522 24.0167 12.313 24.0017 12.0586C23.9868 11.8042 24.0696 11.5536 24.2332 11.3582C24.3967 11.1627 24.6288 11.0371 24.8819 11.007L24.9989 11H25.9989ZM42.9989 11C43.2538 11.0003 43.4989 11.0979 43.6843 11.2728C43.8696 11.4478 43.9811 11.687 43.9961 11.9414C44.011 12.1958 43.9282 12.4464 43.7646 12.6418C43.601 12.8373 43.369 12.9629 43.1159 12.993L42.9989 13H41.9989C41.744 12.9997 41.4989 12.9021 41.3135 12.7272C41.1282 12.5522 41.0167 12.313 41.0017 12.0586C40.9868 11.8042 41.0696 11.5536 41.2332 11.3582C41.3967 11.1627 41.6288 11.0371 41.8819 11.007L41.9989 11H42.9989ZM28.2119 4.81L28.3059 4.893L29.0059 5.593C29.1852 5.77296 29.2894 6.01443 29.2971 6.26838C29.3049 6.52233 29.2157 6.76971 29.0476 6.96028C28.8796 7.15084 28.6453 7.27031 28.3924 7.2944C28.1395 7.31849 27.8869 7.24541 27.6859 7.09L27.5919 7.007L26.8919 6.307C26.72 6.13468 26.6168 5.90557 26.6018 5.66263C26.5867 5.41969 26.6608 5.17959 26.8101 4.98735C26.9594 4.79511 27.1736 4.66393 27.4128 4.61839C27.6519 4.57285 27.8994 4.61609 28.1089 4.74L28.2119 4.81ZM41.1059 4.893C41.2781 5.06519 41.3815 5.29429 41.3968 5.53732C41.4121 5.78034 41.3381 6.0206 41.1889 6.213L41.1059 6.307L40.4059 7.007C40.2259 7.18635 39.9845 7.29047 39.7305 7.29823C39.4766 7.30598 39.2292 7.21678 39.0386 7.04875C38.848 6.88072 38.7286 6.64645 38.7045 6.39353C38.6804 6.1406 38.7535 5.88799 38.9089 5.687L38.9919 5.593L39.6919 4.893C39.8794 4.70553 40.1337 4.60021 40.3989 4.60021C40.6641 4.60021 40.9184 4.70553 41.1059 4.893ZM33.9989 2C34.2438 2.00003 34.4802 2.08996 34.6633 2.25272C34.8463 2.41547 34.9632 2.63975 34.9919 2.883L34.9989 3V4C34.9986 4.25488 34.901 4.50003 34.726 4.68537C34.5511 4.8707 34.3119 4.98223 34.0575 4.99717C33.8031 5.01211 33.5525 4.92933 33.3571 4.76574C33.1616 4.60214 33.036 4.3701 33.0059 4.117L32.9989 4V3C32.9989 2.73478 33.1042 2.48043 33.2918 2.29289C33.4793 2.10536 33.7337 2 33.9989 2ZM33.9989 7C34.9786 6.99994 35.9367 7.28769 36.7542 7.8275C37.5718 8.36731 38.2127 9.1354 38.5975 10.0364C38.9822 10.9373 39.0938 11.9315 38.9184 12.8953C38.7429 13.8592 38.2882 14.7502 37.6107 15.4579C36.9332 16.1655 36.0627 16.6585 35.1074 16.8756C34.1521 17.0928 33.1541 17.0245 32.2372 16.6793C31.3204 16.334 30.5252 15.7271 29.9504 14.9338C29.3755 14.1405 29.0464 13.1958 29.0039 12.217L28.9989 12L29.0039 11.783C29.0598 10.4958 29.6105 9.27978 30.5411 8.38866C31.4717 7.49754 32.7104 7.00007 33.9989 7Z" fill="black"/>
</g>
<defs>
<clipPath id="clip0_72_59">
<rect width="36" height="36" fill="white" transform="translate(0 7)"/>
</clipPath>
<clipPath id="clip1_72_59">
<rect width="24" height="24" fill="white" transform="translate(22)"/>
</clipPath>
</defs>
</svg>
