<svg width="40" height="40" viewBox="0 0 40 40" fill="none" xmlns="http://www.w3.org/2000/svg">
<path d="M34.375 7.5V13.75C34.375 14.2473 34.1775 14.7242 33.8258 15.0758C33.4742 15.4275 32.9973 15.625 32.5 15.625C32.0027 15.625 31.5258 15.4275 31.1742 15.0758C30.8225 14.7242 30.625 14.2473 30.625 13.75V9.375H26.25C25.7527 9.375 25.2758 9.17746 24.9242 8.82583C24.5725 8.47419 24.375 7.99728 24.375 7.5C24.375 7.00272 24.5725 6.52581 24.9242 6.17417C25.2758 5.82254 25.7527 5.625 26.25 5.625H32.5C32.9973 5.625 33.4742 5.82254 33.8258 6.17417C34.1775 6.52581 34.375 7.00272 34.375 7.5ZM13.75 30.625H9.375V26.25C9.375 25.7527 9.17746 25.2758 8.82583 24.9242C8.47419 24.5725 7.99728 24.375 7.5 24.375C7.00272 24.375 6.52581 24.5725 6.17417 24.9242C5.82254 25.2758 5.625 25.7527 5.625 26.25V32.5C5.625 32.9973 5.82254 33.4742 6.17417 33.8258C6.52581 34.1775 7.00272 34.375 7.5 34.375H13.75C14.2473 34.375 14.7242 34.1775 15.0758 33.8258C15.4275 33.4742 15.625 32.9973 15.625 32.5C15.625 32.0027 15.4275 31.5258 15.0758 31.1742C14.7242 30.8225 14.2473 30.625 13.75 30.625ZM32.5 24.375C32.0027 24.375 31.5258 24.5725 31.1742 24.9242C30.8225 25.2758 30.625 25.7527 30.625 26.25V30.625H26.25C25.7527 30.625 25.2758 30.8225 24.9242 31.1742C24.5725 31.5258 24.375 32.0027 24.375 32.5C24.375 32.9973 24.5725 33.4742 24.9242 33.8258C25.2758 34.1775 25.7527 34.375 26.25 34.375H32.5C32.9973 34.375 33.4742 34.1775 33.8258 33.8258C34.1775 33.4742 34.375 32.9973 34.375 32.5V26.25C34.375 25.7527 34.1775 25.2758 33.8258 24.9242C33.4742 24.5725 32.9973 24.375 32.5 24.375ZM13.75 5.625H7.5C7.00272 5.625 6.52581 5.82254 6.17417 6.17417C5.82254 6.52581 5.625 7.00272 5.625 7.5V13.75C5.625 14.2473 5.82254 14.7242 6.17417 15.0758C6.52581 15.4275 7.00272 15.625 7.5 15.625C7.99728 15.625 8.47419 15.4275 8.82583 15.0758C9.17746 14.7242 9.375 14.2473 9.375 13.75V9.375H13.75C14.2473 9.375 14.7242 9.17746 15.0758 8.82583C15.4275 8.47419 15.625 7.99728 15.625 7.5C15.625 7.00272 15.4275 6.52581 15.0758 6.17417C14.7242 5.82254 14.2473 5.625 13.75 5.625Z" fill="black"/>
</svg>
