<svg width="44" height="44" viewBox="0 0 44 44" fill="none" xmlns="http://www.w3.org/2000/svg">
<path d="M18.3328 3.66699L13.9328 9.90033C15.3995 9.53366 16.8661 9.16699 18.3328 9.16699C19.7995 9.16699 21.2661 9.53366 22.7328 9.90033M34.8328 9.16699C32.7978 9.16699 31.1661 10.7987 31.1661 12.8337V25.227C29.9928 26.272 29.3328 27.7753 29.3328 29.3337C29.3328 32.377 31.7895 34.8337 34.8328 34.8337C37.8761 34.8337 40.3328 32.377 40.3328 29.3337C40.3328 27.7753 39.6728 26.272 38.4995 25.2453V12.8337C38.4995 10.7987 36.8678 9.16699 34.8328 9.16699ZM34.8328 11.0003C35.8411 11.0003 36.6661 11.8253 36.6661 12.8337V14.667H32.9995V12.8337C32.9995 11.8253 33.8245 11.0003 34.8328 11.0003ZM10.0828 12.2837L2.38281 12.8337L5.68281 19.8003C5.86615 18.3337 6.41615 16.867 7.14948 15.5837C8.06615 14.3003 8.98281 13.2003 10.0828 12.2837ZM18.3328 12.8337C13.1995 12.8337 9.16615 16.867 9.16615 22.0003C9.16615 27.1337 13.1995 31.167 18.3328 31.167C23.4661 31.167 27.4995 27.1337 27.4995 22.0003C27.4995 16.867 23.4661 12.8337 18.3328 12.8337ZM5.86615 24.2003L2.56615 31.167L10.0828 31.9003C9.16615 30.9837 8.06615 29.7003 7.33281 28.417C6.41615 27.1337 6.04948 25.667 5.86615 24.2003ZM13.9328 34.1003L18.3328 40.3337L22.7328 34.1003C21.2661 34.467 19.7995 34.8337 18.3328 34.8337C16.6828 34.8337 15.2161 34.467 13.9328 34.1003Z" fill="black"/>
</svg>
