<svg width="39" height="39" viewBox="0 0 39 39" fill="none" xmlns="http://www.w3.org/2000/svg">
<path d="M19.5 3.25C10.5625 3.25 3.25 10.5625 3.25 19.5C3.25 28.4375 10.5625 35.75 19.5 35.75C28.4375 35.75 35.75 28.4375 35.75 19.5C35.75 10.5625 28.4375 3.25 19.5 3.25ZM25.2688 25.675L18.6388 21.5963C18.1513 21.3037 17.8587 20.7837 17.8587 20.215V12.5938C17.875 11.9275 18.4275 11.375 19.0938 11.375C19.76 11.375 20.3125 11.9275 20.3125 12.5938V19.825L26.5525 23.5788C27.1375 23.9363 27.3325 24.7 26.975 25.285C26.6175 25.8538 25.8538 26.0325 25.2688 25.675Z" fill="black"/>
</svg>
