<svg width="45" height="45" viewBox="0 0 45 45" fill="none" xmlns="http://www.w3.org/2000/svg">
<path d="M22.5 3.75C26.9755 3.75 31.2677 5.5279 34.4324 8.69257C37.5971 11.8572 39.375 16.1495 39.375 20.625H24.375V35.625C24.375 37.1168 23.7824 38.5476 22.7275 39.6025C21.6726 40.6574 20.2418 41.25 18.75 41.25C17.2582 41.25 15.8274 40.6574 14.7725 39.6025C13.7176 38.5476 13.125 37.1168 13.125 35.625V33.75H16.875V35.625C16.875 36.1223 17.0725 36.5992 17.4242 36.9508C17.7758 37.3025 18.2527 37.5 18.75 37.5C19.2473 37.5 19.7242 37.3025 20.0758 36.9508C20.4275 36.5992 20.625 36.1223 20.625 35.625V20.625H5.625C5.625 16.1495 7.4029 11.8572 10.5676 8.69257C13.7322 5.5279 18.0245 3.75 22.5 3.75Z" fill="black"/>
</svg>
