<svg width="39" height="39" viewBox="0 0 39 39" fill="none" xmlns="http://www.w3.org/2000/svg">
<g clip-path="url(#clip0_524_522)">
<path d="M10.1336 29.3112C10.2855 29.3618 10.426 29.4419 10.5469 29.5469C10.6679 29.6519 10.767 29.7797 10.8385 29.923C10.91 30.0663 10.9526 30.2223 10.9638 30.3821C10.975 30.5418 10.9546 30.7022 10.9038 30.8541L9.68506 34.5104C9.63916 34.6677 9.56198 34.8143 9.45813 34.9411C9.35428 35.068 9.22591 35.1726 9.08069 35.2487C8.93548 35.3247 8.7764 35.3707 8.61299 35.3839C8.44958 35.3971 8.28519 35.3772 8.12966 35.3253C7.97413 35.2735 7.83066 35.1908 7.70784 35.0822C7.58501 34.9736 7.48535 34.8414 7.41483 34.6934C7.34431 34.5454 7.30438 34.3847 7.29741 34.2209C7.29045 34.0571 7.31661 33.8936 7.37431 33.7401L8.59306 30.0839C8.69491 29.7771 8.91441 29.5234 9.2033 29.3785C9.4922 29.2336 9.82681 29.2094 10.1336 29.3112ZM17.4461 29.3112C17.598 29.3618 17.7385 29.4419 17.8594 29.5469C17.9804 29.6519 18.0795 29.7797 18.151 29.923C18.2225 30.0663 18.2651 30.2223 18.2763 30.3821C18.2875 30.5418 18.2671 30.7022 18.2163 30.8541L15.7788 38.1666C15.7329 38.324 15.6557 38.4705 15.5519 38.5974C15.448 38.7242 15.3197 38.8288 15.1744 38.9049C15.0292 38.981 14.8702 39.027 14.7067 39.0402C14.5433 39.0533 14.3789 39.0334 14.2234 38.9816C14.0679 38.9297 13.9244 38.847 13.8016 38.7384C13.6788 38.6299 13.5791 38.4976 13.5086 38.3496C13.4381 38.2016 13.3981 38.0409 13.3912 37.8771C13.3842 37.7133 13.4104 37.5498 13.4681 37.3964L15.9056 30.0839C16.0074 29.7771 16.2269 29.5234 16.5158 29.3785C16.8047 29.2336 17.1393 29.2094 17.4461 29.3112ZM24.7586 29.3112C24.9105 29.3618 25.051 29.4419 25.1719 29.5469C25.2929 29.6519 25.392 29.7797 25.4635 29.923C25.535 30.0663 25.5776 30.2223 25.5888 30.3821C25.6 30.5418 25.5796 30.7022 25.5288 30.8541L24.3101 34.5104C24.2642 34.6677 24.187 34.8143 24.0831 34.9411C23.9793 35.068 23.8509 35.1726 23.7057 35.2487C23.5605 35.3247 23.4014 35.3707 23.238 35.3839C23.0746 35.3971 22.9102 35.3772 22.7547 35.3253C22.5991 35.2735 22.4557 35.1908 22.3328 35.0822C22.21 34.9736 22.1104 34.8414 22.0398 34.6934C21.9693 34.5454 21.9294 34.3847 21.9224 34.2209C21.9155 34.0571 21.9416 33.8936 21.9993 33.7401L23.2181 30.0839C23.3199 29.7771 23.5394 29.5234 23.8283 29.3785C24.1172 29.2336 24.4518 29.2094 24.7586 29.3112ZM32.0711 29.3112C32.223 29.3618 32.3635 29.4419 32.4844 29.5469C32.6054 29.6519 32.7045 29.7797 32.776 29.923C32.8475 30.0663 32.8901 30.2223 32.9013 30.3821C32.9125 30.5418 32.8921 30.7022 32.8413 30.8541L30.4038 38.1666C30.3579 38.324 30.2807 38.4705 30.1769 38.5974C30.073 38.7242 29.9447 38.8288 29.7994 38.9049C29.6542 38.981 29.4952 39.027 29.3317 39.0402C29.1683 39.0533 29.0039 39.0334 28.8484 38.9816C28.6929 38.9297 28.5494 38.847 28.4266 38.7384C28.3038 38.6299 28.2041 38.4976 28.1336 38.3496C28.0631 38.2016 28.0231 38.0409 28.0162 37.8771C28.0092 37.7133 28.0354 37.5498 28.0931 37.3964L30.5306 30.0839C30.6324 29.7771 30.8519 29.5234 31.1408 29.3785C31.4297 29.2336 31.7643 29.2094 32.0711 29.3112ZM32.6731 12.2536C32.1669 9.70188 30.8577 7.37906 28.9369 5.62472C27.0161 3.87037 24.5844 2.77652 21.9975 2.50308C19.4105 2.22965 16.8039 2.79099 14.5588 4.10501C12.3136 5.41904 10.5478 7.41683 9.51931 9.8063C8.36598 9.67344 7.19766 9.77737 6.0859 10.1117C4.97413 10.4461 3.9423 11.0039 3.05359 11.7509C2.16488 12.4979 1.43799 13.4184 0.917428 14.4561C0.396861 15.4939 0.0935707 16.6269 0.0261271 17.7859C-0.0413166 18.9449 0.128505 20.1055 0.525195 21.1965C0.921885 22.2876 1.5371 23.2863 2.33316 24.1313C3.12922 24.9764 4.08939 25.6501 5.15487 26.1111C6.22035 26.5722 7.36873 26.8109 8.52969 26.8127H31.6859C33.5411 26.8149 35.3278 26.1118 36.684 24.8458C38.0402 23.5799 38.8645 21.8459 38.99 19.9949C39.1155 18.144 38.5328 16.3145 37.3599 14.8771C36.187 13.4397 34.5116 12.5019 32.6731 12.2536Z" fill="black"/>
</g>
<defs>
<clipPath id="clip0_524_522">
<rect width="39" height="39" fill="white"/>
</clipPath>
</defs>
</svg>
