<svg width="41" height="41" viewBox="0 0 41 41" fill="none" xmlns="http://www.w3.org/2000/svg">
<path d="M27.8672 7.6471C25.8889 5.36237 23.6624 3.30503 21.2287 1.51312C21.0133 1.3622 20.7566 1.28125 20.4936 1.28125C20.2306 1.28125 19.9739 1.3622 19.7585 1.51312C17.3293 3.30578 15.1071 5.36309 13.1328 7.6471C8.73012 12.7032 6.40625 18.0332 6.40625 23.0621C6.40625 26.8 7.89112 30.3848 10.5342 33.0279C13.1773 35.671 16.7621 37.1559 20.5 37.1559C24.2379 37.1559 27.8227 35.671 30.4658 33.0279C33.1089 30.3848 34.5938 26.8 34.5938 23.0621C34.5938 18.0332 32.2699 12.7032 27.8672 7.6471ZM29.4447 24.558C29.1125 26.4137 28.2197 28.1231 26.8865 29.4561C25.5533 30.789 23.8437 31.6814 21.9879 32.0133C21.9195 32.0242 21.8505 32.0301 21.7812 32.0309C21.4599 32.0308 21.1502 31.9099 20.9138 31.6923C20.6773 31.4746 20.5313 31.176 20.5047 30.8557C20.4781 30.5354 20.5729 30.2168 20.7701 29.9631C20.9674 29.7094 21.2529 29.5391 21.5698 29.486C24.2236 29.0392 26.4754 26.7874 26.9255 24.1288C26.9824 23.7936 27.1701 23.4948 27.4473 23.2981C27.7246 23.1014 28.0686 23.0228 28.4037 23.0798C28.7388 23.1367 29.0376 23.3244 29.2344 23.6016C29.4311 23.8788 29.5097 24.2229 29.4527 24.558H29.4447Z" fill="black"/>
</svg>
