<svg width="46" height="46" viewBox="0 0 46 46" fill="none" xmlns="http://www.w3.org/2000/svg">
<path d="M40.25 4.3125C40.25 3.93125 40.4014 3.56562 40.671 3.29603C40.9406 3.02645 41.3063 2.875 41.6875 2.875C42.0687 2.875 42.4344 3.02645 42.704 3.29603C42.9736 3.56562 43.125 3.93125 43.125 4.3125C43.125 4.69375 42.9736 5.05938 42.704 5.32897C42.4344 5.59855 42.0687 5.75 41.6875 5.75C41.3063 5.75 40.9406 5.59855 40.671 5.32897C40.4014 5.05938 40.25 4.69375 40.25 4.3125ZM34.5 7.1875C34.5 6.80625 34.6514 6.44062 34.921 6.17103C35.1906 5.90145 35.5563 5.75 35.9375 5.75C36.3187 5.75 36.6844 5.90145 36.954 6.17103C37.2236 6.44062 37.375 6.80625 37.375 7.1875C37.375 7.56875 37.2236 7.93438 36.954 8.20397C36.6844 8.47355 36.3187 8.625 35.9375 8.625C35.5563 8.625 35.1906 8.47355 34.921 8.20397C34.6514 7.93438 34.5 7.56875 34.5 7.1875ZM30.1875 11.5C30.5687 11.5 30.9344 11.3485 31.204 11.079C31.4736 10.8094 31.625 10.4437 31.625 10.0625C31.625 9.68125 31.4736 9.31562 31.204 9.04603C30.9344 8.77645 30.5687 8.625 30.1875 8.625C29.8063 8.625 29.4406 8.77645 29.171 9.04603C28.9014 9.31562 28.75 9.68125 28.75 10.0625C28.75 10.4437 28.9014 10.8094 29.171 11.079C29.4406 11.3485 29.8063 11.5 30.1875 11.5ZM35.9375 11.5C35.5563 11.5 35.1906 11.6515 34.921 11.921C34.6514 12.1906 34.5 12.5563 34.5 12.9375C34.5 13.3187 34.6514 13.6844 34.921 13.954C35.1906 14.2235 35.5563 14.375 35.9375 14.375C36.3187 14.375 36.6844 14.2235 36.954 13.954C37.2236 13.6844 37.375 13.3187 37.375 12.9375C37.375 12.5563 37.2236 12.1906 36.954 11.921C36.6844 11.6515 36.3187 11.5 35.9375 11.5ZM41.6875 8.625C41.3063 8.625 40.9406 8.77645 40.671 9.04603C40.4014 9.31562 40.25 9.68125 40.25 10.0625C40.25 10.4437 40.4014 10.8094 40.671 11.079C40.9406 11.3485 41.3063 11.5 41.6875 11.5C42.0687 11.5 42.4344 11.3485 42.704 11.079C42.9736 10.8094 43.125 10.4437 43.125 10.0625C43.125 9.68125 42.9736 9.31562 42.704 9.04603C42.4344 8.77645 42.0687 8.625 41.6875 8.625ZM40.25 15.8125C40.25 15.4313 40.4014 15.0656 40.671 14.796C40.9406 14.5265 41.3063 14.375 41.6875 14.375C42.0687 14.375 42.4344 14.5265 42.704 14.796C42.9736 15.0656 43.125 15.4313 43.125 15.8125C43.125 16.1937 42.9736 16.5594 42.704 16.829C42.4344 17.0985 42.0687 17.25 41.6875 17.25C41.3063 17.25 40.9406 17.0985 40.671 16.829C40.4014 16.5594 40.25 16.1937 40.25 15.8125ZM31.5905 18.5035C31.5573 18.1908 31.4219 17.8977 31.2052 17.6698L25.875 12.3395V7.1875C25.875 6.80625 25.7236 6.44062 25.454 6.17103C25.1844 5.90145 24.8187 5.75 24.4375 5.75H18.6904C18.3091 5.75 17.9435 5.90145 17.6739 6.17103C17.4043 6.44062 17.2529 6.80625 17.2529 7.1875V12.3424L11.9226 17.6698C11.7067 17.8982 11.5714 18.191 11.5374 18.5035C11.5349 18.5201 11.531 18.5364 11.5259 18.5524C11.5238 18.561 11.5218 18.5696 11.5201 18.5782C11.5077 18.6134 11.5009 18.6502 11.5 18.6875V38.0938C11.5 40.871 13.754 43.125 16.5312 43.125H26.5938C27.9281 43.125 29.2078 42.5949 30.1514 41.6514C31.0949 40.7078 31.625 39.4281 31.625 38.0938V18.6875C31.625 18.6559 31.6164 18.6242 31.6106 18.5984L31.6049 18.5782C31.5984 18.5537 31.5936 18.5287 31.5905 18.5035ZM20.1279 8.625H23.0029V11.5H20.1279V8.625ZM19.2855 14.375H23.8452L26.7202 17.25H16.4105L19.2855 14.375Z" fill="black"/>
</svg>
