<svg width="48" height="48" viewBox="0 0 48 48" fill="none" xmlns="http://www.w3.org/2000/svg">
<path d="M30 26V10C30 8.4087 29.3679 6.88258 28.2426 5.75736C27.1174 4.63214 25.5913 4 24 4C22.4087 4 20.8826 4.63214 19.7574 5.75736C18.6321 6.88258 18 8.4087 18 10V26C16.3209 27.2593 15.0807 29.015 14.4549 31.0183C13.8291 33.0217 13.8495 35.1712 14.5132 37.1623C15.1769 39.1534 16.4502 40.8852 18.1529 42.1124C19.8556 43.3396 21.9012 44 24 44C26.0988 44 28.1444 43.3396 29.8471 42.1124C31.5498 40.8852 32.8231 39.1534 33.4868 37.1623C34.1505 35.1712 34.1709 33.0217 33.5451 31.0183C32.9193 29.015 31.6791 27.2593 30 26ZM24 8C24.5304 8 25.0391 8.21071 25.4142 8.58579C25.7893 8.96086 26 9.46957 26 10V16H22V10C22 9.46957 22.2107 8.96086 22.5858 8.58579C22.9609 8.21071 23.4696 8 24 8Z" fill="black"/>
</svg>
