<svg width="184" height="51" viewBox="0 0 184 51" fill="none" xmlns="http://www.w3.org/2000/svg">
<path d="M2.58398 0.382422H18.5624V4.56143H7.91014V7.64792H12.8539C15.1665 7.64792 16.9419 8.13944 18.1801 9.12286C19.4183 10.1062 20.0374 11.5172 20.0374 13.3565C20.0374 15.2866 19.3455 16.7934 17.9616 17.8768C16.5776 18.9604 14.6384 19.5021 12.1436 19.5021H2.58398V0.382422ZM11.7887 15.6235C12.6992 15.6235 13.3911 15.4414 13.8645 15.0771C14.3379 14.713 14.5748 14.1942 14.5748 13.5203C14.5748 12.1728 13.646 11.4991 11.7887 11.4991H7.91014V15.6235H11.7887ZM38.1738 15.3231V19.5021H22.8234V0.382422H37.8186V4.56143H28.1768V7.78439H36.6714V11.8269H28.1768V15.3231H38.1738ZM56.6651 4.67078H50.8199V19.5021H45.4938V4.67078H39.6213V0.382422H56.6651V4.67078ZM68.2734 19.8845C66.2522 19.8845 64.436 19.4565 62.8243 18.6008C61.2128 17.7449 59.9472 16.5612 59.0277 15.0499C58.1082 13.5385 57.6484 11.836 57.6484 9.9422C57.6484 8.04842 58.1082 6.34598 59.0277 4.83462C59.9472 3.32327 61.2128 2.1396 62.8243 1.28373C64.436 0.427993 66.2522 0 68.2734 0C70.2948 0 72.1111 0.427993 73.7225 1.28373C75.3341 2.1396 76.5995 3.32327 77.519 4.83462C78.4388 6.34598 78.8985 8.04842 78.8985 9.9422C78.8985 11.836 78.4388 13.5385 77.519 15.0499C76.5995 16.5612 75.3341 17.7449 73.7225 18.6008C72.1111 19.4565 70.2948 19.8845 68.2734 19.8845ZM68.2734 15.4051C69.2385 15.4051 70.1126 15.1775 70.8955 14.7222C71.6786 14.267 72.2976 13.625 72.7529 12.7965C73.2081 11.9681 73.4357 11.0165 73.4357 9.9422C73.4357 8.86788 73.2081 7.91641 72.7529 7.08791C72.2976 6.25942 71.6786 5.61755 70.8955 5.16231C70.1126 4.70707 69.2385 4.47945 68.2734 4.47945C67.3083 4.47945 66.4344 4.70707 65.6512 5.16231C64.8683 5.61755 64.2492 6.25942 63.794 7.08791C63.3387 7.91641 63.1111 8.86788 63.1111 9.9422C63.1111 11.0165 63.3387 11.9681 63.794 12.7965C64.2492 13.625 64.8683 14.267 65.6512 14.7222C66.4344 15.1775 67.3083 15.4051 68.2734 15.4051ZM99.9846 0.382422V19.5021H94.5765V12.0453H87.2019V19.5021H81.7938V0.382422H87.2019V7.56581H94.5765V0.382422H99.9846Z" fill="black"/>
<path d="M93.9856 25.0088H5.9991C5.60591 25.0088 5.21531 25.0337 4.83004 25.0817C4.44205 25.1314 4.06718 25.2028 3.7026 25.2989C3.34073 25.395 2.99435 25.5128 2.6663 25.6521C2.33812 25.7911 2.03632 25.9506 1.75755 26.1279C1.47891 26.3054 1.229 26.4979 1.01029 26.7065C0.791715 26.9154 0.606573 27.1358 0.455611 27.3666C0.304773 27.5984 0.19282 27.8372 0.114553 28.0843C0.0391337 28.3296 0 28.5783 0 28.8287V46.6549C0 46.9055 0.0391337 47.154 0.114553 47.3994C0.19282 47.6463 0.304773 47.8852 0.455611 48.1171C0.606573 48.3476 0.791715 48.5683 1.01029 48.7771C1.229 48.986 1.47891 49.1781 1.75755 49.3558C2.03632 49.5331 2.33812 49.6923 2.6663 49.8315C2.99435 49.9708 3.34073 50.0886 3.7026 50.1848C4.06718 50.2809 4.44205 50.3521 4.83004 50.4019C5.21531 50.4499 5.60591 50.4748 5.9991 50.4748H93.9856C94.3788 50.4748 94.7694 50.4499 95.1547 50.4019C95.5427 50.3521 95.9175 50.2809 96.2821 50.1848C96.644 50.0886 96.9904 49.9708 97.3184 49.8315C97.6466 49.6923 97.9485 49.5331 98.2272 49.3558C98.5058 49.1781 98.7558 48.986 98.9745 48.7771C99.1931 48.5683 99.3783 48.3476 99.5291 48.1171C99.6799 47.8852 99.7921 47.6463 99.8702 47.3994C99.9458 47.154 99.9847 46.9055 99.9847 46.6549V28.8287C99.9847 28.5783 99.9458 28.3296 99.8702 28.0843C99.7921 27.8372 99.6799 27.5984 99.5291 27.3666C99.3783 27.1358 99.1931 26.9154 98.9745 26.7065C98.7558 26.4979 98.5058 26.3054 98.2272 26.1279C97.9485 25.9506 97.6466 25.7911 97.3184 25.6521C96.9904 25.5128 96.644 25.395 96.2821 25.2989C95.9175 25.2028 95.5427 25.1314 95.1547 25.0817C94.7694 25.0337 94.3788 25.0088 93.9856 25.0088ZM21.3914 33.107H16.2523V46.1467H11.5697V33.107H6.40654V29.3368H21.3914V33.107ZM34.335 42.8808H27.2268L25.906 46.1467H21.0552L28.4756 29.3368H33.1584L40.6027 46.1467H35.6559L34.335 42.8808ZM32.9422 39.3747L30.781 33.9957L28.6196 39.3747H32.9422ZM49.3199 39.7108H47.1586V46.1467H42.4278V29.3368H47.1586V35.8686H49.44L53.4504 29.3368H58.4454L53.1861 37.4536L58.4934 46.1467H53.1382L49.3199 39.7108ZM68.123 46.4831C66.362 46.4831 64.7811 46.1108 63.3803 45.3664C61.9794 44.6217 60.8787 43.5852 60.0783 42.2564C59.2777 40.9277 58.8776 39.4228 58.8776 37.7417C58.8776 36.0608 59.2777 34.5558 60.0783 33.2271C60.8787 31.8983 61.9794 30.8618 63.3803 30.1173C64.7811 29.3728 66.362 29.0007 68.123 29.0007C69.6599 29.0007 71.0448 29.2728 72.2775 29.817C73.5102 30.3614 74.5348 31.1458 75.3513 32.1705L72.3256 34.9081C71.2369 33.5953 69.9161 32.9389 68.3632 32.9389C67.4507 32.9389 66.6382 33.1391 65.9257 33.5393C65.2134 33.9395 64.6611 34.5038 64.2687 35.2322C63.8765 35.9608 63.6804 36.7972 63.6804 37.7417C63.6804 38.6864 63.8765 39.5227 64.2687 40.2513C64.6611 40.9797 65.2134 41.544 65.9257 41.9443C66.6382 42.3444 67.4507 42.5447 68.3632 42.5447C69.9161 42.5447 71.2369 41.8883 72.3256 40.5755L75.3513 43.3131C74.5348 44.3376 73.5102 45.1222 72.2775 45.6665C71.0448 46.2109 69.6599 46.4831 68.123 46.4831ZM77.4886 29.3368H82.1713V39.2067L89.1114 29.3368H93.5782V46.1467H88.8954V36.3009L81.9792 46.1467H77.4886V29.3368Z" fill="#FFB515"/>
<path fill-rule="evenodd" clip-rule="evenodd" d="M158.054 32.0749V16.1968C158.054 14.336 159.436 13.4971 161.354 13.4971H172.002C173.252 13.4971 174.045 13.756 174.67 14.4282L181.479 24.8665C181.975 25.6395 184 28.3944 184 29.2446V32.0749H158.054ZM165.272 16.86H171.324C171.463 17.3813 176.176 24.1391 176.783 25.2854H165.272V16.86Z" fill="black"/>
<path fill-rule="evenodd" clip-rule="evenodd" d="M144.238 32.0753L149.375 17.116C149.785 15.8855 150.227 14.7185 150.649 13.4411C151.014 12.3394 151.465 10.6651 151.905 9.74805C152.535 9.91622 152.765 10.4468 153.233 10.8203C154.076 11.4938 156.255 13.4354 156.255 14.5473C156.255 16.2532 154.719 19.9752 154.098 21.8395L150.569 32.0753H144.238Z" fill="black"/>
<path fill-rule="evenodd" clip-rule="evenodd" d="M116.874 32.0755L127.909 0C128.609 0.015604 130.038 0.230593 130.848 0.36075C134.275 0.910728 138.002 2.01625 141.131 3.27596C144.035 4.44539 145.215 5.28045 147.706 6.59887C147.647 7.30241 146.648 9.84536 146.337 10.779L139.027 32.0755H116.874ZM135.98 9.65439L130.576 7.8348L132.39 2.44809L137.794 4.26781L135.98 9.65439L141.384 11.4741L139.57 16.8604L134.166 15.0407L132.352 20.4276L137.756 22.2473L135.942 27.634L130.538 25.8143L128.724 31.2012L123.321 29.3815L125.135 23.9946L130.538 25.8143L132.352 20.4276L126.949 18.608L128.763 13.221L134.166 15.0407L135.98 9.65439Z" fill="#FFB515"/>
<path fill-rule="evenodd" clip-rule="evenodd" d="M109.373 25.1957C109.373 26.4308 112.859 29.5847 113.272 29.695C113.716 27.7887 118.579 14.1483 119.552 11.229C120.061 9.70071 123.261 0.713571 123.321 0C122.593 0.169538 121.971 0.107741 121.153 0.231582C118.446 0.640752 117.623 0.324589 116.701 3.12922L110.481 21.3544C110.117 22.3944 109.373 23.9661 109.373 25.1957Z" fill="black"/>
<path d="M114.51 42.336C116.24 42.336 117.52 42.689 118.35 43.3952C119.18 44.1013 119.595 45.043 119.595 46.22C119.595 46.9851 119.398 47.6882 119.003 48.3296C118.609 48.9711 118.009 49.4832 117.203 49.8656C116.396 50.2483 115.399 50.4395 114.21 50.4395C113.339 50.4395 112.477 50.3335 111.624 50.1217C110.77 49.9098 110.038 49.6098 109.426 49.2213L110.679 46.5906C111.174 46.9203 111.718 47.1734 112.312 47.3499C112.907 47.5265 113.504 47.6147 114.104 47.6147C114.704 47.6147 115.184 47.4999 115.543 47.2704C115.902 47.0411 116.082 46.7202 116.082 46.3083C116.082 45.8963 115.905 45.5844 115.552 45.3727C115.199 45.1608 114.575 45.0548 113.68 45.0548H110.326L110.944 37.834H118.818V40.5352H113.839L113.68 42.336H114.51ZM126.056 50.4395C124.997 50.4395 124.055 50.1864 123.232 49.6804C122.408 49.1741 121.763 48.4358 121.299 47.4647C120.834 46.4937 120.601 45.3431 120.601 44.0131C120.601 42.6832 120.834 41.5326 121.299 40.5616C121.763 39.5905 122.408 38.8522 123.232 38.3461C124.055 37.8398 124.997 37.5869 126.056 37.5869C127.104 37.5869 128.04 37.8398 128.864 38.3461C129.687 38.8522 130.332 39.5905 130.797 40.5616C131.262 41.5326 131.494 42.6832 131.494 44.0131C131.494 45.3431 131.262 46.4937 130.797 47.4647C130.332 48.4358 129.687 49.1741 128.864 49.6804C128.04 50.1864 127.104 50.4395 126.056 50.4395ZM126.056 47.5793C126.645 47.5793 127.113 47.2939 127.46 46.7232C127.807 46.1524 127.981 45.249 127.981 44.0131C127.981 42.7772 127.807 41.8739 127.46 41.3031C127.113 40.7324 126.645 40.4469 126.056 40.4469C125.456 40.4469 124.982 40.7324 124.635 41.3031C124.288 41.8739 124.114 42.7772 124.114 44.0131C124.114 45.249 124.288 46.1524 124.635 46.7232C124.982 47.2939 125.456 47.5793 126.056 47.5793ZM137.32 42.336C139.05 42.336 140.33 42.689 141.16 43.3952C141.99 44.1013 142.404 45.043 142.404 46.22C142.404 46.9851 142.207 47.6882 141.813 48.3296C141.419 48.9711 140.819 49.4832 140.012 49.8656C139.206 50.2483 138.209 50.4395 137.02 50.4395C136.149 50.4395 135.287 50.3335 134.434 50.1217C133.58 49.9098 132.848 49.6098 132.236 49.2213L133.489 46.5906C133.983 46.9203 134.528 47.1734 135.122 47.3499C135.716 47.5265 136.314 47.6147 136.914 47.6147C137.514 47.6147 137.994 47.4999 138.353 47.2704C138.712 47.0411 138.891 46.7202 138.891 46.3083C138.891 45.8963 138.715 45.5844 138.362 45.3727C138.009 45.1608 137.385 45.0548 136.49 45.0548H133.136L133.754 37.834H141.628V40.5352H136.649L136.49 42.336H137.32ZM143.658 43.8718H148.813V46.4495H143.658V43.8718ZM154.887 42.336C156.617 42.336 157.897 42.689 158.726 43.3952C159.556 44.1013 159.971 45.043 159.971 46.22C159.971 46.9851 159.774 47.6882 159.38 48.3296C158.985 48.9711 158.385 49.4832 157.579 49.8656C156.773 50.2483 155.775 50.4395 154.586 50.4395C153.715 50.4395 152.853 50.3335 152 50.1217C151.147 49.9098 150.414 49.6098 149.802 49.2213L151.055 46.5906C151.55 46.9203 152.094 47.1734 152.689 47.3499C153.283 47.5265 153.88 47.6147 154.48 47.6147C155.081 47.6147 155.56 47.4999 155.919 47.2704C156.278 47.0411 156.458 46.7202 156.458 46.3083C156.458 45.8963 156.281 45.5844 155.928 45.3727C155.575 45.1608 154.951 45.0548 154.057 45.0548H150.702L151.32 37.834H159.194V40.5352H154.216L154.057 42.336H154.887ZM166.433 50.4395C165.373 50.4395 164.432 50.1864 163.608 49.6804C162.784 49.1741 162.14 48.4358 161.675 47.4647C161.21 46.4937 160.977 45.3431 160.977 44.0131C160.977 42.6832 161.21 41.5326 161.675 40.5616C162.14 39.5905 162.784 38.8522 163.608 38.3461C164.432 37.8398 165.373 37.5869 166.433 37.5869C167.48 37.5869 168.416 37.8398 169.24 38.3461C170.064 38.8522 170.708 39.5905 171.173 40.5616C171.638 41.5326 171.87 42.6832 171.87 44.0131C171.87 45.3431 171.638 46.4937 171.173 47.4647C170.708 48.4358 170.064 49.1741 169.24 49.6804C168.416 50.1864 167.48 50.4395 166.433 50.4395ZM166.433 47.5793C167.021 47.5793 167.489 47.2939 167.836 46.7232C168.183 46.1524 168.357 45.249 168.357 44.0131C168.357 42.7772 168.183 41.8739 167.836 41.3031C167.489 40.7324 167.021 40.4469 166.433 40.4469C165.832 40.4469 165.359 40.7324 165.012 41.3031C164.664 41.8739 164.491 42.7772 164.491 44.0131C164.491 45.249 164.664 46.1524 165.012 46.7232C165.359 47.2939 165.832 47.5793 166.433 47.5793ZM177.696 42.336C179.426 42.336 180.706 42.689 181.536 43.3952C182.366 44.1013 182.781 45.043 182.781 46.22C182.781 46.9851 182.584 47.6882 182.19 48.3296C181.795 48.9711 181.195 49.4832 180.389 49.8656C179.582 50.2483 178.585 50.4395 177.396 50.4395C176.525 50.4395 175.663 50.3335 174.81 50.1217C173.956 49.9098 173.224 49.6098 172.612 49.2213L173.865 46.5906C174.36 46.9203 174.904 47.1734 175.498 47.3499C176.093 47.5265 176.69 47.6147 177.29 47.6147C177.89 47.6147 178.37 47.4999 178.729 47.2704C179.088 47.0411 179.268 46.7202 179.268 46.3083C179.268 45.8963 179.091 45.5844 178.738 45.3727C178.385 45.1608 177.761 45.0548 176.866 45.0548H173.512L174.13 37.834H182.004V40.5352H177.026L176.866 42.336H177.696Z" fill="black"/>
<path fill-rule="evenodd" clip-rule="evenodd" d="M109.798 31.8242H183.574C183.808 31.8242 183.999 32.0155 183.999 32.2494V34.7454C183.999 34.9792 183.808 35.1705 183.574 35.1705H109.798C109.564 35.1705 109.373 34.9792 109.373 34.7454V32.2494C109.373 32.0155 109.564 31.8242 109.798 31.8242Z" fill="black"/>
</svg>
