<svg width="16" height="14" viewBox="0 0 16 14" fill="none" xmlns="http://www.w3.org/2000/svg">
<path d="M2.89438 7.23612V3.37695H1.44719C1.06337 3.37695 0.695273 3.52942 0.423872 3.80082C0.152471 4.07223 0 4.44032 0 4.82414V13.5073C0.000717951 13.5969 0.0263712 13.6845 0.0740847 13.7603C0.121798 13.8361 0.189687 13.8972 0.270142 13.9366C0.347653 13.9719 0.433113 13.986 0.51784 13.9775C0.602568 13.969 0.683542 13.9383 0.752538 13.8884L3.23688 12.0601H9.72029C9.90312 12.0655 10.0851 12.0333 10.255 11.9655C10.4249 11.8977 10.579 11.7958 10.7079 11.666C10.8368 11.5362 10.9377 11.3813 11.0043 11.211C11.0709 11.0406 11.1018 10.8584 11.0951 10.6756V10.1305H5.78876C5.02112 10.1305 4.28492 9.82556 3.74212 9.28276C3.19932 8.73996 2.89438 8.00376 2.89438 7.23612Z" fill="white"/>
<path d="M13.9897 0H5.78899C5.40517 0 5.03707 0.152471 4.76567 0.423872C4.49427 0.695273 4.3418 1.06337 4.3418 1.44719V7.23595C4.3418 7.61977 4.49427 7.98786 4.76567 8.25926C5.03707 8.53067 5.40517 8.68314 5.78899 8.68314H12.3255L14.6313 10.4728C14.6999 10.5235 14.7806 10.5551 14.8654 10.5644C14.9501 10.5738 15.0358 10.5605 15.1137 10.5259C15.1958 10.4868 15.2652 10.4253 15.3138 10.3485C15.3625 10.2717 15.3884 10.1827 15.3887 10.0917V1.44719C15.3889 1.07158 15.2431 0.710612 14.982 0.440557C14.7209 0.170501 14.3651 0.0125201 13.9897 0Z" fill="white"/>
</svg>
