<svg width="200" height="111" viewBox="0 0 200 111" fill="none" xmlns="http://www.w3.org/2000/svg">
<path d="M108.673 60.3103H62.6152V66.9366H108.673V60.3103Z" fill="#333333"/>
<path d="M158.044 66.9366H124.375L131.907 35.9203H158.044V66.9366Z" fill="#4D4D4D"/>
<path d="M198.082 66.9366H9.47852V75.7471H198.082V66.9366Z" fill="#666666"/>
<path d="M194.189 86.5299H9.47852V75.7471H198.464C199.314 75.7471 200.001 76.4365 200.001 77.2843V80.7157C200.001 83.9262 197.4 86.5299 194.189 86.5299Z" fill="#4D4D4D"/>
<path d="M140.457 93.618C140.395 93.1852 140.352 92.7524 140.321 92.324L138.873 91.967L138.965 88.9037L140.439 88.6338C140.553 87.8061 140.725 86.9917 140.952 86.1975L139.685 85.3474L140.819 82.5006L142.338 82.7594C142.724 82.0343 143.159 81.3382 143.639 80.6756L142.713 79.4083L144.752 77.1215L146.122 77.9001C146.722 77.358 147.36 76.856 148.034 76.3964L147.588 74.8614L150.287 73.409L151.329 74.6338C152.068 74.3348 152.828 74.0805 153.618 73.8797L153.728 72.2533L156.76 71.8115L157.326 73.3398C158.134 73.3086 158.933 73.3331 159.72 73.409L160.385 71.903L163.386 72.5254L163.397 74.1608C164.16 74.404 164.903 74.6985 165.621 75.0421L166.764 73.8529L169.37 75.4638L168.821 77.0054C169.454 77.4918 170.057 78.0206 170.619 78.5873L172.089 77.8644L173.988 80.2695L172.959 81.5122C173.39 82.186 173.778 82.8932 174.12 83.6295L175.724 83.4555L176.685 86.3648L175.315 87.168C175.414 87.6097 175.503 88.0559 175.567 88.5111C175.619 88.8658 175.657 89.2206 175.686 89.5753L177.221 89.9524L177.129 93.0156L175.61 93.2945C175.505 94.1178 175.347 94.9254 175.132 95.7152L176.411 96.5719L175.277 99.4188L173.792 99.1667C173.41 99.9074 172.977 100.619 172.498 101.3L173.386 102.513L171.346 104.8L170.07 104.075C169.454 104.646 168.796 105.175 168.102 105.657L168.511 107.062L165.813 108.515L164.887 107.426C164.111 107.752 163.303 108.022 162.471 108.236L162.375 109.668L159.343 110.11L158.85 108.785C157.987 108.827 157.13 108.803 156.289 108.72L155.715 110.016L152.715 109.394L152.706 107.993C151.885 107.734 151.088 107.417 150.318 107.047L149.339 108.066L146.733 106.456L147.208 105.124C146.532 104.604 145.894 104.037 145.299 103.424L144.013 104.055L142.115 101.65L143.027 100.548C142.577 99.836 142.175 99.0886 141.825 98.3077L140.379 98.4639L139.417 95.5546L140.68 94.8139C140.593 94.419 140.515 94.0218 140.457 93.618Z" fill="#333333"/>
<path d="M148.105 92.5047C148.902 97.9731 153.98 101.764 159.448 100.967C164.916 100.173 168.707 95.0928 167.91 89.6244C167.116 84.156 162.036 80.3654 156.568 81.1619C151.099 81.9562 147.311 87.0364 148.105 92.5047Z" fill="#B3B3B3"/>
<path d="M150.297 92.1857C150.915 96.4425 154.869 99.392 159.128 98.774C163.385 98.1538 166.334 94.2025 165.716 89.9434C165.098 85.6865 161.145 82.7371 156.886 83.3551C152.626 83.9753 149.677 87.9288 150.297 92.1857Z" fill="#808080"/>
<path d="M153.718 91.6881C154.061 94.0575 156.264 95.6996 158.633 95.356C161.002 95.0124 162.644 92.8104 162.301 90.441C161.957 88.0716 159.755 86.4295 157.386 86.7731C155.014 87.1189 153.372 89.3187 153.718 91.6881Z" fill="#B3B3B3"/>
<path d="M154.539 86.9939C154.048 86.9939 153.627 86.628 153.555 86.1417C153.477 85.5973 153.854 85.0931 154.396 85.0127C154.445 85.006 154.492 85.0016 154.541 85.0016C155.032 85.0016 155.454 85.3675 155.525 85.8539C155.603 86.3982 155.226 86.9025 154.684 86.9828C154.635 86.9895 154.586 86.9939 154.539 86.9939Z" fill="#666666"/>
<path d="M160.663 86.5299C160.355 86.5299 160.072 86.3915 159.882 86.1506C159.717 85.9431 159.644 85.6821 159.675 85.4166C159.706 85.1533 159.838 84.9168 160.048 84.7517C160.224 84.6111 160.438 84.5375 160.663 84.5375C160.971 84.5375 161.257 84.6758 161.446 84.9168C161.786 85.3474 161.712 85.9743 161.281 86.3157C161.103 86.4562 160.889 86.5299 160.663 86.5299Z" fill="#666666"/>
<path d="M164.123 91.5967C163.995 91.5967 163.873 91.5721 163.754 91.5253C163.243 91.3222 162.996 90.7422 163.197 90.2312C163.348 89.8497 163.712 89.6043 164.123 89.6043C164.25 89.6043 164.372 89.6289 164.491 89.6757C164.738 89.7739 164.932 89.9635 165.037 90.2067C165.142 90.4521 165.147 90.7221 165.048 90.9675C164.897 91.349 164.533 91.5967 164.123 91.5967Z" fill="#666666"/>
<path d="M161.467 97.1275C160.976 97.1275 160.554 96.7616 160.483 96.2752C160.445 96.012 160.512 95.7509 160.67 95.5367C160.829 95.3226 161.063 95.1842 161.326 95.1463C161.375 95.1396 161.422 95.1351 161.471 95.1351C161.962 95.1351 162.384 95.501 162.455 95.9874C162.493 96.2507 162.426 96.5117 162.268 96.7259C162.109 96.9401 161.875 97.0784 161.612 97.1163C161.563 97.123 161.514 97.1275 161.467 97.1275Z" fill="#666666"/>
<path d="M155.351 97.5916C155.043 97.5916 154.76 97.4532 154.57 97.2123C154.405 97.0048 154.331 96.7438 154.362 96.4783C154.394 96.215 154.525 95.9785 154.735 95.8134C154.911 95.6728 155.126 95.5992 155.351 95.5992C155.659 95.5992 155.942 95.7375 156.132 95.9785C156.297 96.186 156.37 96.447 156.339 96.7125C156.308 96.9758 156.176 97.2123 155.967 97.3774C155.79 97.5179 155.576 97.5916 155.351 97.5916Z" fill="#666666"/>
<path d="M151.883 92.5248C151.756 92.5248 151.633 92.5002 151.515 92.4534C151.006 92.2503 150.756 91.6703 150.959 91.1594C151.111 90.7778 151.475 90.5324 151.885 90.5324C152.01 90.5324 152.135 90.557 152.253 90.6038C152.764 90.8068 153.012 91.3869 152.809 91.8978C152.657 92.2794 152.293 92.5248 151.883 92.5248Z" fill="#666666"/>
<path d="M70.7525 0.00304622L55.1309 58.3064L80.3874 65.0735L96.009 6.77019L70.7525 0.00304622Z" fill="#FFD645"/>
<path d="M113.426 65.0737H80.3906L96.0126 6.76907L124.115 23.2165C127.875 25.4164 129.746 29.825 128.716 34.0573L123.009 57.5394C121.933 61.9613 117.975 65.0737 113.426 65.0737Z" fill="#FFCB13"/>
<path d="M70.7555 0L55.1358 58.3068L20.7036 38.4235L17.7207 36.7011L27.5597 0H70.7555Z" fill="#FFCB13"/>
<path d="M58.5461 45.7995L55.1348 58.3046L80.3927 65.0737L83.7483 52.5529L58.5461 45.7995Z" fill="#E6E6E6"/>
<path d="M116.835 52.5663H83.8019L80.3906 65.0714H113.426C117.975 65.0714 121.933 61.9591 123.009 57.5393L125.476 47.3902C123.783 50.5115 120.516 52.5663 116.835 52.5663Z" fill="#E6E6E6"/>
<path d="M24.115 25.9161L21.132 24.1937L27.6177 0H27.5597L17.7207 36.7011L20.7036 38.4235L55.1358 58.3068L58.4935 45.7704L24.115 25.9161Z" fill="#E6E6E6"/>
<path d="M31.4485 0L20.7036 38.4235L17.7207 36.7011L27.5597 0H31.4485Z" fill="#E6E6E6"/>
<path d="M21.77 71.7624H14.9496V25.3695L11.5383 21.3179L1.30664 6.76907H21.77V71.7624Z" fill="#666666"/>
<path d="M44.2406 56.7049L21.7715 43.0619V71.7624H44.2406V56.7049Z" fill="#666666"/>
<path d="M60.377 93.618C60.3146 93.1852 60.2722 92.7524 60.2409 92.324L58.793 91.967L58.8844 88.9037L60.3592 88.6338C60.473 87.8061 60.6448 86.9917 60.8723 86.1975L59.6051 85.3474L60.7385 82.5006L62.2578 82.7594C62.6438 82.0343 63.0789 81.3382 63.5585 80.6756L62.6326 79.4083L64.6718 77.1215L66.0417 77.9001C66.6419 77.358 67.28 76.856 67.9537 76.3964L67.5075 74.8614L70.2071 73.409L71.249 74.6338C71.9853 74.3348 72.7483 74.0805 73.5381 73.8797L73.6474 72.2533L76.6795 71.8115L77.2462 73.3398C78.0538 73.3086 78.8525 73.3331 79.6401 73.409L80.305 71.903L83.3058 72.5254L83.3169 74.1608C84.0799 74.404 84.8229 74.6985 85.5413 75.0421L86.6836 73.8529L89.2895 75.4638L88.7407 77.0054C89.3743 77.4918 89.9767 78.0206 90.5389 78.5873L92.0092 77.8644L93.9078 80.2695L92.8793 81.5122C93.3099 82.186 93.6981 82.8932 94.0394 83.6295L95.6414 83.4555L96.6029 86.3648L95.2331 87.168C95.3312 87.6097 95.4205 88.0559 95.4874 88.5111C95.5387 88.8658 95.5767 89.2206 95.6057 89.5753L97.1406 89.9524L97.0492 93.0156L95.5298 93.2945C95.4249 94.1178 95.2665 94.9254 95.0523 95.7152L96.3308 96.5719L95.1974 99.4188L93.7115 99.1667C93.33 99.9074 92.8971 100.619 92.4175 101.3L93.3054 102.513L91.2662 104.8L89.99 104.075C89.3743 104.646 88.7161 105.175 88.0222 105.657L88.4305 107.062L85.7332 108.515L84.8073 107.426C84.0309 107.752 83.2232 108.022 82.391 108.236L82.2951 109.668L79.2631 110.11L78.77 108.785C77.9066 108.827 77.0498 108.803 76.2087 108.72L75.6353 110.016L72.6345 109.394L72.6256 107.993C71.8046 107.734 71.0081 107.417 70.2384 107.047L69.2589 108.066L66.653 106.456L67.1283 105.124C66.4522 104.604 65.8141 104.037 65.2185 103.424L63.9334 104.055L62.0347 101.65L62.9472 100.548C62.4965 99.836 62.095 99.0886 61.7469 98.3077L60.3012 98.4639L59.3396 95.5546L60.6024 94.8139C60.5109 94.419 60.435 94.0218 60.377 93.618Z" fill="#333333"/>
<path d="M68.0256 92.5047C68.8221 97.9731 73.9 101.764 79.3684 100.967C84.8368 100.173 88.6274 95.0927 87.8309 89.6244C87.0344 84.156 81.9564 80.3654 76.4881 81.1619C71.0197 81.9562 67.2291 87.0363 68.0256 92.5047Z" fill="#B3B3B3"/>
<path d="M70.2166 92.1857C70.8346 96.4425 74.7881 99.392 79.0472 98.774C83.3041 98.1538 86.2535 94.2025 85.6355 89.9434C85.0175 85.6865 81.0641 82.7371 76.8049 83.3551C72.5481 83.9753 69.5986 87.9288 70.2166 92.1857Z" fill="#808080"/>
<path d="M73.6372 91.6881C73.9808 94.0575 76.1829 95.6996 78.5523 95.356C80.9217 95.0124 82.5638 92.8104 82.2202 90.441C81.8766 88.0716 79.6745 86.4295 77.3051 86.7731C74.9357 87.1189 73.2937 89.3187 73.6372 91.6881Z" fill="#B3B3B3"/>
<path d="M74.4629 86.9939C73.9721 86.9939 73.5504 86.628 73.479 86.1417C73.4009 85.5973 73.778 85.0931 74.3201 85.0127C74.3692 85.006 74.416 85.0016 74.4651 85.0016C74.956 85.0016 75.3776 85.3675 75.449 85.8539C75.5271 86.3982 75.1501 86.9025 74.6079 86.9828C74.5588 86.9895 74.5097 86.9939 74.4629 86.9939Z" fill="#666666"/>
<path d="M80.5872 86.5299C80.2815 86.5299 79.9959 86.3915 79.8063 86.1506C79.6412 85.9431 79.5676 85.6821 79.5988 85.4166C79.6301 85.1533 79.7617 84.9168 79.9714 84.7517C80.1477 84.6111 80.3618 84.5375 80.5872 84.5375C80.8951 84.5375 81.1807 84.6758 81.3703 84.9168C81.7094 85.3474 81.6358 85.9743 81.2052 86.3157C81.0267 86.4562 80.8125 86.5299 80.5872 86.5299Z" fill="#666666"/>
<path d="M84.0492 91.5967C83.922 91.5967 83.7993 91.5721 83.6811 91.5253C83.1702 91.3222 82.9203 90.7422 83.1233 90.2312C83.275 89.8497 83.6387 89.6043 84.0492 89.6043C84.1764 89.6043 84.2991 89.6289 84.4173 89.6757C84.665 89.7739 84.8591 89.9635 84.964 90.2067C85.0688 90.4521 85.0733 90.7221 84.9751 90.9675C84.8212 91.349 84.4597 91.5967 84.0492 91.5967Z" fill="#666666"/>
<path d="M81.3868 97.1275C80.896 97.1275 80.4743 96.7616 80.4029 96.2752C80.365 96.012 80.432 95.7509 80.5904 95.5367C80.7488 95.3226 80.983 95.1842 81.2463 95.1463C81.2954 95.1396 81.3422 95.1351 81.3913 95.1351C81.8821 95.1351 82.3038 95.501 82.3752 95.9874C82.4131 96.2507 82.3462 96.5117 82.1878 96.7259C82.0294 96.9401 81.7951 97.0784 81.5319 97.1163C81.4828 97.123 81.4359 97.1275 81.3868 97.1275Z" fill="#666666"/>
<path d="M75.2747 97.5915C74.9668 97.5915 74.6835 97.4532 74.4938 97.2122C74.3287 97.0047 74.2551 96.7437 74.2863 96.4782C74.3176 96.2149 74.4492 95.9784 74.6589 95.8133C74.8352 95.6728 75.0494 95.5992 75.2747 95.5992C75.5826 95.5992 75.8659 95.7375 76.0556 95.9785C76.2207 96.1859 76.2943 96.447 76.2631 96.7125C76.2318 96.9757 76.1002 97.2122 75.8905 97.3773C75.712 97.5179 75.5 97.5915 75.2747 97.5915Z" fill="#666666"/>
<path d="M71.8107 92.5248C71.6835 92.5248 71.5608 92.5002 71.4426 92.4534C70.9339 92.2503 70.684 91.6703 70.887 91.1594C71.0387 90.7778 71.4024 90.5324 71.8129 90.5324C71.9401 90.5324 72.0628 90.557 72.181 90.6038C72.692 90.8068 72.9418 91.3869 72.7366 91.8978C72.5849 92.2794 72.2212 92.5248 71.8107 92.5248Z" fill="#666666"/>
<path d="M15.418 93.618C15.3556 93.1852 15.3132 92.7524 15.282 92.324L13.834 91.967L13.9255 88.9038L15.4002 88.6338C15.514 87.8061 15.6858 86.9917 15.9133 86.1975L14.6461 85.3474L15.7795 82.5006L17.2988 82.7594C17.6848 82.0343 18.1199 81.3382 18.5996 80.6756L17.6737 79.4083L19.7129 77.1215L21.0827 77.9001C21.6829 77.358 22.321 76.856 22.9948 76.3964L22.5486 74.8614L25.2481 73.409L26.2901 74.6338C27.0263 74.3349 27.7893 74.0805 28.5791 73.8797L28.6885 72.2533L31.7205 71.8115L32.2872 73.3398C33.0948 73.3086 33.8936 73.3331 34.6811 73.409L35.346 71.903L38.3468 72.5255L38.3579 74.1608C39.121 74.404 39.8639 74.6985 40.5823 75.0421L41.7246 73.853L44.3305 75.4638L43.7817 77.0055C44.4153 77.4918 45.0177 78.0206 45.5799 78.5873L47.0502 77.8644L48.9488 80.2695L47.9203 81.5122C48.3509 82.186 48.7391 82.8933 49.0805 83.6295L50.6846 83.4555L51.6462 86.3648L50.2763 87.168C50.3745 87.6097 50.4637 88.056 50.5307 88.5111C50.582 88.8658 50.6199 89.2206 50.6489 89.5753L52.1839 89.9524L52.0924 93.0156L50.5731 93.2945C50.4682 94.1178 50.3098 94.9254 50.0956 95.7152L51.374 96.572L50.2406 99.4188L48.7547 99.1667C48.3732 99.9074 47.9404 100.619 47.4607 101.3L48.3487 102.513L46.3095 104.8L45.0333 104.075C44.4175 104.646 43.7594 105.175 43.0655 105.657L43.4738 107.062L40.7764 108.515L39.8505 107.426C39.0741 107.752 38.2665 108.022 37.4343 108.236L37.3383 109.668L34.3063 110.11L33.8132 108.785C32.9498 108.827 32.0931 108.803 31.252 108.72L30.6786 110.016L27.6778 109.394L27.6689 107.993C26.8478 107.734 26.0513 107.417 25.2816 107.047L24.3022 108.066L21.6963 106.456L22.1715 105.124C21.4955 104.604 20.8574 104.037 20.2617 103.424L18.9766 104.055L17.078 101.65L17.9905 100.548C17.5398 99.836 17.1382 99.0886 16.7879 98.3077L15.3422 98.4639L14.3806 95.5546L15.6434 94.8139C15.5541 94.419 15.4783 94.0218 15.418 93.618Z" fill="#333333"/>
<path d="M23.0662 92.5047C23.8626 97.9731 28.9406 101.764 34.4089 100.967C39.8773 100.173 43.6679 95.0928 42.8714 89.6244C42.0771 84.156 36.997 80.3654 31.5286 81.1619C26.0603 81.9562 22.2719 87.0364 23.0662 92.5047Z" fill="#B3B3B3"/>
<path d="M25.2582 92.1857C25.8762 96.4426 29.8296 99.392 34.0887 98.774C38.3456 98.1538 41.2951 94.2026 40.6771 89.9435C40.0591 85.6866 36.1056 82.7371 31.8465 83.3551C27.5874 83.9753 24.6379 87.9288 25.2582 92.1857Z" fill="#808080"/>
<path d="M28.6783 91.6881C29.0219 94.0575 31.224 95.6996 33.5934 95.356C35.9628 95.0124 37.6048 92.8104 37.2612 90.441C36.9177 88.0716 34.7156 86.4295 32.3462 86.7731C29.9746 87.1189 28.3347 89.3187 28.6783 91.6881Z" fill="#B3B3B3"/>
<path d="M29.5078 86.9939C29.017 86.9939 28.5953 86.6281 28.5239 86.1417C28.4458 85.5973 28.8229 85.0931 29.365 85.0128C29.4141 85.0061 29.461 85.0016 29.51 85.0016C30.0009 85.0016 30.4226 85.3675 30.4939 85.8539C30.572 86.3983 30.195 86.9025 29.6528 86.9828C29.6037 86.9895 29.5569 86.9939 29.5078 86.9939Z" fill="#666666"/>
<path d="M35.6262 86.5299C35.3184 86.5299 35.035 86.3916 34.8454 86.1506C34.6803 85.9431 34.6066 85.6821 34.6379 85.4166C34.6691 85.1533 34.8008 84.9168 35.0105 84.7517C35.1867 84.6112 35.4009 84.5375 35.6262 84.5375C35.9341 84.5375 36.2197 84.6759 36.4094 84.9168C36.7485 85.3474 36.6749 85.9743 36.2443 86.3157C36.0635 86.4563 35.8516 86.5299 35.6262 86.5299Z" fill="#666666"/>
<path d="M39.0883 91.5967C38.9611 91.5967 38.8384 91.5721 38.7202 91.5253C38.2092 91.3222 37.9594 90.7422 38.1624 90.2313C38.3141 89.8497 38.6778 89.6043 39.0883 89.6043C39.2155 89.6043 39.3382 89.6289 39.4564 89.6757C39.7041 89.7739 39.8982 89.9635 40.003 90.2067C40.1079 90.4521 40.1123 90.7221 40.0142 90.9675C39.8625 91.349 39.4988 91.5967 39.0883 91.5967Z" fill="#666666"/>
<path d="M36.4298 97.1275C35.939 97.1275 35.5173 96.7616 35.4459 96.2752C35.408 96.012 35.4749 95.7509 35.6333 95.5368C35.7917 95.3226 36.026 95.1842 36.2893 95.1463C36.3383 95.1396 36.3852 95.1352 36.4343 95.1352C36.9251 95.1352 37.3468 95.5011 37.4182 95.9874C37.4561 96.2507 37.3892 96.5117 37.2308 96.7259C37.0724 96.9401 36.8381 97.0784 36.5748 97.1163C36.5258 97.123 36.4767 97.1275 36.4298 97.1275Z" fill="#666666"/>
<path d="M30.3137 97.5916C30.0059 97.5916 29.7225 97.4533 29.5329 97.2123C29.3678 97.0048 29.2941 96.7438 29.3254 96.4783C29.3566 96.215 29.4883 95.9785 29.698 95.8134C29.8742 95.6729 30.0884 95.5992 30.3137 95.5992C30.6216 95.5992 30.905 95.7376 31.0946 95.9785C31.2597 96.186 31.3333 96.447 31.3021 96.7125C31.2709 96.9758 31.1392 97.2123 30.9295 97.3774C30.7533 97.518 30.5391 97.5916 30.3137 97.5916Z" fill="#666666"/>
<path d="M26.8498 92.5248C26.7226 92.5248 26.5999 92.5002 26.4816 92.4534C25.9729 92.2504 25.7231 91.6703 25.9261 91.1594C26.0778 90.7779 26.4415 90.5324 26.852 90.5324C26.9769 90.5324 27.1019 90.557 27.2201 90.6038C27.731 90.8069 27.9809 91.3869 27.7756 91.8979C27.6239 92.2794 27.2603 92.5248 26.8498 92.5248Z" fill="#666666"/>
<path d="M105.488 90.9608H105.26C102.616 90.9608 100.445 89.0376 99.9145 86.4496C97.8217 76.2447 88.7703 68.5475 77.9563 68.5475H33.0002C22.1862 68.5475 13.1369 76.2447 11.042 86.4496C10.511 89.0399 8.34014 90.9608 5.69632 90.9608H5.46875C5.46875 75.7806 17.8177 63.4294 32.9979 63.4294H77.954C93.1387 63.4294 105.488 75.7806 105.488 90.9608Z" fill="#737373"/>
<path d="M8.64539 75.7471H9.47758V66.9366H8.64539C7.70611 66.9366 6.94531 67.6974 6.94531 68.6367V74.0493C6.94754 74.9863 7.70834 75.7471 8.64539 75.7471Z" fill="#121212"/>
<path d="M127.957 37.2181L123.084 57.1656L126.567 58.0164L131.44 38.0689L127.957 37.2181Z" fill="#333333"/>
<path d="M130.514 66.9366H163.969L145.413 61.5307H130.514V66.9366Z" fill="#666666"/>
<path d="M198.083 71.7624H173.474L145.414 61.5308V19.9614C145.414 18.1542 146.88 16.6884 148.687 16.6884H181.821C183.523 16.6884 185.145 17.4715 186.149 18.8481C193.092 28.3547 198.083 44.4564 198.083 56.7629V71.7624Z" fill="#FFDB5B"/>
<path d="M194.718 55.4198H160.014L151.311 38.1201V22.4044C151.311 22.2483 151.328 22.1077 151.362 21.9515C151.554 20.9587 152.442 20.1934 153.504 20.1934H179.871C181.646 20.1934 183.318 21.0122 184.344 22.4558C190.314 30.8267 194.598 44.6638 194.718 55.4198Z" fill="#FFDD52"/>
<path d="M194.72 54.7081H160.717L152.189 37.7587V22.3598C152.189 22.2059 152.207 22.0698 152.241 21.9158C152.428 20.9431 153.298 20.1934 154.338 20.1934H180.174C181.914 20.1934 183.549 20.9944 184.556 22.4111C190.405 30.6126 194.602 44.1685 194.72 54.7081Z" fill="#B6B6B6"/>
<path d="M153.199 21.4718H179.034C180.775 21.4718 182.41 22.2728 183.416 23.6895C189.032 31.5652 193.112 44.3716 193.536 54.7104H194.717C194.596 44.1708 190.402 30.6148 184.552 22.4111C183.546 20.9966 181.908 20.1934 180.17 20.1934H154.334C153.384 20.1934 152.603 20.8315 152.326 21.6793C152.598 21.5566 152.886 21.4718 153.199 21.4718Z" fill="#7E7E7E"/>
<path d="M198.083 57.6643H145.414V59.3688H198.083V57.6643Z" fill="#E6E6E6"/>
<path d="M198.023 66.9366H195.853C195.424 66.9366 195.076 66.5886 195.076 66.1602V60.1453C195.076 59.7169 195.424 59.3688 195.853 59.3688H198.023C198.824 59.3688 199.474 60.0181 199.474 60.819V65.4864C199.474 66.2874 198.824 66.9366 198.023 66.9366Z" fill="#F0E5AF"/>
<g opacity="0.25">
<path d="M172.723 54.7081H167.538L152.242 21.9136C152.43 20.9408 153.3 20.1912 154.339 20.1912H156.624L172.723 54.7081Z" fill="white"/>
<path d="M176.951 54.7081H173.968L157.887 20.1934H160.854L176.951 54.7081Z" fill="white"/>
</g>
<path d="M185.571 90.9608H185.343C182.699 90.9608 180.528 89.0376 179.997 86.4496C177.905 76.2447 173.188 68.5475 158.039 68.5475C147.225 68.5475 138.174 76.2447 136.081 86.4496C135.55 89.0399 133.379 90.9608 130.735 90.9608H130.508C130.508 75.7806 142.859 63.4294 158.039 63.4294C173.222 63.4294 185.571 75.7806 185.571 90.9608Z" fill="#737373"/>
<path d="M21.7708 3.51617H0V6.76908H21.7708V3.51617Z" fill="#4D4D4D"/>
<path d="M153.207 53.3137H149.428C148.64 53.3137 148.002 53.9518 148.002 54.7394V57.6643H158.011L156.757 55.4042C156.041 54.1124 154.682 53.3137 153.207 53.3137Z" fill="#E6E6E6"/>
<path d="M51.877 18.4284H57.1268V19.8014H53.6269V20.8155H55.2512C56.011 20.8155 56.5943 20.977 57.0012 21.3001C57.408 21.6231 57.6114 22.0868 57.6114 22.6911C57.6114 23.3252 57.384 23.8203 56.9294 24.1762C56.4747 24.5323 55.8375 24.7102 55.0178 24.7102H51.877V18.4284ZM54.9012 23.4359C55.2004 23.4359 55.4277 23.3761 55.5832 23.2564C55.7388 23.1368 55.8166 22.9663 55.8166 22.7449C55.8166 22.3022 55.5114 22.0808 54.9012 22.0808H53.6269V23.4359H54.9012ZM63.5702 23.3372V24.7102H58.5268V18.4284H63.4535V19.8014H60.2856V20.8603H63.0766V22.1885H60.2856V23.3372H63.5702ZM69.6456 19.8373H67.7252V24.7102H65.9752V19.8373H64.0458V18.4284H69.6456V19.8373ZM73.4596 24.8359C72.7956 24.8359 72.1988 24.6953 71.6693 24.4141C71.1398 24.1329 70.724 23.744 70.4219 23.2474C70.1198 22.7509 69.9687 22.1915 69.9687 21.5693C69.9687 20.9471 70.1198 20.3877 70.4219 19.8912C70.724 19.3946 71.1398 19.0057 71.6693 18.7245C72.1988 18.4433 72.7956 18.3027 73.4596 18.3027C74.1238 18.3027 74.7205 18.4433 75.25 18.7245C75.7795 19.0057 76.1952 19.3946 76.4973 19.8912C76.7995 20.3877 76.9506 20.9471 76.9506 21.5693C76.9506 22.1915 76.7995 22.7509 76.4973 23.2474C76.1952 23.744 75.7795 24.1329 75.25 24.4141C74.7205 24.6953 74.1238 24.8359 73.4596 24.8359ZM73.4596 23.3641C73.7767 23.3641 74.0639 23.2894 74.3211 23.1398C74.5784 22.9902 74.7818 22.7793 74.9314 22.5071C75.081 22.2349 75.1557 21.9223 75.1557 21.5693C75.1557 21.2163 75.081 20.9037 74.9314 20.6315C74.7818 20.3593 74.5784 20.1484 74.3211 19.9988C74.0639 19.8492 73.7767 19.7745 73.4596 19.7745C73.1425 19.7745 72.8554 19.8492 72.5981 19.9988C72.3409 20.1484 72.1375 20.3593 71.9879 20.6315C71.8383 20.9037 71.7635 21.2163 71.7635 21.5693C71.7635 21.9223 71.8383 22.2349 71.9879 22.5071C72.1375 22.7793 72.3409 22.9902 72.5981 23.1398C72.8554 23.2894 73.1425 23.3641 73.4596 23.3641ZM83.8786 18.4284V24.7102H82.1017V22.2603H79.6787V24.7102H77.9018V18.4284H79.6787V20.7885H82.1017V18.4284H83.8786Z" fill="black"/>
<path d="M81.905 26.5195H52.9964C52.8672 26.5195 52.7389 26.5276 52.6123 26.5434C52.4849 26.5597 52.3617 26.5832 52.2419 26.6148C52.123 26.6464 52.0092 26.6851 51.9014 26.7308C51.7936 26.7765 51.6944 26.8289 51.6028 26.8872C51.5113 26.9455 51.4292 27.0087 51.3573 27.0773C51.2855 27.1459 51.2247 27.2183 51.1751 27.2941C51.1255 27.3703 51.0887 27.4488 51.063 27.5299C51.0382 27.6105 51.0254 27.6922 51.0254 27.7745V33.6314C51.0254 33.7138 51.0382 33.7954 51.063 33.876C51.0887 33.9572 51.1255 34.0356 51.1751 34.1119C51.2247 34.1876 51.2855 34.2601 51.3573 34.3287C51.4292 34.3973 51.5113 34.4604 51.6028 34.5188C51.6944 34.5771 51.7936 34.6294 51.9014 34.6751C52.0092 34.7209 52.123 34.7596 52.2419 34.7912C52.3617 34.8228 52.4849 34.8462 52.6123 34.8625C52.7389 34.8783 52.8672 34.8865 52.9964 34.8865H81.905C82.0341 34.8865 82.1625 34.8783 82.2891 34.8625C82.4165 34.8462 82.5397 34.8228 82.6595 34.7912C82.7784 34.7596 82.8922 34.7209 83 34.6751C83.1078 34.6294 83.207 34.5771 83.2985 34.5188C83.3901 34.4604 83.4722 34.3973 83.5441 34.3287C83.6159 34.2601 83.6767 34.1876 83.7263 34.1119C83.7759 34.0356 83.8127 33.9572 83.8384 33.876C83.8632 33.7954 83.876 33.7138 83.876 33.6314V27.7745C83.876 27.6922 83.8632 27.6105 83.8384 27.5299C83.8127 27.4488 83.7759 27.3703 83.7263 27.2941C83.6767 27.2183 83.6159 27.1459 83.5441 27.0773C83.4722 27.0087 83.3901 26.9455 83.2985 26.8872C83.207 26.8289 83.1078 26.7765 83 26.7308C82.8922 26.6851 82.7784 26.6464 82.6595 26.6148C82.5397 26.5832 82.4165 26.5597 82.2891 26.5434C82.1625 26.5276 82.0341 26.5195 81.905 26.5195ZM58.0537 29.1802H56.3652V33.4645H54.8267V29.1802H53.1303V27.9415H58.0537V29.1802ZM62.3064 32.3914H59.9709L59.537 33.4645H57.9432L60.3812 27.9415H61.9198L64.3657 33.4645H62.7404L62.3064 32.3914ZM61.8488 31.2395L61.1387 29.4722L60.4286 31.2395H61.8488ZM67.2298 31.3499H66.5197V33.4645H64.9653V27.9415H66.5197V30.0875H67.2692L68.5868 27.9415H70.228L68.5 30.6083L70.2438 33.4645H68.4843L67.2298 31.3499ZM73.4076 33.575C72.8291 33.575 72.3096 33.4527 71.8494 33.2081C71.3891 32.9634 71.0275 32.6229 70.7645 32.1863C70.5015 31.7497 70.37 31.2553 70.37 30.703C70.37 30.1507 70.5015 29.6562 70.7645 29.2196C71.0275 28.7831 71.3891 28.4425 71.8494 28.1979C72.3096 27.9533 72.8291 27.831 73.4076 27.831C73.9126 27.831 74.3676 27.9204 74.7726 28.0992C75.1776 28.2781 75.5143 28.5358 75.7825 28.8725L74.7884 29.772C74.4307 29.3406 73.9968 29.125 73.4865 29.125C73.1867 29.125 72.9198 29.1907 72.6857 29.3222C72.4517 29.4537 72.2702 29.6391 72.1413 29.8784C72.0124 30.1178 71.948 30.3926 71.948 30.703C71.948 31.0133 72.0124 31.2881 72.1413 31.5275C72.2702 31.7668 72.4517 31.9522 72.6857 32.0837C72.9198 32.2152 73.1867 32.281 73.4865 32.281C73.9968 32.281 74.4307 32.0653 74.7884 31.634L75.7825 32.5335C75.5143 32.8701 75.1776 33.1278 74.7726 33.3067C74.3676 33.4855 73.9126 33.575 73.4076 33.575ZM76.4848 27.9415H78.0233V31.1843L80.3035 27.9415H81.7711V33.4645H80.2325V30.2295L77.9602 33.4645H76.4848V27.9415Z" fill="white"/>
<path fill-rule="evenodd" clip-rule="evenodd" d="M102.955 28.8413V23.6244C102.955 23.013 103.409 22.7374 104.039 22.7374H107.538C107.948 22.7374 108.209 22.8225 108.414 23.0434L110.651 26.4729C110.814 26.7269 111.48 27.632 111.48 27.9114V28.8413H102.955ZM105.326 23.8423H107.315C107.361 24.0136 108.909 26.2339 109.108 26.6105H105.326V23.8423Z" fill="black"/>
<path fill-rule="evenodd" clip-rule="evenodd" d="M98.4121 28.8414L100.1 23.9264C100.235 23.5221 100.38 23.1387 100.519 22.719C100.638 22.357 100.787 21.8069 100.931 21.5056C101.138 21.5608 101.214 21.7352 101.368 21.8579C101.645 22.0792 102.36 22.7171 102.36 23.0824C102.36 23.6429 101.856 24.8658 101.652 25.4783L100.492 28.8414H98.4121Z" fill="black"/>
<path fill-rule="evenodd" clip-rule="evenodd" d="M89.4258 28.8413L93.0514 18.3027C93.2813 18.3079 93.7507 18.3785 94.0169 18.4213C95.1428 18.602 96.3673 18.9652 97.3954 19.3791C98.3498 19.7633 98.7372 20.0377 99.5558 20.4708C99.5365 20.702 99.2082 21.5375 99.106 21.8442L96.7043 28.8413H89.4258ZM95.7031 21.4747L93.9277 20.8769L94.5237 19.1071L96.299 19.7049L95.7031 21.4747L97.4785 22.0726L96.8826 23.8423L95.1071 23.2445L94.5112 25.0143L96.2866 25.6122L95.6906 27.382L93.9151 26.7842L93.3191 28.5541L91.5438 27.9562L92.1398 26.1863L93.9151 26.7842L94.5112 25.0143L92.7358 24.4165L93.3318 22.6466L95.1071 23.2445L95.7031 21.4747Z" fill="white"/>
<path fill-rule="evenodd" clip-rule="evenodd" d="M86.959 26.581C86.959 26.9867 88.1045 28.023 88.2402 28.0592C88.3861 27.4329 89.9838 22.9513 90.3034 21.9921C90.4707 21.49 91.5221 18.5372 91.5416 18.3028C91.3025 18.3585 91.0983 18.3382 90.8293 18.3788C89.9401 18.5133 89.6697 18.4094 89.3668 19.3309L87.323 25.3189C87.2035 25.6606 86.959 26.177 86.959 26.581Z" fill="black"/>
<path d="M88.6471 32.2123C89.2155 32.2123 89.6361 32.3283 89.9087 32.5603C90.1813 32.7923 90.3176 33.1017 90.3176 33.4885C90.3176 33.7398 90.2529 33.9709 90.1233 34.1816C89.9938 34.3924 89.7966 34.5606 89.5317 34.6862C89.2668 34.812 88.9391 34.8748 88.5485 34.8748C88.2623 34.8748 87.9791 34.84 87.6987 34.7704C87.4183 34.7008 87.1776 34.6022 86.9766 34.4745L87.3884 33.6102C87.5508 33.7185 87.7297 33.8017 87.925 33.8597C88.1202 33.9177 88.3165 33.9467 88.5137 33.9467C88.7109 33.9467 88.8685 33.909 88.9864 33.8336C89.1044 33.7582 89.1634 33.6528 89.1634 33.5175C89.1634 33.3821 89.1053 33.2796 88.9893 33.2101C88.8733 33.1404 88.6684 33.1056 88.3745 33.1056H87.2724L87.4754 30.7332H90.0624V31.6207H88.4267L88.3745 32.2123H88.6471ZM92.4407 34.8748C92.0926 34.8748 91.7832 34.7916 91.5125 34.6254C91.2419 34.459 91.0301 34.2165 90.8774 33.8974C90.7246 33.5784 90.6483 33.2003 90.6483 32.7634C90.6483 32.3264 90.7246 31.9484 90.8774 31.6293C91.0301 31.3103 91.2419 31.0677 91.5125 30.9014C91.7832 30.7351 92.0926 30.652 92.4407 30.652C92.7848 30.652 93.0923 30.7351 93.363 30.9014C93.6336 31.0677 93.8454 31.3103 93.9981 31.6293C94.1508 31.9484 94.2272 32.3264 94.2272 32.7634C94.2272 33.2003 94.1508 33.5784 93.9981 33.8974C93.8454 34.2165 93.6336 34.459 93.363 34.6254C93.0923 34.7916 92.7848 34.8748 92.4407 34.8748ZM92.4407 33.9351C92.634 33.9351 92.7877 33.8413 92.9018 33.6538C93.0159 33.4662 93.0729 33.1694 93.0729 32.7634C93.0729 32.3573 93.0159 32.0605 92.9018 31.873C92.7877 31.6855 92.634 31.5917 92.4407 31.5917C92.2434 31.5917 92.0878 31.6855 91.9737 31.873C91.8597 32.0605 91.8026 32.3573 91.8026 32.7634C91.8026 33.1694 91.8597 33.4662 91.9737 33.6538C92.0878 33.8413 92.2434 33.9351 92.4407 33.9351ZM96.1414 32.2123C96.7099 32.2123 97.1304 32.3283 97.403 32.5603C97.6756 32.7923 97.8119 33.1017 97.8119 33.4885C97.8119 33.7398 97.7472 33.9709 97.6177 34.1816C97.4881 34.3924 97.2909 34.5606 97.026 34.6862C96.7611 34.812 96.4334 34.8748 96.0428 34.8748C95.7566 34.8748 95.4734 34.84 95.193 34.7704C94.9126 34.7008 94.6719 34.6022 94.4709 34.4745L94.8827 33.6102C95.0451 33.7185 95.224 33.8017 95.4193 33.8597C95.6145 33.9177 95.8108 33.9467 96.008 33.9467C96.2052 33.9467 96.3628 33.909 96.4808 33.8336C96.5987 33.7582 96.6577 33.6528 96.6577 33.5175C96.6577 33.3821 96.5996 33.2796 96.4836 33.2101C96.3676 33.1404 96.1627 33.1056 95.8688 33.1056H94.7667L94.9697 30.7332H97.5567V31.6207H95.921L95.8688 32.2123H96.1414ZM98.2238 32.717H99.9175V33.5638H98.2238V32.717ZM101.913 32.2123C102.481 32.2123 102.902 32.3283 103.175 32.5603C103.447 32.7923 103.583 33.1017 103.583 33.4885C103.583 33.7398 103.519 33.9709 103.389 34.1816C103.26 34.3924 103.062 34.5606 102.798 34.6862C102.533 34.812 102.205 34.8748 101.814 34.8748C101.528 34.8748 101.245 34.84 100.965 34.7704C100.684 34.7008 100.444 34.6022 100.242 34.4745L100.654 33.6102C100.817 33.7185 100.996 33.8017 101.191 33.8597C101.386 33.9177 101.582 33.9467 101.78 33.9467C101.977 33.9467 102.134 33.909 102.252 33.8336C102.37 33.7582 102.429 33.6528 102.429 33.5175C102.429 33.3821 102.371 33.2796 102.255 33.2101C102.139 33.1404 101.934 33.1056 101.64 33.1056H100.538L100.741 30.7332H103.328V31.6207H101.693L101.64 32.2123H101.913ZM105.707 34.8748C105.359 34.8748 105.049 34.7916 104.778 34.6254C104.508 34.459 104.296 34.2165 104.143 33.8974C103.991 33.5784 103.914 33.2003 103.914 32.7634C103.914 32.3264 103.991 31.9484 104.143 31.6293C104.296 31.3103 104.508 31.0677 104.778 30.9014C105.049 30.7351 105.359 30.652 105.707 30.652C106.051 30.652 106.358 30.7351 106.629 30.9014C106.899 31.0677 107.111 31.3103 107.264 31.6293C107.417 31.9484 107.493 32.3264 107.493 32.7634C107.493 33.2003 107.417 33.5784 107.264 33.8974C107.111 34.2165 106.899 34.459 106.629 34.6254C106.358 34.7916 106.051 34.8748 105.707 34.8748ZM105.707 33.9351C105.9 33.9351 106.054 33.8413 106.168 33.6538C106.282 33.4662 106.339 33.1694 106.339 32.7634C106.339 32.3573 106.282 32.0605 106.168 31.873C106.054 31.6855 105.9 31.5917 105.707 31.5917C105.509 31.5917 105.354 31.6855 105.24 31.873C105.126 32.0605 105.068 32.3573 105.068 32.7634C105.068 33.1694 105.126 33.4662 105.24 33.6538C105.354 33.8413 105.509 33.9351 105.707 33.9351ZM109.407 32.2123C109.976 32.2123 110.396 32.3283 110.669 32.5603C110.941 32.7923 111.078 33.1017 111.078 33.4885C111.078 33.7398 111.013 33.9709 110.884 34.1816C110.754 34.3924 110.557 34.5606 110.292 34.6862C110.027 34.812 109.699 34.8748 109.309 34.8748C109.022 34.8748 108.739 34.84 108.459 34.7704C108.179 34.7008 107.938 34.6022 107.737 34.4745L108.149 33.6102C108.311 33.7185 108.49 33.8017 108.685 33.8597C108.88 33.9177 109.077 33.9467 109.274 33.9467C109.471 33.9467 109.629 33.909 109.747 33.8336C109.865 33.7582 109.924 33.6528 109.924 33.5175C109.924 33.3821 109.866 33.2796 109.75 33.2101C109.634 33.1404 109.429 33.1056 109.135 33.1056H108.033L108.236 30.7332H110.823V31.6207H109.187L109.135 32.2123H109.407Z" fill="black"/>
<path fill-rule="evenodd" clip-rule="evenodd" d="M87.1007 28.7588H111.34C111.417 28.7588 111.48 28.8217 111.48 28.8985V29.7186C111.48 29.7954 111.417 29.8582 111.34 29.8582H87.1007C87.0238 29.8582 86.9609 29.7954 86.9609 29.7186V28.8985C86.9609 28.8217 87.0238 28.7588 87.1007 28.7588Z" fill="black"/>
</svg>
