<svg width="53" height="53" viewBox="0 0 53 53" fill="none" xmlns="http://www.w3.org/2000/svg">
<circle cx="26.5" cy="26.5" r="26.5" fill="#E93333"/>
<path d="M29.5585 30.31H24.1245V32.856H33.0545V35.82H24.1245V40H19.7545V35.82H16.7145V32.856H19.7545V30.31H16.7145V26.396H19.7545V13.4H29.5585C31.9652 13.4 34.0045 14.236 35.6765 15.908C37.3485 17.5293 38.1845 19.5433 38.1845 21.95C38.1845 24.306 37.3485 26.2947 35.6765 27.916C34.0045 29.512 31.9652 30.31 29.5585 30.31ZM29.5585 17.504H24.1245V26.396H29.5585C30.7745 26.396 31.7752 25.9653 32.5605 25.104C33.3965 24.2427 33.8145 23.1913 33.8145 21.95C33.8145 20.7087 33.3965 19.6573 32.5605 18.796C31.7752 17.9347 30.7745 17.504 29.5585 17.504Z" fill="white"/>
</svg>
