<svg width="97" height="22" fill="none" xmlns="http://www.w3.org/2000/svg"><path d="M16.388.991H4.739a4.38 4.38 0 00-3.116 1.3A4.44 4.44 0 00.332 5.43v11.73a4.464 4.464 0 001.29 3.138 4.406 4.406 0 003.118 1.3h11.648a4.38 4.38 0 003.116-1.3 4.44 4.44 0 001.291-3.139V5.43a4.463 4.463 0 00-1.29-3.138 4.405 4.405 0 00-3.117-1.3z" fill="#fff"/><path d="M5.212 2.429c-.158 0-.31.05-.422.14a.435.435 0 00-.175.34c0 .126.063.248.176.338.111.09.264.14.423.14.158 0 .31-.05.423-.14a.435.435 0 00.174-.34.44.44 0 00-.176-.339.68.68 0 00-.423-.14zm10.7 0a.68.68 0 00-.421.14.435.435 0 00-.175.34c0 .126.063.248.175.338.112.09.265.14.424.14.158 0 .31-.05.422-.14a.436.436 0 00.175-.34.438.438 0 00-.176-.339.68.68 0 00-.423-.14z" fill="#fff"/><path d="M5.109 2.908c-.202.011-.192.307-.192.307 1.087 2.132 3.088 3.176 5.396 3.177 2.306-.004 4.327-1.06 5.412-3.188 0 0 .044-.401-.38-.263-1.113 1.859-2.984 2.957-5.03 2.96-2.05.001-3.914-1.086-5.03-2.947a.366.366 0 00-.176-.046zm7.357 8.283l-.62 1.855-.6-1.853h-.589l.95 2.695h.457l.62-1.77.618 1.77h.462l.946-2.695h-.573l-.603 1.853-.618-1.855h-.45zm-3.285 0l-1.2 2.695h.564l.232-.521.016-.04h1.246l.245.561h.58l-1.19-2.678-.01-.016h-.483zm8.69 0v2.694h.545v-2.692h-.546v-.001zm-15.635.002v2.696h.552v-1.095h1.248v1.095h.553v-2.696h-.552v1.088H2.789v-1.088h-.553zm4.911 0v1.544c0 .438-.22.672-.619.672-.402 0-.622-.24-.622-.69v-1.524h-.554v1.542c0 .758.426 1.193 1.169 1.193.749 0 1.178-.443 1.178-1.216v-1.52h-.552zm8.01.001v2.693h2.056v-.49h-1.512v-.669h1.005v-.49H15.7v-.552h1.46v-.49l-2.005-.002zm-5.742.68l.394.903.027.063H9l.026-.063.389-.902z" fill="#000"/><path fill-rule="evenodd" clip-rule="evenodd" d="M29.046 6.586c-.43-.169-.688-.422-.861-.844-.172-.338-.258-.76-.258-1.266s.086-1.013.258-1.434c.258-.423.517-.675.861-.929a3.635 3.635 0 011.378-.253c.517 0 .947.084 1.292.253.43.254.689.506.861.929.173.337.259.843.259 1.35.005.463-.083.922-.259 1.35-.258.337-.516.675-.947.843-.344.254-.775.338-1.292.338s-.947-.084-1.292-.337zm41.684-2.11c.173.084.259.253.431.422.086.169.172.337.172.59 0 .254-.086.507-.258.76-.172.169-.345.337-.603.422-.258.169-.603.169-.947.169h-1.637V1.86h1.55c.517 0 .947.169 1.206.337.259.169.345.507.345.845a.944.944 0 01-.259.674c-.086.338-.345.423-.603.507.173.084.431.169.603.253zm-1.981-.506h.518c.171 0 .344 0 .43-.085l.345-.337c.085-.169.085-.254.085-.422 0-.169 0-.337-.172-.422-.172-.169-.43-.169-.688-.169h-.518V3.97zm1.378 2.025c.173-.085.345-.338.345-.59 0-.254-.172-.423-.345-.591-.172-.169-.43-.254-.86-.254h-.518v1.688h.603c.345 0 .603-.084.775-.253zM61.773 1.86h2.928l-.085.76h-1.981v1.434h1.894v.59h-1.894v1.52H64.7l-.085.674h-2.843V1.86zm-3.186.76h-1.55l.086-.76h3.875l-.086.76h-1.464v4.219h-.861v-4.22zm-3.015 4.219V2.957L53.075 6.84h-.947V1.86h.775v3.882L55.4 1.86h.946v4.98h-.775zm-1.98-5.401c-.173-.084-.344-.169-.431-.337-.086-.169-.086-.337-.172-.422h.689c0 .337.258.506.603.506s.602-.17.689-.506h.602c0 .084-.086.253-.171.422-.087.168-.259.253-.431.337-.173.169-.43.169-.69.169-.258 0-.516 0-.689-.169zm-6.374 5.148a1.52 1.52 0 01-.775-.843c-.258-.338-.344-.76-.344-1.266s.086-1.013.344-1.435c.173-.422.517-.675.861-.928a3.635 3.635 0 011.378-.253c.517 0 1.034.084 1.378.253.345.253.603.506.862.928.171.337.258.844.258 1.35 0 .506-.087.928-.345 1.35-.172.337-.43.675-.86.844-.431.253-.948.338-1.465.338-.517 0-.947-.085-1.292-.338zm2.24-.59c.344-.169.517-.338.602-.591.173-.338.173-.59.173-1.013 0-.337 0-.675-.086-1.013-.172-.253-.258-.505-.603-.674-.259-.17-.517-.254-.948-.254-.344 0-.602.085-.862.253-.257.254-.43.422-.516.675-.172.338-.172.675-.172 1.013 0 .337 0 .675.172.928.086.338.259.507.517.676.258.168.517.253.861.253a1.48 1.48 0 00.862-.253zm-7.15-4.135h1.293c.689 0 1.12.168 1.464.422.345.253.517.59.517 1.096 0 .338-.086.675-.172.929-.173.253-.43.421-.69.59a2.706 2.706 0 01-.947.17c-.172 0-.344 0-.602-.085v1.856h-.862V1.861zm2.155 2.278c.171-.168.258-.422.258-.76a.95.95 0 00-.258-.674c-.173-.085-.517-.17-.862-.17h-.43v1.857h.43c.43 0 .689-.084.862-.253zm-2.843 2.7h-.947L39.209 4.73h-.603v2.11h-.861V1.86h.861v2.11h.43l1.034-1.519c.172-.253.345-.337.43-.506.173-.084.345-.084.604-.084.172 0 .344 0 .516.084l-.172.59h-.258c-.087 0-.173 0-.259.085-.086 0-.172.084-.258.254l-.862 1.35 1.81 2.615zM34.644 2.62h-1.55v-.76h3.875v.76h-1.55v4.22h-.775V2.62zm-3.445 3.376c.258-.169.43-.338.603-.591.086-.338.172-.59.172-1.013 0-.337-.086-.675-.172-1.013a1.314 1.314 0 00-.516-.674 1.476 1.476 0 00-.862-.254c-.345 0-.689.085-.947.253-.173.254-.344.422-.517.675-.087.338-.172.675-.172 1.013 0 .337.086.675.172.928.086.338.258.507.517.676.258.168.516.253.861.253s.689-.085.861-.253zm3.186 10.703h-3.843l-.98 2.375h-1.636l3.679-9.04h1.635l3.842 9.04h-1.798l-.9-2.375zm55.75 5.134c-.244-.076-.49-.076-.653-.153l.327-1.073c.163 0 .245 0 .408.077h.491c.735 0 1.226-.46 1.635-1.303l.082-.23-2.616-6.819h1.717l1.39 3.831c.163.613.326 1.15.408 1.455.081-.459.246-.919.409-1.455l1.307-3.83h1.717l-2.616 6.818c-.327.69-.572 1.15-.817 1.533-.328.46-.654.69-1.063.919-.409.153-.818.306-1.39.306-.245 0-.49-.076-.736-.076zm-5.313-7.815v-1.686h1.472c.082.153.082.383.082.69.08.23.08.46.08.612.165-.306.328-.535.573-.765.164-.154.409-.383.654-.46.164-.153.491-.23.818-.23.245 0 .408 0 .654.077l-.246 1.38c-.163-.078-.326-.078-.49-.078-.409 0-.736.077-1.063.23-.245.23-.572.537-.9.92v4.367h-1.634v-5.057zm-1.307 1.915h-4.66c.081 1.38.817 2.069 2.125 2.069.327 0 .736 0 1.063-.076.327-.077.654-.154.98-.307l.41 1.073c-.818.306-1.717.535-2.78.535-.735 0-1.308-.152-1.88-.382-.49-.306-.9-.69-1.144-1.226-.246-.46-.409-1.073-.409-1.762 0-.843.163-1.456.409-1.992.245-.537.653-.996 1.144-1.226.49-.306 1.063-.46 1.717-.46.654 0 1.226.153 1.716.46.427.316.765.738.981 1.226.245.46.328.996.328 1.608v.46zm-1.554-1.072c-.082-.537-.245-.92-.49-1.15-.245-.306-.573-.383-.981-.383-.409 0-.736.077-1.063.383-.245.23-.409.69-.49 1.15h3.024zm-8.093 2.604V9.498l1.635-.077v7.815c0 .23 0 .46.164.613.082.077.245.153.49.153.081 0 .246-.076.409-.076l.163 1.072c-.163.076-.326.153-.572.153-.163.077-.408.077-.572.077-1.144 0-1.717-.613-1.717-1.763zm-4.087 0V9.498l1.635-.077v7.815c0 .23.081.46.164.613.081.077.245.153.49.153.081 0 .245-.076.409-.076l.245 1.072c-.164.076-.409.153-.573.153-.245.077-.49.077-.654.077-1.143 0-1.716-.613-1.716-1.763zm-2.943 1.61c0-.23-.082-.537-.082-.843-.245.23-.572.46-.98.69-.41.152-.819.305-1.39.305a2.388 2.388 0 01-1.063-.23c-.328-.152-.654-.382-.817-.689-.328-.306-.409-.689-.409-1.149 0-.613.327-1.149.817-1.609.49-.383 1.39-.613 2.534-.613.409 0 .817.077 1.308.154v-.154c0-.612-.163-.996-.409-1.226-.245-.306-.653-.383-1.144-.383-.409 0-.735 0-1.144.154-.41.076-.736.23-1.063.306l-.245-1.073c.326-.153.654-.23 1.144-.383.49-.076.981-.153 1.553-.153.573 0 1.145.077 1.553.306.409.154.736.46.981.844.245.46.41 1.072.41 1.762v3.984h-1.554zm-.9-1.226c.327-.153.573-.384.818-.537V16.01h-1.144c-.654 0-1.144.077-1.39.23-.245.23-.409.537-.409.843 0 .382.164.612.327.766.163.153.409.23.736.23s.654-.077 1.063-.23zm-11.035.843c-.736-.384-1.308-.92-1.635-1.61-.409-.689-.572-1.532-.572-2.45 0-1.074.245-1.917.654-2.606.409-.69 1.063-1.226 1.798-1.61.736-.305 1.553-.459 2.534-.459.572 0 1.063 0 1.554.153.49.077.98.23 1.389.46l-.409 1.15c-.899-.383-1.716-.613-2.452-.613-.654 0-1.307.153-1.799.46a2.32 2.32 0 00-1.144 1.148 4.378 4.378 0 00-.408 1.84c0 .689.082 1.302.326 1.838.164.46.573.843.982 1.15.49.305 1.062.459 1.716.459.327 0 .654-.076.982-.076.326-.077.653-.154.898-.23v-1.84H57.11v-1.225h3.76v3.831c-.49.23-1.062.46-1.717.536a6.77 6.77 0 01-1.798.23c-.898 0-1.798-.23-2.452-.536zm-9.564-4.75c0-.46 0-.997-.082-1.61h1.553c.082.306.082.537.163.843.573-.613 1.309-.996 2.126-.996.49 0 .899.153 1.39.383.408.153.653.537.98 1.073.246.46.328 1.072.328 1.838 0 .843-.163 1.533-.41 2.07-.245.536-.735.919-1.225 1.225-.49.306-1.063.46-1.717.46a4.907 4.907 0 01-1.472-.23v2.758l-1.634.154v-7.968zm4.333 3.524c.326-.46.49-1.073.49-1.916 0-.766-.164-1.302-.41-1.609-.326-.383-.654-.536-1.143-.536-.328 0-.573.077-.9.23-.245.153-.49.306-.736.537v3.677c.163.077.328.153.573.153.245.077.408.077.654.077.654 0 1.144-.23 1.471-.613zm-11.854-3.525v-1.609h1.471c.082.306.164.537.164.843.653-.613 1.389-.996 2.125-.996.491 0 .981.153 1.39.383.409.153.736.537.98 1.073.246.46.328 1.072.328 1.838 0 .843-.164 1.533-.41 2.07-.244.536-.654.919-1.143 1.225a3.681 3.681 0 01-1.799.46 4.91 4.91 0 01-1.471-.23v2.758l-1.635.154v-7.968zm4.332 3.525c.328-.46.49-1.073.49-1.916 0-.766-.162-1.302-.408-1.609-.327-.383-.654-.536-1.145-.536-.245 0-.571.077-.817.23a2.94 2.94 0 00-.817.537v3.677c.164.077.408.153.572.153.245.077.409.077.654.077.654 0 1.145-.23 1.471-.613zm-11.199-2.069h2.943l-1.063-2.605c-.163-.306-.245-.69-.409-1.149-.163.383-.245.766-.408 1.15l-1.063 2.604z" fill="#fff"/></svg>