<svg width="82" height="23" fill="none" xmlns="http://www.w3.org/2000/svg"><mask id="a" style="mask-type:alpha" maskUnits="userSpaceOnUse" x="0" y="1" width="21" height="21"><path d="M6.3 1.108h7.908c2.183 0 2.975.229 3.772.66a4.464 4.464 0 011.851 1.863c.427.803.654 1.6.654 3.799v7.964c0 2.198-.227 2.995-.654 3.798a4.463 4.463 0 01-1.85 1.864c-.798.43-1.59.659-3.773.659H6.3c-2.182 0-2.974-.23-3.772-.659a4.465 4.465 0 01-1.85-1.864c-.428-.803-.655-1.6-.655-3.798V7.43c0-2.198.227-2.996.654-3.799a4.465 4.465 0 011.851-1.864c.798-.43 1.59-.659 3.772-.659z" fill="#fff"/></mask><g mask="url(#a)"><path d="M6.3 1.108h7.908c2.183 0 2.975.229 3.772.66a4.464 4.464 0 011.851 1.863c.427.803.654 1.6.654 3.799v7.964c0 2.198-.227 2.995-.654 3.798a4.463 4.463 0 01-1.85 1.864c-.798.43-1.59.659-3.773.659H6.3c-2.182 0-2.974-.23-3.772-.659a4.465 4.465 0 01-1.85-1.864c-.428-.803-.655-1.6-.655-3.798V7.43c0-2.198.227-2.996.654-3.799a4.465 4.465 0 011.851-1.864c.798-.43 1.59-.659 3.772-.659z" fill="#fff"/><path fill-rule="evenodd" clip-rule="evenodd" d="M14.672 24.488H-.706a2.02 2.02 0 01-1.433-.598 2.049 2.049 0 01-.593-1.444v-4.151l5.646-5.724 11.758 11.917z" fill="#00E691"/><path fill-rule="evenodd" clip-rule="evenodd" d="M18.168 10.454L6.216-1.666h14.998a2.016 2.016 0 011.434.6A2.043 2.043 0 0123.24.378V5.31l-5.072 5.144z" fill="#0CF"/><path fill-rule="evenodd" clip-rule="evenodd" d="M21.211 24.466h-4.147l-5.345-5.404L23.241 7.414v15.011a2.053 2.053 0 01-.596 1.444 2.02 2.02 0 01-1.434.598z" fill="#8F61FF"/><path fill-rule="evenodd" clip-rule="evenodd" d="M-2.732 15.883V.376c0-.542.214-1.06.594-1.443a2.02 2.02 0 011.433-.598h4.792l5.261 5.323-12.08 12.225z" fill="#FF5C69"/><path d="M9.73 13.79V7.846h1.048v5.944H9.73z" fill="#00E08A"/></g><mask id="b" style="mask-type:alpha" maskUnits="userSpaceOnUse" x="0" y="1" width="21" height="21"><path d="M6.3 1.108h7.908c2.183 0 2.975.229 3.772.66a4.464 4.464 0 011.851 1.863c.427.803.654 1.6.654 3.799v7.964c0 2.198-.227 2.995-.654 3.798a4.463 4.463 0 01-1.85 1.864c-.798.43-1.59.659-3.773.659H6.3c-2.182 0-2.974-.23-3.772-.659a4.465 4.465 0 01-1.85-1.864c-.428-.803-.655-1.6-.655-3.798V7.43c0-2.198.227-2.996.654-3.799a4.465 4.465 0 011.851-1.864c.798-.43 1.59-.659 3.772-.659z" fill="#fff"/></mask><g mask="url(#b)"><path fill-rule="evenodd" clip-rule="evenodd" d="M6.828 11.58l.727-.733 2.699 2.717 2.699-2.717.727.732-3.426 3.45-3.426-3.45z" fill="#0FCFFF"/></g><path d="M29.011 2.954h.622a.772.772 0 00.608-.181.8.8 0 00.277-.582c0-.447-.326-.732-.874-.732a.813.813 0 00-.628.171.846.846 0 00-.314.58h-.686a1.49 1.49 0 01.314-.847c.189-.242.449-.42.743-.507.191-.06.393-.075.592-.045.92 0 1.569.526 1.569 1.287a1.098 1.098 0 01-.847 1.098v.055c.288.016.559.146.755.361.194.22.297.506.287.802a1.757 1.757 0 01-.182.606 1.713 1.713 0 01-.4.487 1.557 1.557 0 01-.547.286 4.232 4.232 0 01-1.234.01 1.629 1.629 0 01-.957-.772c-.1-.19-.162-.398-.183-.612h.696c.044.46.454.757 1.061.757s1.002-.33 1.002-.803c0-.471-.375-.767-1.027-.767h-.641l-.006-.652zm3.203 1.75c0-.652.474-1.028 1.313-1.084l.957-.055V3.25c0-.38-.247-.597-.726-.597-.385 0-.656.146-.735.406h-.67c.068-.626.64-1.023 1.438-1.023.888 0 1.387.451 1.387 1.219V5.73h-.672v-.51h-.058a1.16 1.16 0 01-1.056.567 1.1 1.1 0 01-.443-.046 1.066 1.066 0 01-.38-.231 1.012 1.012 0 01-.262-.366 1.137 1.137 0 01-.093-.44zm2.27-.311v-.306l-.864.058c-.488.03-.705.2-.705.522 0 .321.276.517.65.517a.824.824 0 00.331-.035.885.885 0 00.292-.16.852.852 0 00.207-.272.913.913 0 00.088-.326v.002zm2.542-1.69v3.023h-.696V2.1h2.324v.602l-1.628.002zm5.847 1.208c0 1.154-.568 1.875-1.456 1.875a1.123 1.123 0 01-.632-.14 1.147 1.147 0 01-.454-.467h-.054v1.755h-.7V2.101h.67v.602h.055a1.2 1.2 0 011.104-.657c.9-.005 1.467.717 1.467 1.865zm-.716 0c0-.761-.355-1.229-.942-1.229-.588 0-.952.477-.952 1.234 0 .758.364 1.228.947 1.228.592 0 .947-.46.947-1.233zM43.8 7.025v-.617c.075.01.151.016.227.016a.612.612 0 00.642-.507l.05-.18-1.279-3.635h.76l.888 2.878h.05l.883-2.878h.74l-1.318 3.775c-.3.882-.636 1.163-1.352 1.163-.097 0-.194-.005-.29-.015zM47.298 4.7h.696c.07.32.36.486.765.486.464 0 .749-.211.749-.537 0-.35-.257-.516-.749-.516h-.527v-.557h.517c.425 0 .637-.165.637-.47 0-.267-.207-.469-.637-.469-.384 0-.67.171-.715.456h-.671c.048-.329.221-.625.483-.827.26-.195.583-.28.903-.233.839 0 1.317.386 1.317.997a.747.747 0 01-.147.476.709.709 0 01-.403.266v.058a.778.778 0 01.493.271c.128.15.196.344.193.542 0 .692-.568 1.149-1.44 1.149-.772 0-1.4-.36-1.464-1.092zm3.91 1.03V2.101h.69v2.497h.054l1.624-2.497h.691v3.627h-.691V3.222h-.05l-1.628 2.507h-.69zm6.863-3.025h-1.113v3.022h-.696V2.704h-1.11v-.602h2.92v.602zm3.75 2.045c-.094.329-.3.614-.582.807-.277.19-.613.276-.947.24a1.572 1.572 0 01-.676-.135 1.642 1.642 0 01-.562-.41 1.648 1.648 0 01-.336-.621 4.62 4.62 0 010-1.414 1.69 1.69 0 01.336-.617c.153-.18.343-.324.558-.421.211-.1.442-.15.676-.146.982 0 1.578.687 1.578 1.825v.25h-2.491v.04a.957.957 0 00.557.963c.121.05.25.075.38.075a.806.806 0 00.484-.09.86.86 0 00.355-.35l.67.004zm-2.452-1.17h1.781a.857.857 0 00-.232-.668.75.75 0 00-.291-.205.815.815 0 00-.346-.066.853.853 0 00-.646.271.839.839 0 00-.198.306.91.91 0 00-.068.361zm5.403-1.477h1.589c.69 0 1.094.36 1.094.922a.772.772 0 01-.597.767v.055a.82.82 0 01.755.837c0 .632-.46 1.043-1.234 1.043H64.77l.002-3.624zm.69.55v.938h.692c.42 0 .622-.166.622-.472 0-.286-.178-.469-.548-.469l-.765.004zm0 1.463V5.18h.824c.415 0 .634-.186.634-.532 0-.361-.247-.531-.72-.531h-.737zM34.49 12.75a2.51 2.51 0 00-.319-.682 2.08 2.08 0 00-.479-.523 1.916 1.916 0 00-.636-.324 2.599 2.599 0 00-.783-.114c-.508 0-.959.13-1.356.39-.396.262-.707.645-.935 1.15-.224.502-.337 1.114-.337 1.837 0 .728.113 1.345.337 1.85.224.506.537.89.935 1.154.4.26.864.39 1.392.39.48 0 .895-.093 1.245-.282a1.97 1.97 0 00.815-.8c.191-.349.286-.757.286-1.224l.387.06H32.48v-1.365h3.83v1.159c0 .825-.172 1.54-.516 2.142a3.562 3.562 0 01-1.42 1.394c-.602.323-1.293.485-2.074.485-.87 0-1.633-.2-2.29-.598-.655-.402-1.166-.971-1.535-1.71-.366-.74-.549-1.62-.549-2.636 0-.78.108-1.474.323-2.087a4.526 4.526 0 01.913-1.558c.38-.424.85-.758 1.373-.98a4.29 4.29 0 011.715-.339 4.43 4.43 0 011.46.235c.438.146.845.37 1.204.66a3.625 3.625 0 011.318 2.316H34.49zm6.534 6.707c-.71 0-1.323-.151-1.84-.453A3.037 3.037 0 0138 17.713c-.277-.559-.415-1.216-.415-1.973 0-.744.138-1.397.416-1.959a3.18 3.18 0 011.17-1.319c.5-.317 1.09-.475 1.765-.475.436 0 .848.072 1.235.217.39.14.735.36 1.033.658.3.299.538.679.71 1.14.172.458.257 1.005.257 1.64v.522H38.37v-1.15h4.203a1.864 1.864 0 00-.207-.87 1.529 1.529 0 00-1.406-.83 1.6 1.6 0 00-.899.255c-.255.163-.463.39-.603.66a1.93 1.93 0 00-.217.89v1.002c0 .421.075.782.226 1.084.15.298.36.527.631.687.27.157.587.236.95.236.224.003.446-.032.659-.104.196-.072.367-.177.511-.316a1.31 1.31 0 00.328-.513l1.557.179c-.092.41-.285.788-.562 1.102a2.737 2.737 0 01-1.05.725c-.428.17-.916.255-1.466.255zm8.094-7.375V13.4h-4.07v-1.32h4.07v.001zm-3.065-1.733h1.668v6.79c0 .23.034.406.101.528a.55.55 0 00.277.245c.114.044.24.066.378.066.104 0 .2-.008.285-.024.09-.015.158-.03.204-.042l.28 1.332a3.325 3.325 0 01-.382.104c-.162.038-.362.06-.599.066a2.659 2.659 0 01-1.129-.193 1.766 1.766 0 01-.797-.668c-.194-.302-.289-.68-.286-1.13v-7.075zm5.746 8.967h-1.825l3.323-9.645h2.11l3.329 9.644H56.91l-2.52-7.666h-.075L51.8 19.314zm.06-3.783h4.978v1.404h-4.978v-1.403zm8.046 6.495V12.08h1.64v1.196h.097a3.18 3.18 0 01.364-.56c.174-.215.39-.39.636-.514.267-.144.609-.216 1.024-.216.546 0 1.04.142 1.479.428.443.283.792.702 1.05 1.257.262.553.393 1.231.393 2.035 0 .794-.128 1.469-.383 2.025-.255.556-.602.98-1.042 1.271a2.633 2.633 0 01-1.493.439c-.405 0-.742-.07-1.01-.208a2.054 2.054 0 01-.644-.5 3.191 3.191 0 01-.373-.56h-.07v3.853h-1.668zm1.636-6.33c0 .469.064.878.193 1.23.132.351.322.626.568.824.248.194.55.292.903.292.369 0 .677-.1.926-.302a1.86 1.86 0 00.562-.833c.13-.355.194-.759.194-1.21 0-.45-.063-.848-.19-1.196a1.79 1.79 0 00-.562-.82c-.248-.198-.558-.297-.93-.297-.357 0-.659.096-.908.287-.249.192-.438.46-.567.806-.126.345-.19.752-.19 1.22zm6.475 6.33V12.08h1.64v1.196h.098c.086-.176.207-.362.364-.56.173-.215.39-.39.636-.514.267-.144.608-.216 1.023-.216.547 0 1.04.142 1.48.428.442.283.792.702 1.05 1.257.261.553.392 1.231.392 2.035 0 .794-.127 1.469-.382 2.025-.255.556-.602.98-1.042 1.271a2.633 2.633 0 01-1.493.439c-.406 0-.742-.07-1.01-.208a2.054 2.054 0 01-.645-.5 3.197 3.197 0 01-.373-.56h-.07v3.853h-1.668zm1.636-6.33c0 .469.065.878.194 1.23.132.351.321.626.567.824.249.194.55.292.903.292.369 0 .678-.1.926-.302a1.86 1.86 0 00.563-.833c.129-.355.193-.759.193-1.21 0-.45-.062-.848-.189-1.196a1.79 1.79 0 00-.562-.82c-.249-.198-.559-.297-.931-.297-.356 0-.659.096-.908.287-.249.192-.438.46-.567.806a3.582 3.582 0 00-.189 1.22zm12.07-1.704l-1.52.17a1.267 1.267 0 00-.226-.444 1.13 1.13 0 00-.424-.334 1.522 1.522 0 00-.654-.127c-.347 0-.64.077-.876.231-.233.154-.349.353-.346.598a.63.63 0 00.226.513c.157.132.415.24.775.325l1.207.264c.67.147 1.168.381 1.493.701.33.32.495.74.498 1.258.004.434-.134.857-.392 1.205-.255.346-.61.616-1.065.81-.454.195-.976.293-1.567.293-.866 0-1.563-.186-2.092-.556-.528-.374-.843-.893-.945-1.56l1.627-.159c.074.327.231.573.47.74.24.166.552.25.936.25.396 0 .715-.084.954-.25.243-.167.364-.373.364-.618a.648.648 0 00-.235-.513c-.154-.135-.393-.238-.719-.31l-1.207-.26c-.68-.144-1.181-.387-1.508-.73-.325-.345-.486-.781-.483-1.309a1.883 1.883 0 01.354-1.158c.243-.33.58-.584 1.01-.763.433-.182.933-.273 1.497-.273.83 0 1.483.18 1.96.541.479.361.775.85.888 1.465z" fill="#fff"/></svg>