<svg width="91" height="22" fill="none" xmlns="http://www.w3.org/2000/svg"><path d="M9.343 10.26L.377 19.314l.002.004c.275.984 1.217 1.708 2.337 1.708.449 0 .869-.115 1.23-.318l.028-.016 10.094-5.54-4.725-4.892z" fill="#EA4335"/><path d="M18.414 8.72l-.01-.006-4.356-2.402-4.908 4.155 4.925 4.685 4.335-2.38c.76-.389 1.275-1.15 1.275-2.03 0-.872-.509-1.63-1.26-2.021z" fill="#FBBC04"/><path d="M.377 2.133a2.11 2.11 0 00-.084.593v15.996c0 .204.029.404.084.593l9.274-8.823-9.274-8.36z" fill="#4285F4"/><path d="M9.41 10.723l4.64-4.415L3.97.75A2.528 2.528 0 002.716.42C1.596.42.65 1.145.376 2.13v.003l9.033 8.591z" fill="#34A853"/><path d="M29.022 5.946a2.984 2.984 0 01-1.123-1.13 3.146 3.146 0 01-.409-1.585c0-.579.137-1.108.41-1.586A2.96 2.96 0 0129.022.519a3.108 3.108 0 011.583-.41c.896 0 1.632.325 2.213.977l-.644.624a2.144 2.144 0 00-.69-.55 1.981 1.981 0 00-.87-.183 2.24 2.24 0 00-1.113.28c-.332.187-.597.45-.793.793a2.352 2.352 0 00-.291 1.18c0 .446.098.84.291 1.181.197.343.461.609.793.793.34.19.723.287 1.112.283.679 0 1.248-.283 1.71-.845l.66.635a3.052 3.052 0 01-1.043.793c-.406.188-.85.283-1.335.283-.58 0-1.106-.136-1.583-.407zM34.012.24h.917v2.9h.049L37.36.24h1.15v.052l-2.521 2.99 2.654 2.888v.049h-1.202l-2.463-2.74h-.049v2.74h-.918V.24zm8.906 3.592l-.667-1.835-.226-.684h-.05l-.225.684-.668 1.836h1.836zM41.474.241h1.044L44.78 6.22h-1.01l-.55-1.536h-2.438l-.55 1.536H39.22L41.474.24zm6.764 3.316c-.374.328-.832.493-1.38.493a2.17 2.17 0 01-.98-.222 1.654 1.654 0 01-.687-.638c-.169-.28-.25-.608-.25-.985V.24h.926v1.803c0 .364.106.643.316.839.212.198.496.299.853.299.484 0 .885-.19 1.202-.568V.241h.91V6.22h-.91V3.557zm5.417.276l-.668-1.835-.223-.684h-.052l-.224.684-.67 1.836h1.837zM52.21.241h1.044l2.264 5.979h-1.01l-.55-1.536h-2.44l-.55 1.536h-1.011L52.21.24zm4.861.869h-1.678V.241h4.267v.869h-1.67v5.11h-.919V1.11zm5.794 4.25c.218 0 .409-.05.574-.15.17-.1.298-.234.385-.396a1.08 1.08 0 000-1.046 1.034 1.034 0 00-.385-.399 1.063 1.063 0 00-.574-.155h-1.336V5.36h1.336zM60.61.24h.918v2.13h1.27c.37 0 .717.078 1.035.23a1.817 1.817 0 011.042 1.691c0 .389-.093.73-.284 1.021a1.85 1.85 0 01-.758.673 2.34 2.34 0 01-1.035.234H60.61V.24zm7.22 0h.91v3.307L68.694 4.7h.049l2.68-4.459h1.044V6.22h-.91V2.83l.049-1.152h-.05L68.835 6.22h-1.002V.24zm6.435 5.729c-.377-.258-.632-.635-.774-1.135l.844-.334c.072.31.213.557.423.733.207.18.455.269.738.269.305 0 .567-.098.785-.29a.905.905 0 00.325-.712.874.874 0 00-.159-.507 1.114 1.114 0 00-.433-.362 1.358 1.358 0 00-.602-.133h-.493v-.804h.444c.3 0 .55-.08.752-.243a.822.822 0 00.3-.666.767.767 0 00-.28-.608 1.024 1.024 0 00-.699-.244.932.932 0 00-.632.225 1.166 1.166 0 00-.36.535l-.809-.334c.115-.329.33-.62.638-.871.307-.253.7-.38 1.171-.38.363 0 .684.07.965.212.284.143.502.336.66.585.16.248.24.527.24.84 0 .578-.254 1.007-.761 1.284v.051a1.7 1.7 0 01.692.56c.18.243.267.543.267.893.004.327-.087.649-.261.926-.178.28-.427.506-.722.657-.319.16-.671.24-1.028.236a2.14 2.14 0 01-1.231-.383zm-26.702 6.377a3.136 3.136 0 00-2.41 1.15 3.118 3.118 0 00-.642 2.586 3.12 3.12 0 001.479 2.03 3.135 3.135 0 004.71-2.592 3.116 3.116 0 00-.222-1.263 3.055 3.055 0 00-.683-1.016 2.994 2.994 0 00-1.024-.676 3.084 3.084 0 00-1.208-.219zm0 5.012a1.902 1.902 0 01-1.944-1.338 1.889 1.889 0 01.866-2.191 1.904 1.904 0 011.639-.125 1.907 1.907 0 011.202 1.758c.014.243-.023.485-.106.712-.084.226-.21.433-.372.61a1.833 1.833 0 01-1.285.574zm-6.854-5.012a3.132 3.132 0 00-2.885 1.931 3.112 3.112 0 00.684 3.397 3.13 3.13 0 005.335-2.212 3.16 3.16 0 00-.224-1.204 3.12 3.12 0 00-1.707-1.693 3.082 3.082 0 00-1.208-.22l.005.001zm0 5.012a1.898 1.898 0 01-1.954-1.33 1.892 1.892 0 011.389-2.406c.372-.083.76-.055 1.116.081a1.903 1.903 0 011.206 1.76c.014.242-.022.484-.106.711-.083.226-.21.433-.372.61a1.835 1.835 0 01-1.285.573l.006.001zm-8.163-4.051v1.322h3.18a2.77 2.77 0 01-.734 1.667 3.37 3.37 0 01-1.121.742 3.216 3.216 0 01-1.33.223 3.49 3.49 0 01-1.35-.27 3.402 3.402 0 01-1.147-.761 3.485 3.485 0 01-.77-1.145 3.558 3.558 0 010-2.694c.178-.428.44-.817.77-1.144.326-.33.717-.59 1.147-.763a3.522 3.522 0 011.35-.268 3.384 3.384 0 012.405.944l.938-.935a4.656 4.656 0 00-3.337-1.372 4.84 4.84 0 00-1.917.315 4.853 4.853 0 00-3.144 4.537 4.843 4.843 0 003.144 4.536 4.837 4.837 0 001.917.31c.6.035 1.2-.055 1.763-.264a4.289 4.289 0 002.777-4.189 4.087 4.087 0 00-.072-.83l-4.469.039zm33.346 1.026a2.89 2.89 0 00-2.271-1.909 2.899 2.899 0 00-2.76 1.092 2.877 2.877 0 00-.589 1.944 3.06 3.06 0 001.906 2.897 3.267 3.267 0 002.68-.137c.455-.24.842-.589 1.126-1.016l-1.065-.737a1.825 1.825 0 01-.657.635 1.74 1.74 0 01-.882.23 1.586 1.586 0 01-1.519-.946l4.19-1.724-.159-.329zm-4.265 1.042a1.77 1.77 0 01.087-.67c.076-.215.194-.412.347-.58a1.676 1.676 0 011.197-.57c.238-.014.475.04.682.158a1.2 1.2 0 01.48.503l-2.793 1.16zM58.223 18.4H59.6V9.226h-1.376V18.4zm-2.252-5.358h-.051a2.213 2.213 0 00-1.645-.737 3.136 3.136 0 00-2.983 3.127 3.128 3.128 0 002.983 3.126 2.146 2.146 0 001.646-.737h.045v.446c0 1.2-.642 1.835-1.67 1.835a1.696 1.696 0 01-.952-.315 1.712 1.712 0 01-.622-.793l-1.197.498a2.983 2.983 0 002.77 1.846c1.616 0 2.946-.945 2.946-3.253V12.53h-1.265l-.005.513zm-1.575 4.315a1.905 1.905 0 01-1.735-1.894 1.9 1.9 0 011.735-1.893c.236.01.467.069.678.172a1.745 1.745 0 01.907 1.027c.077.222.107.458.087.691a1.732 1.732 0 01-.993 1.729 1.776 1.776 0 01-.684.168h.005zM72.34 9.226h-3.286V18.4h1.375v-3.477h1.921a2.855 2.855 0 002.15-.763 2.802 2.802 0 00.913-2.087c0-.392-.08-.779-.235-1.14a2.866 2.866 0 00-1.672-1.549 2.8 2.8 0 00-1.156-.158l-.01-.001zm0 4.406h-1.92v-3.13h1.952c.208 0 .414.04.606.122.191.077.365.193.51.34a1.549 1.549 0 01.463 1.113c0 .207-.041.413-.119.605a1.643 1.643 0 01-.856.854 1.65 1.65 0 01-.606.119l-.03-.023zm8.49-1.32a2.572 2.572 0 00-2.451 1.402l1.223.508c.117-.224.3-.407.525-.524a2.21 2.21 0 011.243-.111 1.322 1.322 0 01.952 1.139v.097a3 3 0 00-1.432-.352c-1.32 0-2.65.732-2.65 2.06a2.127 2.127 0 002.278 2.023 1.96 1.96 0 001.004-.205c.313-.152.577-.388.765-.68h.046v.737h1.325v-3.533c0-1.61-1.223-2.541-2.795-2.541l-.033-.02zm-.173 5.026c-.448 0-1.07-.228-1.07-.778 0-.736.78-.976 1.468-.976.437-.01.87.096 1.254.305a1.656 1.656 0 01-1.61 1.469l-.042-.02zm7.827-4.808l-1.574 3.98h-.046l-1.635-3.98h-1.473l2.452 5.565-1.397 3.091h1.437l3.766-8.658-1.53.002zM76.111 18.4h1.376V9.227H76.11V18.4z" fill="#fff"/></svg>