<svg width="86" height="23" fill="none" xmlns="http://www.w3.org/2000/svg"><path d="M14.334 12.816c.008-.772.218-1.53.612-2.204a4.606 4.606 0 011.632-1.648c-.433-.6-1-1.092-1.657-1.436a4.984 4.984 0 00-2.148-.57c-1.602-.162-3.151.937-3.967.937-.835 0-2.088-.92-3.439-.89-.873.03-1.725.28-2.477.725a4.978 4.978 0 00-1.784 1.807C-.736 12.64.637 17.21 2.402 19.725c.888 1.233 1.92 2.603 3.27 2.557 1.32-.052 1.813-.82 3.41-.82 1.578 0 2.04.82 3.42.79 1.417-.022 2.312-1.236 3.163-2.48a9.995 9.995 0 001.447-2.868 4.562 4.562 0 01-2.023-1.637 4.362 4.362 0 01-.756-2.452v.002zm-2.19-8.413c.826-.995 1.392-2.35 1.235-3.724-1.196.05-2.691.796-3.552 1.77-.762.859-1.443 2.265-1.267 3.588 1.343.096 2.722-.653 3.585-1.634zm15.44-1.254h.627a.785.785 0 00.814-.443c.048-.1.075-.21.078-.32 0-.447-.329-.732-.88-.732a.826.826 0 00-.851.43.832.832 0 00-.1.32h-.691a1.483 1.483 0 011.065-1.353 1.34 1.34 0 01.597-.045c.928 0 1.582.526 1.582 1.287a1.102 1.102 0 01-.854 1.098v.055c.29.016.564.146.761.361.196.22.3.507.29.802a1.747 1.747 0 01-.184.606 1.717 1.717 0 01-.402.487 1.574 1.574 0 01-.552.286 4.302 4.302 0 01-1.244.01 1.64 1.64 0 01-.966-.772c-.1-.19-.163-.398-.184-.612h.701c.045.46.459.757 1.07.757.612 0 1.01-.33 1.01-.803 0-.471-.377-.766-1.034-.766h-.647l-.006-.653zm3.23 1.75c0-.652.477-1.028 1.323-1.084l.965-.055v-.316c0-.38-.249-.597-.731-.597-.389 0-.662.146-.742.406h-.676c.069-.626.646-1.023 1.45-1.023.896 0 1.399.451 1.399 1.219v2.476h-.678v-.51h-.058A1.187 1.187 0 0132 5.98c-.15.015-.302 0-.447-.045a1.077 1.077 0 01-.383-.231 1.013 1.013 0 01-.264-.366 1.13 1.13 0 01-.094-.44zm2.288-.311v-.306l-.87.058c-.494.031-.712.2-.712.522 0 .321.279.517.656.517a.837.837 0 00.836-.467.908.908 0 00.09-.326v.002zm2.563-1.69v3.023h-.702V2.295h2.344v.602l-1.642.002zm5.895 1.208c0 1.154-.572 1.875-1.468 1.875a1.14 1.14 0 01-1.095-.607h-.054V7.13h-.707V2.296h.678v.602h.054a1.19 1.19 0 01.468-.491 1.21 1.21 0 01.646-.166c.906-.005 1.478.717 1.478 1.865zm-.721 0c0-.76-.359-1.229-.95-1.229-.593 0-.96.477-.96 1.234 0 .758.367 1.228.955 1.228.596 0 .955-.46.955-1.233zm1.656 3.114v-.617c.076.011.152.016.23.016a.62.62 0 00.646-.506l.05-.182-1.289-3.634h.766l.896 2.878h.05l.89-2.878h.747l-1.33 3.775c-.303.882-.64 1.163-1.362 1.163a2.88 2.88 0 01-.294-.015zm3.527-2.326h.702c.07.32.363.486.771.486.468 0 .755-.211.755-.537 0-.35-.259-.516-.755-.516h-.532V3.77h.522c.428 0 .642-.165.642-.47 0-.267-.208-.469-.642-.469-.387 0-.676.171-.721.456h-.677c.049-.329.224-.625.488-.827.26-.195.588-.28.91-.233.846 0 1.328.386 1.328.998a.742.742 0 01-.149.475.714.714 0 01-.406.266v.058c.193.025.37.122.498.271.129.15.197.344.194.542 0 .692-.573 1.149-1.452 1.149-.779 0-1.411-.36-1.476-1.092zm3.942 1.03V2.296h.696v2.497h.055l1.636-2.497h.698v3.627h-.697V3.417h-.05L50.66 5.924h-.696zm6.92-3.025h-1.123V5.92h-.701V2.9h-1.12v-.602h2.946l-.002.602zm3.782 2.045a1.479 1.479 0 01-.587.807c-.28.19-.619.276-.956.24a1.596 1.596 0 01-.681-.135 1.656 1.656 0 01-.567-.41 1.645 1.645 0 01-.339-.621 4.582 4.582 0 010-1.414 1.7 1.7 0 01.339-.617c.154-.18.346-.324.562-.421.214-.1.447-.15.682-.146.99 0 1.592.687 1.592 1.826v.25h-2.512v.04a.952.952 0 00.562.962c.121.05.252.075.383.075a.818.818 0 00.488-.09.864.864 0 00.357-.35l.677.004zm-2.473-1.17h1.796a.853.853 0 00-.234-.667.756.756 0 00-.294-.206.828.828 0 00-.348-.065.866.866 0 00-.652.27.838.838 0 00-.2.306.904.904 0 00-.068.361zm5.448-1.477h1.601c.697 0 1.103.36 1.103.922a.768.768 0 01-.602.767v.055a.825.825 0 01.761.837c0 .632-.464 1.043-1.244 1.043h-1.62l.002-3.624zm.696.551v.937h.697c.423 0 .627-.166.627-.472 0-.286-.18-.469-.552-.469l-.772.004zm0 1.462v1.064h.83c.418 0 .64-.186.64-.532 0-.361-.25-.53-.727-.53l-.743-.002zM32.719 17.14h-3.742l-.902 2.685H26.49l3.547-9.928h1.65l3.546 9.928H33.62l-.9-2.685zm-3.36-1.235h2.972l-1.46-4.36h-.045l-1.466 4.36zm13.537.303c0 2.248-1.191 3.693-2.99 3.693a2.397 2.397 0 01-1.306-.304 2.44 2.44 0 01-.947-.962h-.035v3.587h-1.47v-9.635h1.42v1.201h.03c.23-.4.563-.731.967-.957.4-.223.852-.333 1.31-.318 1.82 0 3.02 1.447 3.02 3.696h.001zm-1.512 0c0-1.469-.752-2.43-1.894-2.43-1.122 0-1.878.98-1.878 2.431 0 1.45.756 2.436 1.878 2.436 1.143-.005 1.895-.962 1.895-2.436h-.001zm9.396 0c0 2.248-1.19 3.692-2.99 3.692a2.397 2.397 0 01-1.306-.303 2.442 2.442 0 01-.947-.962h-.035v3.587h-1.47v-9.635h1.425v1.201h.025c.232-.398.566-.728.967-.957a2.535 2.535 0 011.316-.318c1.82 0 3.015 1.446 3.015 3.695zm-1.511 0c0-1.469-.748-2.43-1.89-2.43-1.125 0-1.884.98-1.884 2.431 0 1.45.757 2.436 1.884 2.436 1.144 0 1.891-.957 1.891-2.436h-.002zm6.725.853c.11.981 1.057 1.627 2.347 1.627 1.241 0 2.133-.647 2.133-1.534 0-.773-.538-1.23-1.813-1.55l-1.272-.308c-1.802-.439-2.641-1.29-2.641-2.674 0-1.713 1.475-2.889 3.574-2.889 2.077 0 3.503 1.176 3.546 2.89h-1.485c-.09-.992-.897-1.59-2.083-1.59-1.186 0-1.993.603-1.993 1.484 0 .703.518 1.116 1.783 1.43l1.082.269c2.014.483 2.855 1.3 2.855 2.755 0 1.86-1.465 3.019-3.797 3.019-2.178 0-3.648-1.136-3.743-2.93h1.507zm9.21-6.188v1.714h1.36v1.175h-1.36v3.99c0 .624.268.912.872.912.159-.005.319-.014.482-.034v1.17a4 4 0 01-.817.066c-1.45 0-2.018-.549-2.018-1.953v-4.15h-1.042v-1.176h1.042v-1.714h1.48zm2.147 5.335c0-2.281 1.33-3.71 3.4-3.71 2.068 0 3.399 1.43 3.399 3.711 0 2.282-1.316 3.706-3.4 3.706-2.083 0-3.399-1.425-3.399-3.707zm5.298 0c0-1.563-.707-2.485-1.9-2.485-1.19 0-1.898.926-1.898 2.485 0 1.57.708 2.482 1.899 2.482 1.192 0 1.9-.917 1.9-2.482zm2.711-3.621h1.4v1.23h.035a1.73 1.73 0 01.633-.961 1.69 1.69 0 011.091-.344c.17-.004.34.014.504.055v1.392a1.86 1.86 0 00-.663-.09 1.498 1.498 0 00-.623.11 1.583 1.583 0 00-.517.364 1.443 1.443 0 00-.324.553 1.527 1.527 0 00-.065.64v4.3h-1.47v-7.25zm10.447 5.111c-.2 1.315-1.465 2.217-3.085 2.217-2.088 0-3.38-1.41-3.38-3.672 0-2.26 1.302-3.746 3.315-3.746 1.984 0 3.23 1.375 3.23 3.572v.508h-5.06v.09c-.024.267.01.535.1.787.085.253.223.485.407.678a1.863 1.863 0 001.42.588 1.632 1.632 0 001.656-1.02l1.397-.002zm-4.974-2.162h3.584a1.687 1.687 0 00-.105-.703 1.809 1.809 0 00-.374-.602 1.742 1.742 0 00-1.276-.533c-.24 0-.48.047-.703.14-.447.19-.801.547-.988.995a1.808 1.808 0 00-.134.704h-.004z" fill="#fff"/></svg>