<svg width="91" height="23" fill="none" xmlns="http://www.w3.org/2000/svg"><path fill-rule="evenodd" clip-rule="evenodd" d="M10.733 21.09c-4.63 0-6.945 0-8.384-1.449S.91 15.861.91 11.199v-.825c0-4.662 0-6.993 1.439-8.442C3.788.483 6.102.483 10.733.483h.818c4.63 0 6.945 0 8.384 1.45 1.439 1.448 1.439 3.779 1.439 8.441v.825c0 4.662 0 6.993-1.439 8.442-1.439 1.449-3.753 1.449-8.384 1.449h-.818zm4.593-7.258l1.383.348a.985.985 0 001.131-.527.99.99 0 00.102-.437v-6.71c0-.57-.387-1.067-.938-1.206l-3.966-.998a.984.984 0 00-1.132.527 1.004 1.004 0 00-.102.438v1.21l-2.498-.63a.984.984 0 00-1.132.528 1.004 1.004 0 00-.101.437v1.21l-2.5-.63a.984.984 0 00-1.13.528 1.004 1.004 0 00-.102.437v6.71c0 .57.386 1.067.937 1.206l3.967.997a.985.985 0 001.131-.527c.067-.136.101-.285.102-.437V15.19h-.001V9.605c0-.566-.354-.894-.483-.995a.06.06 0 01-.014-.08.071.071 0 01.078-.029c.522.159 1.023.698 1.073 1.376l.172 5.126a.408.408 0 00.27.368l1.403.354a.983.983 0 001.132-.527.987.987 0 00.102-.437v-6.7c0-.566-.354-.894-.483-.995a.06.06 0 01-.014-.081.071.071 0 01.078-.029c.522.16 1.023.699 1.073 1.377l.172 5.125a.404.404 0 00.29.374z" fill="#fff"/><path d="M31.42 7.04a2.908 2.908 0 01-1.5-.392 2.822 2.822 0 01-1.044-1.109 3.386 3.386 0 01-.371-1.596c0-.591.124-1.12.37-1.587a2.78 2.78 0 011.037-1.1c.444-.267.944-.4 1.5-.4.601 0 1.135.152 1.601.46.46.287.816.719 1.01 1.228l-.859.136a1.706 1.706 0 00-.699-.741 1.96 1.96 0 00-1.028-.274c-.393 0-.744.097-1.053.29a2 2 0 00-.716.811c-.17.34-.253.734-.253 1.177 0 .45.084.847.253 1.194.174.342.415.609.724.802.31.194.663.29 1.062.29.393 0 .742-.091 1.045-.273a1.83 1.83 0 00.707-.785l.86.137c-.206.52-.568.961-1.036 1.263a2.876 2.876 0 01-1.61.468v.001zm7.049-.085h-1.087l-1.61-1.826h-.26v1.826h-.826v-4.41h.826v1.783h.253l1.542-1.783h.994l-1.87 2.132 2.038 2.278zm1.963-4.496c.54 0 .964.18 1.273.537.314.353.472.848.472 1.485v2.474h-.59l-.194-.69a1.767 1.767 0 01-.564.554c-.236.148-.52.221-.851.221a1.677 1.677 0 01-.784-.179 1.345 1.345 0 01-.54-.495 1.388 1.388 0 01-.193-.725c0-.415.163-.748.489-.998.325-.25.797-.375 1.415-.375h.986c-.023-.347-.117-.615-.287-.802a.848.848 0 00-.674-.29c-.213 0-.4.05-.564.153a1.01 1.01 0 00-.37.402l-.768-.129c.113-.352.329-.63.65-.835.32-.205.685-.308 1.094-.308zm-.277 3.873c.353 0 .64-.117.86-.35.224-.239.336-.565.336-.98V4.95h-.96c-.73 0-1.096.222-1.096.666 0 .216.079.389.236.52.157.131.366.196.624.196zm5.258-.98a2.005 2.005 0 01-.48.144c-.181.034-.364.05-.548.051-.523 0-.924-.147-1.205-.443-.28-.296-.422-.714-.422-1.254V2.544h.826V3.85c0 .631.301.947.902.947.365 0 .674-.066.927-.196V2.544h.825v4.41h-.825V5.352zm3.512-2.893c.54 0 .963.18 1.272.537.314.353.472.848.472 1.485v2.474h-.59l-.194-.69c-.14.22-.328.406-.564.554a1.57 1.57 0 01-.851.221 1.677 1.677 0 01-.784-.179 1.344 1.344 0 01-.54-.495 1.378 1.378 0 01-.193-.725c0-.415.163-.748.49-.998.325-.25.797-.375 1.414-.375h.986c-.022-.347-.118-.615-.286-.802a.85.85 0 00-.675-.29c-.213 0-.4.05-.564.153a1.01 1.01 0 00-.37.402l-.768-.129c.113-.352.329-.63.65-.835.32-.205.685-.308 1.095-.308zm-.278 3.873c.353 0 .64-.117.86-.35.224-.239.336-.565.336-.98V4.95h-.96c-.73 0-1.096.222-1.096.666 0 .216.08.389.236.52.158.131.365.196.624.196zm4.163.623h-1.222v-4.41h.8v3.471h.127l1.76-3.472h1.223v4.41h-.8V3.493h-.127L52.81 6.955zm.741-4.982c-.365 0-.671-.097-.918-.29-.242-.199-.385-.495-.43-.887h.674a.663.663 0 00.21.418c.119.09.273.136.464.136s.343-.045.455-.136a.609.609 0 00.21-.418h.683c-.05.392-.2.688-.446.887-.242.193-.543.29-.902.29zm4.817 4.982h-.826V3.312h-1.508v-.768h3.842v.768h-1.508v3.643zm6.106-2.235c0 .113-.003.202-.008.265h-3.598c.044.392.196.705.454.938.259.233.588.35.986.35.276 0 .52-.055.734-.163.219-.113.384-.261.497-.444l.775.13a1.88 1.88 0 01-.818.92c-.376.218-.804.33-1.238.324a2.32 2.32 0 01-1.163-.29 2.102 2.102 0 01-.8-.819 2.399 2.399 0 01-.287-1.177c0-.443.096-.839.287-1.186.183-.34.458-.62.792-.81.337-.2.721-.299 1.154-.299.427 0 .809.1 1.146.299.343.193.61.463.8.81.195.352.293.75.287 1.152zm-2.233-1.518c-.331 0-.618.1-.86.298a1.438 1.438 0 00-.471.802h2.663a1.382 1.382 0 00-.472-.793 1.264 1.264 0 00-.86-.307zm5.94 3.753H66.96v-4.41h.8v3.472h.127l1.76-3.472h1.222v4.41h-.8V3.492h-.127l-1.76 3.463zm6.03-2.252c.23.069.422.194.574.375a.973.973 0 01.227.657c0 .244-.07.467-.21.665-.14.194-.343.35-.607.47a2.24 2.24 0 01-.902.17c-.46 0-.857-.108-1.188-.324a1.562 1.562 0 01-.657-.887l.766-.128c.186.41.543.614 1.07.614.293 0 .515-.054.667-.162a.545.545 0 00.235-.469.51.51 0 00-.219-.427c-.14-.108-.367-.162-.682-.162h-.573v-.734h.573c.27 0 .475-.05.615-.153a.474.474 0 00.219-.41.522.522 0 00-.236-.443.911.911 0 00-.564-.17c-.22 0-.416.054-.59.162a1.043 1.043 0 00-.396.443l-.767-.137c.13-.38.35-.673.666-.878.32-.21.69-.316 1.112-.316.303 0 .576.054.817.163.247.107.438.258.573.452.14.193.21.409.21.648a.974.974 0 01-.201.623 1.06 1.06 0 01-.531.358zM37.454 21.854H35.36l-3.324-4.616h-1.747v4.616h-1.783V9.71h4.292c.831 0 1.575.16 2.233.482.657.322 1.165.77 1.523 1.344.37.563.554 1.212.554 1.947 0 .918-.283 1.705-.848 2.36-.565.643-1.321 1.068-2.267 1.274l3.46 4.737zm-7.165-10.507v4.271h2.51c.737 0 1.332-.195 1.782-.585.461-.402.692-.918.692-1.55s-.23-1.143-.692-1.534c-.45-.402-1.044-.602-1.783-.602h-2.51zm11.896 10.68a3.217 3.217 0 01-1.714-.466 3.364 3.364 0 01-1.194-1.308c-.289-.563-.433-1.195-.433-1.895v-5.41h1.696v5.271c0 .679.19 1.23.571 1.655.381.424.871.637 1.472.637.623 0 1.142-.218 1.557-.655.416-.436.624-.982.624-1.636v-5.27h1.696v8.905h-1.212l-.398-1.343a3.06 3.06 0 01-1.142 1.12c-.465.264-.99.4-1.523.396zm10.597 0c-1.12 0-2.094-.288-2.925-.862-.82-.585-1.379-1.378-1.678-2.377l1.713-.276c.334.643.733 1.12 1.194 1.43.462.299 1.027.448 1.696.448.681 0 1.235-.15 1.662-.448.427-.31.64-.729.64-1.257 0-.39-.121-.718-.364-.982a2.522 2.522 0 00-.882-.637c-.459-.2-.927-.378-1.402-.534-.773-.253-1.407-.506-1.904-.758a3.632 3.632 0 01-1.263-1.068c-.335-.471-.503-1.068-.503-1.792 0-.677.168-1.269.503-1.774a3.349 3.349 0 011.419-1.189c.6-.275 1.27-.413 2.008-.413 1.027 0 1.91.27 2.648.81.738.527 1.263 1.257 1.575 2.187l-1.679.276c-.231-.529-.56-.93-.986-1.206-.428-.287-.93-.43-1.507-.43-.623 0-1.136.149-1.54.447-.404.288-.606.684-.606 1.189 0 .379.116.7.347.964.242.264.536.477.882.637.358.161.831.346 1.42.552.75.253 1.373.511 1.869.775.507.253.947.625 1.28 1.085.347.471.52 1.063.52 1.774 0 .69-.185 1.293-.554 1.81-.358.516-.854.918-1.489 1.205-.622.276-1.32.414-2.094.414zm11.302-1.654l-.156 1.481h-1.575c-.935 0-1.644-.23-2.128-.688-.485-.46-.728-1.12-.728-1.982v-4.737h-1.54V12.95h1.54l.468-2.584h1.228v2.584h2.735v1.498h-2.735v4.737c0 .793.387 1.19 1.16 1.19h1.731zm5.657 1.654c-.913 0-1.726-.196-2.441-.586a4.258 4.258 0 01-1.68-1.636c-.403-.7-.605-1.499-.605-2.395 0-.895.202-1.694.606-2.395a4.258 4.258 0 011.679-1.636c.715-.402 1.528-.603 2.44-.603.912 0 1.725.201 2.44.604a4.26 4.26 0 011.68 1.635c.403.701.605 1.5.605 2.395 0 .896-.202 1.694-.605 2.394a4.253 4.253 0 01-1.68 1.637c-.715.39-1.528.586-2.44.586zm0-1.55c.876 0 1.586-.282 2.128-.844.554-.564.831-1.304.831-2.223 0-.918-.277-1.66-.83-2.222-.543-.575-1.253-.861-2.13-.861s-1.586.287-2.128.861c-.544.563-.814 1.304-.814 2.222 0 .907.27 1.648.814 2.223.542.562 1.251.843 2.129.843zm6.543 1.377V12.95h1.229l.364 1.274c.265-.448.594-.77.986-.964.392-.207.86-.31 1.403-.31h.414l.139 1.619h-.97c-.622 0-1.09.178-1.401.534-.311.356-.468.838-.468 1.447v5.305h-1.696zm14.232-4.512c0 .229-.006.407-.017.533h-7.391c.092.793.404 1.424.934 1.895.531.47 1.207.706 2.025.706.566 0 1.068-.11 1.506-.327.45-.23.79-.528 1.022-.895l1.592.257a3.821 3.821 0 01-1.68 1.861c-.76.437-1.609.655-2.543.655-.888 0-1.685-.196-2.388-.586a4.277 4.277 0 01-1.644-1.654c-.394-.7-.59-1.493-.59-2.377 0-.895.197-1.694.59-2.395a4.188 4.188 0 011.626-1.636c.692-.402 1.482-.603 2.371-.603.877 0 1.662.201 2.354.604a4.166 4.166 0 011.645 1.635c.392.69.588 1.465.588 2.326zm-4.587-3.066c-.68 0-1.269.2-1.766.602-.484.402-.807.942-.969 1.62h5.47c-.15-.667-.473-1.2-.97-1.603-.484-.413-1.072-.62-1.765-.62z" fill="#fff"/></svg>