<svg width="618" height="67" viewBox="0 0 618 67" fill="none" xmlns="http://www.w3.org/2000/svg">
<path d="M63.688 35.3448H36.6956V39.2282H63.688V35.3448Z" fill="#333333"/>
<path d="M92.622 39.2282H72.8903L77.3044 21.051H92.622V39.2282Z" fill="#4D4D4D"/>
<path d="M116.085 39.2281H5.55432V44.3915H116.085V39.2281Z" fill="#666666"/>
<path d="M113.804 50.7108H5.55432V44.3916H116.309C116.807 44.3916 117.21 44.7956 117.21 45.2925V47.3034C117.21 49.185 115.685 50.7108 113.804 50.7108Z" fill="#4D4D4D"/>
<path d="M82.3148 54.8648C82.2782 54.6111 82.2534 54.3575 82.2351 54.1064L81.3865 53.8972L81.4401 52.102L82.3044 51.9438C82.371 51.4587 82.4717 50.9814 82.6051 50.516L81.8624 50.0178L82.5266 48.3494L83.4171 48.5011C83.6433 48.0761 83.8982 47.6682 84.1793 47.2799L83.6367 46.5372L84.8318 45.197L85.6346 45.6533C85.9863 45.3356 86.3603 45.0414 86.7552 44.772L86.4937 43.8725L88.0757 43.0213L88.6864 43.7391C89.1191 43.5639 89.565 43.4148 90.0279 43.2972L90.0919 42.344L91.8689 42.0851L92.201 42.9807C92.6743 42.9624 93.1424 42.9768 93.6039 43.0213L93.9936 42.1387L95.7522 42.5035L95.7587 43.4619C96.2059 43.6044 96.6413 43.777 97.0623 43.9784L97.7318 43.2815L99.2589 44.2255L98.9373 45.129C99.3086 45.414 99.6617 45.7239 99.9912 46.056L100.853 45.6324L101.966 47.0419L101.363 47.7702C101.615 48.165 101.843 48.5795 102.043 49.011L102.983 48.909L103.546 50.614L102.743 51.0847C102.801 51.3436 102.853 51.6051 102.891 51.8719C102.921 52.0798 102.944 52.2877 102.961 52.4955L103.86 52.7165L103.807 54.5117L102.916 54.6752C102.855 55.1577 102.762 55.631 102.636 56.0938L103.385 56.5959L102.721 58.2643L101.85 58.1166C101.627 58.5507 101.373 58.9678 101.092 59.3666L101.612 60.0778L100.417 61.4181L99.6695 60.9931C99.3086 61.3278 98.9229 61.6377 98.5163 61.9201L98.7556 62.7439L97.1748 63.5951L96.6321 62.957C96.1771 63.1479 95.7038 63.3061 95.2161 63.4316L95.1599 64.2711L93.383 64.5299L93.094 63.7533C92.588 63.7781 92.0859 63.7637 91.593 63.7154L91.2569 64.475L89.4983 64.1102L89.4931 63.2891C89.0119 63.1374 88.5451 62.9518 88.0941 62.7347L87.52 63.3323L85.9929 62.3882L86.2714 61.6076C85.8752 61.303 85.5012 60.9709 85.1521 60.6113L84.399 60.9813L83.2863 59.5718L83.8211 58.9259C83.557 58.5088 83.3216 58.0708 83.1163 57.6132L82.269 57.7047L81.7055 55.9997L82.4456 55.5656C82.3946 55.3342 82.3488 55.1014 82.3148 54.8648Z" fill="#333333"/>
<path d="M86.797 54.2123C87.2638 57.417 90.2397 59.6385 93.4444 59.1717C96.6492 58.7062 98.8706 55.729 98.4039 52.5243C97.9384 49.3196 94.9612 47.0981 91.7564 47.5649C88.5517 48.0304 86.3315 51.0076 86.797 54.2123Z" fill="#B3B3B3"/>
<path d="M88.0837 54.0254C88.4459 56.5201 90.7628 58.2486 93.2588 57.8865C95.7536 57.523 97.4821 55.2074 97.1199 52.7113C96.7578 50.2166 94.4408 48.488 91.9448 48.8502C89.4487 49.2137 87.7202 51.5306 88.0837 54.0254Z" fill="#808080"/>
<path d="M90.0868 53.7339C90.2881 55.1225 91.5786 56.0848 92.9672 55.8834C94.3558 55.6821 95.3181 54.3916 95.1168 53.003C94.9154 51.6144 93.6249 50.6521 92.2363 50.8534C90.8464 51.0561 89.8841 52.3453 90.0868 53.7339Z" fill="#B3B3B3"/>
<path d="M90.5719 50.9828C90.2842 50.9828 90.0371 50.7684 89.9953 50.4833C89.9495 50.1643 90.1705 49.8688 90.4882 49.8217C90.517 49.8178 90.5444 49.8152 90.5732 49.8152C90.8608 49.8152 91.108 50.0296 91.1498 50.3147C91.1956 50.6337 90.9746 50.9292 90.6569 50.9763C90.6281 50.9802 90.5993 50.9828 90.5719 50.9828Z" fill="#666666"/>
<path d="M94.1584 50.7108C93.978 50.7108 93.8119 50.6298 93.7008 50.4885C93.604 50.3669 93.5609 50.214 93.5792 50.0584C93.5975 49.9041 93.6746 49.7655 93.7975 49.6687C93.9008 49.5864 94.0264 49.5432 94.1584 49.5432C94.3389 49.5432 94.5062 49.6243 94.6174 49.7655C94.8161 50.0178 94.773 50.3853 94.5206 50.5853C94.416 50.6677 94.2905 50.7108 94.1584 50.7108Z" fill="#666666"/>
<path d="M96.1864 53.6802C96.1118 53.6802 96.0399 53.6658 95.9706 53.6383C95.6712 53.5194 95.5261 53.1794 95.6437 52.88C95.7326 52.6564 95.9458 52.5126 96.1864 52.5126C96.2609 52.5126 96.3328 52.527 96.4021 52.5544C96.5472 52.6119 96.661 52.7231 96.7224 52.8656C96.7839 53.0094 96.7865 53.1676 96.729 53.3115C96.6401 53.5351 96.4269 53.6802 96.1864 53.6802Z" fill="#666666"/>
<path d="M94.6291 56.9215C94.3414 56.9215 94.0943 56.7071 94.0525 56.422C94.0302 56.2678 94.0695 56.1148 94.1623 55.9893C94.2551 55.8637 94.3924 55.7827 94.5467 55.7604C94.5755 55.7565 94.6029 55.7539 94.6317 55.7539C94.9193 55.7539 95.1665 55.9683 95.2083 56.2534C95.2305 56.4077 95.1913 56.5606 95.0985 56.6862C95.0056 56.8117 94.8684 56.8928 94.7141 56.915C94.6853 56.9189 94.6565 56.9215 94.6291 56.9215Z" fill="#666666"/>
<path d="M91.0439 57.1935C90.8635 57.1935 90.6974 57.1124 90.5863 56.9712C90.4895 56.8496 90.4464 56.6966 90.4647 56.541C90.483 56.3868 90.5601 56.2482 90.683 56.1514C90.7863 56.069 90.9119 56.0259 91.0439 56.0259C91.2244 56.0259 91.3904 56.1069 91.5015 56.2482C91.5983 56.3698 91.6415 56.5227 91.6231 56.6783C91.6048 56.8326 91.5277 56.9712 91.4048 57.068C91.3015 57.1503 91.176 57.1935 91.0439 57.1935Z" fill="#666666"/>
<path d="M89.0146 54.2241C88.9401 54.2241 88.8681 54.2097 88.7988 54.1823C88.5007 54.0633 88.3543 53.7234 88.4733 53.4239C88.5622 53.2003 88.7753 53.0565 89.0159 53.0565C89.0891 53.0565 89.1623 53.0709 89.2316 53.0984C89.5311 53.2173 89.6762 53.5573 89.5572 53.8567C89.4683 54.0803 89.2552 54.2241 89.0146 54.2241Z" fill="#666666"/>
<path d="M41.4647 0.00176753L32.3097 34.1704L47.1113 38.1363L56.2663 3.96765L41.4647 0.00176753Z" fill="#FFD645"/>
<path d="M66.4742 38.1364H47.1138L56.269 3.96704L72.7385 13.6061C74.9417 14.8953 76.0387 17.4789 75.4346 19.9593L72.09 33.7209C71.4598 36.3124 69.1402 38.1364 66.4742 38.1364Z" fill="#FFCB13"/>
<path d="M41.4667 0L32.3127 34.1707L12.1338 22.5181L10.3856 21.5087L16.1518 0H41.4667Z" fill="#FFCB13"/>
<path d="M34.3106 26.8407L32.3114 34.1693L47.1138 38.1364L49.0803 30.7986L34.3106 26.8407Z" fill="#E6E6E6"/>
<path d="M68.4721 30.8065H49.113L47.1138 38.1352H66.4742C69.1402 38.1352 71.4598 36.3112 72.09 33.721L73.5361 27.7731C72.5437 29.6023 70.6295 30.8065 68.4721 30.8065Z" fill="#E6E6E6"/>
<path d="M14.133 15.1881L12.3848 14.1787L16.1858 0H16.1518L10.3856 21.5087L12.1338 22.5181L32.3127 34.1707L34.2805 26.8237L14.133 15.1881Z" fill="#E6E6E6"/>
<path d="M18.4308 0L12.1338 22.5181L10.3856 21.5087L16.1518 0H18.4308Z" fill="#E6E6E6"/>
<path d="M12.7588 42.0564H8.76171V14.8678L6.76252 12.4934L0.766235 3.96704H12.7588V42.0564Z" fill="#666666"/>
<path d="M25.9268 33.2319L12.7588 25.2365V42.0564H25.9268V33.2319Z" fill="#666666"/>
<path d="M35.3828 54.8648C35.3462 54.6111 35.3214 54.3575 35.303 54.1064L34.4545 53.8972L34.5081 52.102L35.3723 51.9438C35.439 51.4587 35.5397 50.9814 35.6731 50.516L34.9304 50.0178L35.5946 48.3494L36.485 48.5011C36.7112 48.0761 36.9662 47.6682 37.2473 47.2799L36.7047 46.5372L37.8998 45.197L38.7026 45.6533C39.0543 45.3356 39.4283 45.0414 39.8231 44.772L39.5616 43.8725L41.1437 43.0213L41.7543 43.7391C42.1858 43.5639 42.633 43.4148 43.0959 43.2972L43.1599 42.344L44.9368 42.0851L45.269 42.9807C45.7423 42.9624 46.2104 42.9768 46.6719 43.0213L47.0616 42.1387L48.8202 42.5035L48.8267 43.4619C49.2739 43.6044 49.7093 43.777 50.1303 43.9784L50.7998 43.2815L52.3269 44.2255L52.0053 45.129C52.3766 45.414 52.7297 45.7239 53.0592 46.056L53.9208 45.6324L55.0335 47.0419L54.4307 47.7702C54.6831 48.165 54.9106 48.5795 55.1107 49.011L56.0494 48.909L56.613 50.614L55.8102 51.0847C55.8677 51.3436 55.92 51.6051 55.9592 51.8719C55.9893 52.0798 56.0115 52.2877 56.0285 52.4955L56.9281 52.7165L56.8745 54.5117L55.9841 54.6752C55.9226 55.1577 55.8298 55.631 55.7043 56.0938L56.4535 56.5959L55.7893 58.2643L54.9184 58.1166C54.6949 58.5507 54.4412 58.9678 54.1601 59.3666L54.6805 60.0778L53.4854 61.4181L52.7375 60.9931C52.3766 61.3278 51.9909 61.6377 51.5843 61.9201L51.8235 62.7439L50.2428 63.5951L49.7001 62.957C49.2451 63.1479 48.7718 63.3061 48.2841 63.4316L48.2279 64.2711L46.451 64.5299L46.162 63.7533C45.656 63.7781 45.1539 63.7637 44.661 63.7154L44.3249 64.475L42.5663 64.1102L42.5611 63.2891C42.0799 63.1374 41.6131 62.9518 41.162 62.7347L40.588 63.3323L39.0609 62.3882L39.3394 61.6076C38.9432 61.303 38.5692 60.9709 38.2201 60.6113L37.467 60.9813L36.3543 59.5718L36.8891 58.9259C36.6249 58.5088 36.3896 58.0708 36.1856 57.6132L35.3384 57.7047L34.7748 55.9997L35.5149 55.5656C35.4613 55.3342 35.4168 55.1014 35.3828 54.8648Z" fill="#333333"/>
<path d="M39.8649 54.2123C40.3317 57.417 43.3076 59.6385 46.5124 59.1717C49.7171 58.7062 51.9386 55.729 51.4718 52.5243C51.005 49.3196 48.0291 47.0981 44.8243 47.5649C41.6196 48.0304 39.3981 51.0076 39.8649 54.2123Z" fill="#B3B3B3"/>
<path d="M41.1502 54.0254C41.5124 56.5201 43.8294 58.2486 46.3254 57.8865C48.8202 57.523 50.5487 55.2074 50.1865 52.7113C49.8243 50.2166 47.5074 48.488 45.0114 48.8502C42.5166 49.2137 40.7881 51.5306 41.1502 54.0254Z" fill="#808080"/>
<path d="M43.1533 53.7339C43.3547 55.1225 44.6452 56.0848 46.0338 55.8834C47.4224 55.6821 48.3847 54.3916 48.1834 53.003C47.982 51.6144 46.6915 50.6521 45.3029 50.8534C43.9143 51.0561 42.952 52.3453 43.1533 53.7339Z" fill="#B3B3B3"/>
<path d="M43.6397 50.9828C43.3521 50.9828 43.105 50.7684 43.0631 50.4833C43.0174 50.1643 43.2383 49.8688 43.5561 49.8217C43.5848 49.8178 43.6123 49.8152 43.6411 49.8152C43.9287 49.8152 44.1758 50.0296 44.2177 50.3147C44.2634 50.6337 44.0425 50.9292 43.7247 50.9763C43.696 50.9802 43.6672 50.9828 43.6397 50.9828Z" fill="#666666"/>
<path d="M47.2263 50.7108C47.0472 50.7108 46.8798 50.6298 46.7687 50.4885C46.6719 50.3669 46.6288 50.214 46.6471 50.0584C46.6654 49.9041 46.7425 49.7655 46.8654 49.6687C46.9687 49.5864 47.0942 49.5432 47.2263 49.5432C47.4067 49.5432 47.5741 49.6243 47.6852 49.7655C47.884 50.0178 47.8408 50.3853 47.5885 50.5853C47.4839 50.6677 47.3583 50.7108 47.2263 50.7108Z" fill="#666666"/>
<path d="M49.2542 53.6802C49.1796 53.6802 49.1077 53.6658 49.0384 53.6383C48.739 53.5194 48.5926 53.1794 48.7115 52.88C48.8004 52.6564 49.0136 52.5126 49.2542 52.5126C49.3287 52.5126 49.4006 52.527 49.4699 52.5544C49.615 52.6119 49.7288 52.7231 49.7902 52.8656C49.8517 53.0094 49.8543 53.1676 49.7968 53.3115C49.7066 53.5351 49.4947 53.6802 49.2542 53.6802Z" fill="#666666"/>
<path d="M47.6956 56.9215C47.408 56.9215 47.1608 56.7071 47.119 56.422C47.0968 56.2678 47.136 56.1148 47.2288 55.9893C47.3217 55.8637 47.4589 55.7827 47.6132 55.7604C47.642 55.7565 47.6695 55.7539 47.6982 55.7539C47.9859 55.7539 48.233 55.9683 48.2748 56.2534C48.2971 56.4077 48.2578 56.5606 48.165 56.6862C48.0722 56.8117 47.9349 56.8928 47.7806 56.915C47.7518 56.9189 47.7244 56.9215 47.6956 56.9215Z" fill="#666666"/>
<path d="M44.1118 57.1935C43.9314 57.1935 43.7653 57.1124 43.6542 56.9712C43.5574 56.8496 43.5143 56.6966 43.5326 56.541C43.5509 56.3868 43.628 56.2482 43.7509 56.1514C43.8542 56.069 43.9797 56.0259 44.1118 56.0259C44.2922 56.0259 44.4583 56.1069 44.5694 56.2482C44.6662 56.3698 44.7093 56.5227 44.691 56.6783C44.6727 56.8326 44.5956 56.9712 44.4727 57.068C44.3681 57.1503 44.2439 57.1935 44.1118 57.1935Z" fill="#666666"/>
<path d="M42.0825 54.2241C42.0079 54.2241 41.936 54.2097 41.8667 54.1823C41.5686 54.0633 41.4222 53.7234 41.5411 53.4239C41.6301 53.2003 41.8432 53.0565 42.0838 53.0565C42.1583 53.0565 42.2302 53.0709 42.2995 53.0984C42.5989 53.2173 42.7454 53.5573 42.6251 53.8567C42.5362 54.0803 42.323 54.2241 42.0825 54.2241Z" fill="#666666"/>
<path d="M9.03491 54.8648C8.9983 54.6111 8.97345 54.3575 8.95515 54.1064L8.10657 53.8972L8.16018 52.102L9.02445 51.9438C9.09113 51.4587 9.19181 50.9814 9.32517 50.516L8.58251 50.0178L9.24672 48.3494L10.1371 48.5011C10.3633 48.0761 10.6183 47.6682 10.8994 47.2799L10.3568 46.5372L11.5519 45.197L12.3547 45.6533C12.7064 45.3356 13.0804 45.0414 13.4752 44.772L13.2137 43.8725L14.7958 43.0213L15.4064 43.7391C15.8379 43.5639 16.2851 43.4148 16.748 43.2972L16.812 42.344L18.5889 42.0851L18.9211 42.9807C19.3944 42.9624 19.8625 42.9768 20.324 43.0213L20.7137 42.1387L22.4723 42.5035L22.4788 43.4619C22.926 43.6044 23.3614 43.777 23.7824 43.9784L24.4519 43.2815L25.979 44.2255L25.6574 45.129C26.0287 45.414 26.3818 45.7239 26.7113 46.056L27.5729 45.6324L28.6856 47.0419L28.0828 47.7702C28.3352 48.165 28.5627 48.5795 28.7628 49.011L29.7029 48.909L30.2664 50.614L29.4636 51.0847C29.5211 51.3436 29.5734 51.6051 29.6126 51.8719C29.6427 52.0798 29.6649 52.2877 29.6819 52.4955L30.5815 52.7165L30.5279 54.5117L29.6375 54.6752C29.576 55.1577 29.4832 55.631 29.3577 56.0938L30.1069 56.5959L29.4427 58.2643L28.5719 58.1166C28.3483 58.5507 28.0946 58.9678 27.8135 59.3666L28.3339 60.0778L27.1388 61.4181L26.3909 60.9931C26.03 61.3278 25.6443 61.6377 25.2377 61.9201L25.477 62.7439L23.8962 63.5951L23.3535 62.957C22.8985 63.1479 22.4252 63.3061 21.9375 63.4316L21.8813 64.2711L20.1044 64.5299L19.8154 63.7533C19.3094 63.7781 18.8073 63.7637 18.3144 63.7154L17.9783 64.475L16.2197 64.1102L16.2145 63.2891C15.7333 63.1374 15.2665 62.9518 14.8154 62.7347L14.2414 63.3323L12.7143 62.3882L12.9928 61.6076C12.5966 61.303 12.2226 60.9709 11.8735 60.6113L11.1204 60.9813L10.0077 59.5718L10.5425 58.9259C10.2784 58.5088 10.043 58.0708 9.83772 57.6132L8.99045 57.7047L8.42691 55.9997L9.16697 55.5656C9.11466 55.3342 9.07021 55.1014 9.03491 54.8648Z" fill="#333333"/>
<path d="M13.5171 54.2123C13.9839 57.417 16.9598 59.6385 20.1645 59.1717C23.3693 58.7062 25.5907 55.729 25.124 52.5243C24.6585 49.3196 21.6813 47.0981 18.4765 47.5649C15.2718 48.0304 13.0516 51.0076 13.5171 54.2123Z" fill="#B3B3B3"/>
<path d="M14.8038 54.0254C15.1659 56.5201 17.4829 58.2486 19.9789 57.8865C22.4737 57.523 24.2022 55.2074 23.84 52.7113C23.4778 50.2166 21.1609 48.488 18.6649 48.8502C16.1688 49.2137 14.4403 51.5306 14.8038 54.0254Z" fill="#808080"/>
<path d="M16.8069 53.7339C17.0083 55.1225 18.2988 56.0848 19.6874 55.8834C21.076 55.6821 22.0383 54.3916 21.837 53.003C21.6356 51.6144 20.3451 50.6521 18.9565 50.8534C17.5666 51.0561 16.6056 52.3453 16.8069 53.7339Z" fill="#B3B3B3"/>
<path d="M17.292 50.9828C17.0043 50.9828 16.7572 50.7684 16.7154 50.4833C16.6696 50.1643 16.8906 49.8688 17.2083 49.8217C17.2371 49.8178 17.2645 49.8152 17.2933 49.8152C17.5809 49.8152 17.828 50.0296 17.8699 50.3147C17.9157 50.6337 17.6947 50.9292 17.377 50.9763C17.3482 50.9802 17.3207 50.9828 17.292 50.9828Z" fill="#666666"/>
<path d="M20.8797 50.7108C20.6993 50.7108 20.5332 50.6298 20.4221 50.4885C20.3253 50.3669 20.2822 50.214 20.3005 50.0584C20.3188 49.9041 20.396 49.7655 20.5189 49.6687C20.6222 49.5864 20.7477 49.5432 20.8797 49.5432C21.0602 49.5432 21.2275 49.6243 21.3387 49.7655C21.5374 50.0178 21.4943 50.3853 21.2419 50.5853C21.136 50.6677 21.0118 50.7108 20.8797 50.7108Z" fill="#666666"/>
<path d="M22.9064 53.6802C22.8318 53.6802 22.7599 53.6658 22.6906 53.6383C22.3912 53.5194 22.2448 53.1794 22.3638 52.88C22.4527 52.6564 22.6658 52.5126 22.9064 52.5126C22.9809 52.5126 23.0528 52.527 23.1221 52.5544C23.2673 52.6119 23.381 52.7231 23.4425 52.8656C23.5039 53.0094 23.5065 53.1676 23.449 53.3115C23.3601 53.5351 23.147 53.6802 22.9064 53.6802Z" fill="#666666"/>
<path d="M21.3492 56.9215C21.0615 56.9215 20.8144 56.7071 20.7726 56.422C20.7503 56.2678 20.7896 56.1148 20.8824 55.9893C20.9752 55.8637 21.1125 55.7827 21.2668 55.7604C21.2956 55.7565 21.323 55.7539 21.3518 55.7539C21.6394 55.7539 21.8866 55.9683 21.9284 56.2534C21.9506 56.4077 21.9114 56.5606 21.8186 56.6862C21.7257 56.8117 21.5884 56.8928 21.4342 56.915C21.4054 56.9189 21.3766 56.9215 21.3492 56.9215Z" fill="#666666"/>
<path d="M17.764 57.1935C17.5836 57.1935 17.4175 57.1124 17.3064 56.9712C17.2096 56.8496 17.1665 56.6966 17.1848 56.541C17.2031 56.3868 17.2802 56.2482 17.4031 56.1514C17.5064 56.069 17.632 56.0259 17.764 56.0259C17.9444 56.0259 18.1105 56.1069 18.2216 56.2482C18.3184 56.3698 18.3615 56.5227 18.3432 56.6783C18.3249 56.8326 18.2478 56.9712 18.1249 57.068C18.0216 57.1503 17.8961 57.1935 17.764 57.1935Z" fill="#666666"/>
<path d="M15.7347 54.2241C15.6601 54.2241 15.5882 54.2097 15.5189 54.1823C15.2208 54.0633 15.0744 53.7234 15.1934 53.4239C15.2823 53.2003 15.4954 53.0565 15.736 53.0565C15.8092 53.0565 15.8824 53.0709 15.9517 53.0984C16.2511 53.2173 16.3976 53.5573 16.2773 53.8567C16.1884 54.0803 15.9753 54.2241 15.7347 54.2241Z" fill="#666666"/>
<path d="M61.8235 53.3075H61.6901C60.1407 53.3075 58.8685 52.1804 58.5573 50.6637C57.3308 44.6831 52.0262 40.1722 45.6887 40.1722H19.3422C13.0046 40.1722 7.70134 44.6831 6.47358 50.6637C6.16239 52.1817 4.89017 53.3075 3.34076 53.3075H3.2074C3.2074 44.4112 10.4445 37.1727 19.3409 37.1727H45.6874C54.5863 37.1727 61.8235 44.4112 61.8235 53.3075Z" fill="#737373"/>
<path d="M5.06664 44.3915H5.55435V39.2281H5.06664C4.51618 39.2281 4.07031 39.674 4.07031 40.2245V43.3965C4.07162 43.9457 4.51748 44.3915 5.06664 44.3915Z" fill="#121212"/>
<path d="M74.9872 21.8116L72.1315 33.5018L74.1726 34.0004L77.0283 22.3102L74.9872 21.8116Z" fill="#333333"/>
<path d="M76.4885 39.2282H96.0948L85.2201 36.0601H76.4885V39.2282Z" fill="#666666"/>
<path d="M116.087 42.0564H101.665L85.2202 36.0601V11.6984C85.2202 10.6393 86.0793 9.78027 87.1384 9.78027H106.556C107.554 9.78027 108.505 10.2392 109.093 11.046C113.162 16.6173 116.087 26.0537 116.087 33.2659V42.0564Z" fill="#FFCB13"/>
<path d="M114.115 32.4788H93.7765L88.6759 22.3403V13.1301C88.6759 13.0386 88.6864 12.9562 88.706 12.8647C88.8184 12.2828 89.3388 11.8344 89.9612 11.8344H105.413C106.454 11.8344 107.434 12.3142 108.035 13.1602C111.534 18.066 114.044 26.1752 114.115 32.4788Z" fill="#FFDD52"/>
<path d="M114.115 32.0617H94.187L89.1897 22.1284V13.104C89.1897 13.0137 89.2002 12.934 89.2198 12.8438C89.3296 12.2737 89.8395 11.8344 90.4488 11.8344H105.59C106.61 11.8344 107.568 12.3038 108.158 13.134C111.586 17.9405 114.046 25.8849 114.115 32.0617Z" fill="#B6B6B6"/>
<path d="M89.782 12.5836H104.923C105.943 12.5836 106.901 13.053 107.491 13.8832C110.782 18.4988 113.173 26.0039 113.422 32.063H114.114C114.043 25.8863 111.585 17.9418 108.157 13.134C107.567 12.3051 106.607 11.8344 105.589 11.8344H90.4475C89.8905 11.8344 89.4329 12.2083 89.2708 12.7052C89.4303 12.6332 89.5989 12.5836 89.782 12.5836Z" fill="#7E7E7E"/>
<path d="M116.087 33.7942H85.2201V34.7931H116.087V33.7942Z" fill="#E6E6E6"/>
<path d="M116.051 39.2282H114.779C114.528 39.2282 114.324 39.0242 114.324 38.7732V35.2481C114.324 34.9971 114.528 34.7931 114.779 34.7931H116.051C116.521 34.7931 116.901 35.1736 116.901 35.643V38.3783C116.901 38.8477 116.521 39.2282 116.051 39.2282Z" fill="#F0E5AF"/>
<g opacity="0.25">
<path d="M101.223 32.0616H98.1842L89.2198 12.8424C89.3297 12.2723 89.8396 11.833 90.4489 11.833H91.7878L101.223 32.0616Z" fill="white"/>
<path d="M103.701 32.0617H101.952L92.5278 11.8344H94.2668L103.701 32.0617Z" fill="white"/>
</g>
<path d="M108.756 53.3075H108.622C107.073 53.3075 105.801 52.1804 105.489 50.6637C104.263 44.6831 101.499 40.1722 92.6207 40.1722C86.2832 40.1722 80.9786 44.6831 79.7521 50.6637C79.441 52.1817 78.1687 53.3075 76.6193 53.3075H76.486C76.486 44.4112 83.7244 37.1727 92.6207 37.1727C101.518 37.1727 108.756 44.4112 108.756 53.3075Z" fill="#737373"/>
<path d="M12.7588 2.06067H0V3.96703H12.7588V2.06067Z" fill="#4D4D4D"/>
<path d="M89.786 31.2444H87.5711C87.1095 31.2444 86.7356 31.6183 86.7356 32.0799V33.794H92.6011L91.8663 32.4695C91.4466 31.7125 90.6503 31.2444 89.786 31.2444Z" fill="#E6E6E6"/>
<path d="M30.4011 10.8H33.4778V11.6046H31.4267V12.1989H32.3786C32.8239 12.1989 33.1657 12.2936 33.4042 12.4829C33.6426 12.6723 33.7618 12.944 33.7618 13.2981C33.7618 13.6697 33.6286 13.9599 33.3621 14.1685C33.0956 14.3772 32.7222 14.4815 32.2418 14.4815H30.4011V10.8ZM32.1735 13.7346C32.3488 13.7346 32.482 13.6996 32.5732 13.6294C32.6643 13.5593 32.7099 13.4594 32.7099 13.3297C32.7099 13.0702 32.5311 12.9405 32.1735 12.9405H31.4267V13.7346H32.1735ZM37.2539 13.6768V14.4815H34.2982V10.8H37.1856V11.6046H35.329V12.2252H36.9647V13.0036H35.329V13.6768H37.2539ZM40.8145 11.6257H39.689V14.4815H38.6634V11.6257H37.5327V10.8H40.8145V11.6257ZM43.0496 14.5551C42.6605 14.5551 42.3107 14.4727 42.0004 14.3079C41.6901 14.1431 41.4464 13.9152 41.2694 13.6242C41.0923 13.3332 41.0038 13.0053 41.0038 12.6407C41.0038 12.276 41.0923 11.9482 41.2694 11.6572C41.4464 11.3662 41.6901 11.1383 42.0004 10.9735C42.3107 10.8087 42.6605 10.7263 43.0496 10.7263C43.4389 10.7263 43.7886 10.8087 44.0989 10.9735C44.4092 11.1383 44.6528 11.3662 44.8299 11.6572C45.007 11.9482 45.0955 12.276 45.0955 12.6407C45.0955 13.0053 45.007 13.3332 44.8299 13.6242C44.6528 13.9152 44.4092 14.1431 44.0989 14.3079C43.7886 14.4727 43.4389 14.5551 43.0496 14.5551ZM43.0496 13.6926C43.2355 13.6926 43.4038 13.6487 43.5545 13.5611C43.7053 13.4734 43.8245 13.3498 43.9122 13.1903C43.9998 13.0308 44.0436 12.8476 44.0436 12.6407C44.0436 12.4338 43.9998 12.2506 43.9122 12.0911C43.8245 11.9316 43.7053 11.808 43.5545 11.7203C43.4038 11.6327 43.2355 11.5888 43.0496 11.5888C42.8638 11.5888 42.6955 11.6327 42.5447 11.7203C42.394 11.808 42.2748 11.9316 42.1871 12.0911C42.0995 12.2506 42.0556 12.4338 42.0556 12.6407C42.0556 12.8476 42.0995 13.0308 42.1871 13.1903C42.2748 13.3498 42.394 13.4734 42.5447 13.5611C42.6955 13.6487 42.8638 13.6926 43.0496 13.6926ZM49.1556 10.8V14.4815H48.1143V13.0456H46.6943V14.4815H45.653V10.8H46.6943V12.1831H48.1143V10.8H49.1556Z" fill="black"/>
<path d="M48.0005 15.5417H31.0587C30.983 15.5417 30.9078 15.5465 30.8336 15.5558C30.7589 15.5654 30.6867 15.5791 30.6165 15.5976C30.5468 15.6161 30.4801 15.6388 30.417 15.6656C30.3538 15.6924 30.2957 15.7231 30.242 15.7572C30.1883 15.7914 30.1402 15.8285 30.0981 15.8686C30.056 15.9089 30.0204 15.9513 29.9913 15.9957C29.9622 16.0404 29.9407 16.0864 29.9256 16.1339C29.9111 16.1812 29.9036 16.229 29.9036 16.2773V19.7097C29.9036 19.758 29.9111 19.8058 29.9256 19.8531C29.9407 19.9006 29.9622 19.9466 29.9913 19.9913C30.0204 20.0356 30.056 20.0781 30.0981 20.1183C30.1402 20.1586 30.1883 20.1956 30.242 20.2298C30.2957 20.2639 30.3538 20.2946 30.417 20.3214C30.4801 20.3482 30.5468 20.3709 30.6165 20.3894C30.6867 20.4079 30.7589 20.4216 30.8336 20.4312C30.9078 20.4404 30.983 20.4452 31.0587 20.4452H48.0005C48.0762 20.4452 48.1514 20.4404 48.2256 20.4312C48.3003 20.4216 48.3725 20.4079 48.4427 20.3894C48.5124 20.3709 48.5791 20.3482 48.6422 20.3214C48.7054 20.2946 48.7636 20.2639 48.8172 20.2298C48.8709 20.1956 48.919 20.1586 48.9611 20.1183C49.0032 20.0781 49.0389 20.0356 49.0679 19.9913C49.097 19.9466 49.1186 19.9006 49.1336 19.8531C49.1482 19.8058 49.1556 19.758 49.1556 19.7097V16.2773C49.1556 16.229 49.1482 16.1812 49.1336 16.1339C49.1186 16.0864 49.097 16.0404 49.0679 15.9957C49.0389 15.9513 49.0032 15.9089 48.9611 15.8686C48.919 15.8285 48.8709 15.7914 48.8172 15.7572C48.7636 15.7231 48.7054 15.6924 48.6422 15.6656C48.5791 15.6388 48.5124 15.6161 48.4427 15.5976C48.3725 15.5791 48.3003 15.5654 48.2256 15.5558C48.1514 15.5465 48.0762 15.5417 48.0005 15.5417ZM34.0225 17.1011H33.0329V19.6119H32.1313V17.1011H31.1371V16.3751H34.0225V17.1011ZM36.5148 18.983H35.1461L34.8918 19.6119H33.9577L35.3866 16.3751H36.2882L37.7216 19.6119H36.7691L36.5148 18.983ZM36.2466 18.3079L35.8305 17.2722L35.4143 18.3079H36.2466ZM39.4001 18.3726H38.984V19.6119H38.073V16.3751H38.984V17.6328H39.4233L40.1954 16.3751H41.1572L40.1446 17.938L41.1665 19.6119H40.1353L39.4001 18.3726ZM43.0207 19.6766C42.6816 19.6766 42.3772 19.6049 42.1075 19.4616C41.8377 19.3182 41.6258 19.1186 41.4717 18.8628C41.3175 18.6069 41.2405 18.3172 41.2405 17.9935C41.2405 17.6698 41.3175 17.38 41.4717 17.1242C41.6258 16.8683 41.8377 16.6687 42.1075 16.5254C42.3772 16.382 42.6816 16.3104 43.0207 16.3104C43.3166 16.3104 43.5833 16.3628 43.8206 16.4676C44.058 16.5724 44.2553 16.7234 44.4125 16.9207L43.8299 17.4479C43.6202 17.1951 43.3659 17.0687 43.0669 17.0687C42.8912 17.0687 42.7348 17.1072 42.5976 17.1843C42.4604 17.2614 42.3541 17.37 42.2785 17.5103C42.203 17.6506 42.1652 17.8116 42.1652 17.9935C42.1652 18.1754 42.203 18.3364 42.2785 18.4767C42.3541 18.6169 42.4604 18.7256 42.5976 18.8027C42.7348 18.8797 42.8912 18.9183 43.0669 18.9183C43.3659 18.9183 43.6202 18.7919 43.8299 18.5391L44.4125 19.0662C44.2553 19.2635 44.058 19.4146 43.8206 19.5194C43.5833 19.6242 43.3166 19.6766 43.0207 19.6766ZM44.824 16.3751H45.7257V18.2756L47.062 16.3751H47.9221V19.6119H47.0204V17.716L45.6887 19.6119H44.824V16.3751Z" fill="white"/>
<path fill-rule="evenodd" clip-rule="evenodd" d="M60.337 16.9024V13.845C60.337 13.4867 60.6031 13.3252 60.9724 13.3252H63.0227C63.2633 13.3252 63.4161 13.3751 63.5364 13.5045L64.8475 15.5144C64.9429 15.6632 65.3329 16.1937 65.3329 16.3574V16.9024H60.337ZM61.7268 13.9727H62.8921C62.9189 14.0731 63.8264 15.3743 63.9431 15.595H61.7268V13.9727Z" fill="black"/>
<path fill-rule="evenodd" clip-rule="evenodd" d="M57.6766 16.9025L58.6658 14.0221C58.7448 13.7852 58.8299 13.5605 58.9112 13.3145C58.9813 13.1024 59.0684 12.78 59.1531 12.6034C59.2743 12.6358 59.3186 12.7379 59.4087 12.8098C59.5711 12.9395 59.9905 13.3134 59.9905 13.5275C59.9905 13.856 59.6949 14.5726 59.5753 14.9316L58.8957 16.9025H57.6766Z" fill="black"/>
<path fill-rule="evenodd" clip-rule="evenodd" d="M52.4077 16.9025L54.5325 10.7263C54.6673 10.7293 54.9423 10.7707 55.0984 10.7958C55.7582 10.9017 56.4758 11.1145 57.0783 11.3571C57.6376 11.5823 57.8647 11.7431 58.3444 11.9969C58.3331 12.1324 58.1407 12.622 58.0808 12.8018L56.6733 16.9025H52.4077ZM56.0865 12.5853L55.0461 12.2349L55.3954 11.1977L56.4358 11.5481L56.0865 12.5853L57.127 12.9357L56.7778 13.9728L55.7373 13.6224L55.388 14.6597L56.4285 15.01L56.0792 16.0473L55.0387 15.6969L54.6894 16.7341L53.649 16.3837L53.9983 15.3465L55.0387 15.6969L55.388 14.6597L54.3475 14.3093L54.6968 13.272L55.7373 13.6224L56.0865 12.5853Z" fill="white"/>
<path fill-rule="evenodd" clip-rule="evenodd" d="M50.9634 15.5778C50.9634 15.8156 51.6347 16.4229 51.7142 16.4441C51.7997 16.077 52.7361 13.4506 52.9234 12.8885C53.0214 12.5942 53.6376 10.8637 53.649 10.7263C53.5089 10.759 53.3892 10.7471 53.2316 10.7709C52.7105 10.8497 52.552 10.7888 52.3745 11.3288L51.1767 14.8381C51.1067 15.0384 50.9634 15.341 50.9634 15.5778Z" fill="black"/>
<path d="M51.9526 18.8781C52.2858 18.8781 52.5322 18.946 52.692 19.082C52.8518 19.218 52.9317 19.3993 52.9317 19.6259C52.9317 19.7732 52.8937 19.9086 52.8178 20.0321C52.7419 20.1557 52.6263 20.2543 52.4711 20.3279C52.3158 20.4016 52.1238 20.4384 51.8949 20.4384C51.7272 20.4384 51.5612 20.418 51.3969 20.3772C51.2325 20.3364 51.0915 20.2786 50.9736 20.2038L51.215 19.6973C51.3102 19.7608 51.415 19.8095 51.5294 19.8435C51.6439 19.8775 51.7589 19.8945 51.8744 19.8945C51.9901 19.8945 52.0824 19.8724 52.1515 19.8282C52.2206 19.784 52.2552 19.7222 52.2552 19.6429C52.2552 19.5636 52.2212 19.5035 52.1532 19.4628C52.0852 19.422 51.9651 19.4016 51.7929 19.4016H51.147L51.266 18.0112H52.7821V18.5313H51.8235L51.7929 18.8781H51.9526ZM54.1759 20.4384C53.9719 20.4384 53.7906 20.3897 53.6319 20.2922C53.4733 20.1947 53.3492 20.0526 53.2597 19.8656C53.1702 19.6786 53.1255 19.4571 53.1255 19.201C53.1255 18.9449 53.1702 18.7234 53.2597 18.5364C53.3492 18.3494 53.4733 18.2073 53.6319 18.1098C53.7906 18.0123 53.9719 17.9636 54.1759 17.9636C54.3775 17.9636 54.5577 18.0123 54.7164 18.1098C54.875 18.2073 54.9991 18.3494 55.0886 18.5364C55.1781 18.7234 55.2229 18.9449 55.2229 19.201C55.2229 19.4571 55.1781 19.6786 55.0886 19.8656C54.9991 20.0526 54.875 20.1947 54.7164 20.2922C54.5577 20.3897 54.3775 20.4384 54.1759 20.4384ZM54.1759 19.8877C54.2892 19.8877 54.3792 19.8327 54.4461 19.7228C54.513 19.6129 54.5464 19.439 54.5464 19.201C54.5464 18.963 54.513 18.7891 54.4461 18.6792C54.3792 18.5693 54.2892 18.5143 54.1759 18.5143C54.0603 18.5143 53.9691 18.5693 53.9022 18.6792C53.8354 18.7891 53.8019 18.963 53.8019 19.201C53.8019 19.439 53.8354 19.6129 53.9022 19.7228C53.9691 19.8327 54.0603 19.8877 54.1759 19.8877ZM56.3447 18.8781C56.6778 18.8781 56.9243 18.946 57.084 19.082C57.2438 19.218 57.3237 19.3993 57.3237 19.6259C57.3237 19.7732 57.2857 19.9086 57.2099 20.0321C57.1339 20.1557 57.0184 20.2543 56.8631 20.3279C56.7078 20.4016 56.5158 20.4384 56.2869 20.4384C56.1192 20.4384 55.9532 20.418 55.7889 20.3772C55.6245 20.3364 55.4835 20.2786 55.3657 20.2038L55.607 19.6973C55.7022 19.7608 55.807 19.8095 55.9215 19.8435C56.0359 19.8775 56.1509 19.8945 56.2665 19.8945C56.3821 19.8945 56.4744 19.8724 56.5436 19.8282C56.6127 19.784 56.6472 19.7222 56.6472 19.6429C56.6472 19.5636 56.6132 19.5035 56.5453 19.4628C56.4773 19.422 56.3571 19.4016 56.1849 19.4016H55.539L55.658 18.0112H57.1741V18.5313H56.2155L56.1849 18.8781H56.3447ZM57.5651 19.1738H58.5577V19.6701H57.5651V19.1738ZM59.7271 18.8781C60.0603 18.8781 60.3067 18.946 60.4665 19.082C60.6262 19.218 60.7061 19.3993 60.7061 19.6259C60.7061 19.7732 60.6682 19.9086 60.5923 20.0321C60.5163 20.1557 60.4008 20.2543 60.2455 20.3279C60.0903 20.4016 59.8982 20.4384 59.6693 20.4384C59.5016 20.4384 59.3356 20.418 59.1713 20.3772C59.007 20.3364 58.8659 20.2786 58.7481 20.2038L58.9894 19.6973C59.0846 19.7608 59.1894 19.8095 59.3039 19.8435C59.4183 19.8775 59.5334 19.8945 59.6489 19.8945C59.7645 19.8945 59.8569 19.8724 59.926 19.8282C59.9951 19.784 60.0297 19.7222 60.0297 19.6429C60.0297 19.5636 59.9957 19.5035 59.9277 19.4628C59.8597 19.422 59.7396 19.4016 59.5673 19.4016H58.9214L59.0404 18.0112H60.5566V18.5313H59.598L59.5673 18.8781H59.7271ZM61.9503 20.4384C61.7464 20.4384 61.565 20.3897 61.4064 20.2922C61.2478 20.1947 61.1237 20.0526 61.0342 19.8656C60.9447 19.6786 60.8999 19.4571 60.8999 19.201C60.8999 18.9449 60.9447 18.7234 61.0342 18.5364C61.1237 18.3494 61.2478 18.2073 61.4064 18.1098C61.565 18.0123 61.7464 17.9636 61.9503 17.9636C62.152 17.9636 62.3322 18.0123 62.4908 18.1098C62.6494 18.2073 62.7736 18.3494 62.8631 18.5364C62.9526 18.7234 62.9973 18.9449 62.9973 19.201C62.9973 19.4571 62.9526 19.6786 62.8631 19.8656C62.7736 20.0526 62.6494 20.1947 62.4908 20.2922C62.3322 20.3897 62.152 20.4384 61.9503 20.4384ZM61.9503 19.8877C62.0637 19.8877 62.1537 19.8327 62.2206 19.7228C62.2874 19.6129 62.3209 19.439 62.3209 19.201C62.3209 18.963 62.2874 18.7891 62.2206 18.6792C62.1537 18.5693 62.0637 18.5143 61.9503 18.5143C61.8347 18.5143 61.7435 18.5693 61.6767 18.6792C61.6098 18.7891 61.5764 18.963 61.5764 19.201C61.5764 19.439 61.6098 19.6129 61.6767 19.7228C61.7435 19.8327 61.8347 19.8877 61.9503 19.8877ZM64.1191 18.8781C64.4523 18.8781 64.6987 18.946 64.8585 19.082C65.0183 19.218 65.0982 19.3993 65.0982 19.6259C65.0982 19.7732 65.0602 19.9086 64.9843 20.0321C64.9084 20.1557 64.7928 20.2543 64.6376 20.3279C64.4823 20.4016 64.2903 20.4384 64.0614 20.4384C63.8936 20.4384 63.7276 20.418 63.5633 20.3772C63.399 20.3364 63.258 20.2786 63.1401 20.2038L63.3815 19.6973C63.4766 19.7608 63.5815 19.8095 63.6959 19.8435C63.8104 19.8775 63.9254 19.8945 64.041 19.8945C64.1565 19.8945 64.2489 19.8724 64.318 19.8282C64.3871 19.784 64.4217 19.7222 64.4217 19.6429C64.4217 19.5636 64.3877 19.5035 64.3197 19.4628C64.2517 19.422 64.1316 19.4016 63.9594 19.4016H63.3135L63.4325 18.0112H64.9486V18.5313H63.99L63.9594 18.8781H64.1191Z" fill="black"/>
<path fill-rule="evenodd" clip-rule="evenodd" d="M51.0453 16.854H65.2508C65.2959 16.854 65.3327 16.8908 65.3327 16.9359V17.4165C65.3327 17.4615 65.2959 17.4983 65.2508 17.4983H51.0453C51.0002 17.4983 50.9634 17.4615 50.9634 17.4165V16.9359C50.9634 16.8908 51.0002 16.854 51.0453 16.854Z" fill="black"/>
<line x1="3" y1="66.5" x2="618" y2="66.5001" stroke="white" stroke-opacity="0.4" stroke-dasharray="4 4"/>
</svg>
