<svg width="34" height="43" viewBox="0 0 34 43" fill="none" xmlns="http://www.w3.org/2000/svg">
<path d="M17 0C14.7457 0 12.5837 0.906069 10.9896 2.51888C9.39553 4.13169 8.5 6.31914 8.5 8.6C8.5 10.8809 9.39553 13.0683 10.9896 14.6811C12.5837 16.2939 14.7457 17.2 17 17.2C19.2543 17.2 21.4163 16.2939 23.0104 14.6811C24.6045 13.0683 25.5 10.8809 25.5 8.6C25.5 6.31914 24.6045 4.13169 23.0104 2.51888C21.4163 0.906069 19.2543 0 17 0ZM27.625 21.5H6.375C4.68425 21.5 3.06274 22.1796 1.86719 23.3892C0.67165 24.5988 0 26.2394 0 27.95C0 32.7488 1.95075 36.593 5.151 39.1945C8.30025 41.753 12.5247 43 17 43C21.4753 43 25.6998 41.753 28.849 39.1945C32.045 36.593 34 32.7488 34 27.95C34 26.2394 33.3284 24.5988 32.1328 23.3892C30.9373 22.1796 29.3158 21.5 27.625 21.5Z" fill="white"/>
</svg>
