<svg width="14" height="17" viewBox="0 0 14 17" fill="none" xmlns="http://www.w3.org/2000/svg">
<path d="M6.66667 0C5.78261 0 4.93476 0.35119 4.30964 0.976311C3.68452 1.60143 3.33333 2.44928 3.33333 3.33333C3.33333 4.21739 3.68452 5.06523 4.30964 5.69036C4.93476 6.31548 5.78261 6.66667 6.66667 6.66667C7.55072 6.66667 8.39857 6.31548 9.02369 5.69036C9.64881 5.06523 10 4.21739 10 3.33333C10 2.44928 9.64881 1.60143 9.02369 0.976311C8.39857 0.35119 7.55072 0 6.66667 0ZM10.8333 8.33333H2.5C1.83696 8.33333 1.20107 8.59672 0.732233 9.06557C0.263392 9.53441 0 10.1703 0 10.8333C0 12.6933 0.765 14.1833 2.02 15.1917C3.255 16.1833 4.91167 16.6667 6.66667 16.6667C8.42167 16.6667 10.0783 16.1833 11.3133 15.1917C12.5667 14.1833 13.3333 12.6933 13.3333 10.8333C13.3333 10.1703 13.0699 9.53441 12.6011 9.06557C12.1323 8.59672 11.4964 8.33333 10.8333 8.33333Z" fill="white"/>
</svg>
