<svg width="30" height="30" viewBox="0 0 30 30" fill="none" xmlns="http://www.w3.org/2000/svg">
<rect width="30" height="30" rx="4" fill="#F3F3F3"/>
<path d="M14.6667 7C13.7826 7 12.9348 7.35119 12.3096 7.97631C11.6845 8.60143 11.3333 9.44928 11.3333 10.3333C11.3333 11.2174 11.6845 12.0652 12.3096 12.6904C12.9348 13.3155 13.7826 13.6667 14.6667 13.6667C15.5507 13.6667 16.3986 13.3155 17.0237 12.6904C17.6488 12.0652 18 11.2174 18 10.3333C18 9.44928 17.6488 8.60143 17.0237 7.97631C16.3986 7.35119 15.5507 7 14.6667 7ZM18.8333 15.3333H10.5C9.83696 15.3333 9.20107 15.5967 8.73223 16.0656C8.26339 16.5344 8 17.1703 8 17.8333C8 19.6933 8.765 21.1833 10.02 22.1917C11.255 23.1833 12.9117 23.6667 14.6667 23.6667C16.4217 23.6667 18.0783 23.1833 19.3133 22.1917C20.5667 21.1833 21.3333 19.6933 21.3333 17.8333C21.3333 17.1703 21.0699 16.5344 20.6011 16.0656C20.1323 15.5967 19.4964 15.3333 18.8333 15.3333Z" fill="black"/>
</svg>
