<svg width="52" height="52" viewBox="0 0 52 52" fill="none" xmlns="http://www.w3.org/2000/svg">
<path d="M12.5 20.375H20.375M20.375 20.375H28.25M20.375 20.375V12.5M20.375 20.375V28.25M33.5 33.5L49.25 49.25M20.375 38.75C17.962 38.75 15.5725 38.2747 13.3432 37.3513C11.1138 36.4279 9.08819 35.0744 7.38191 33.3681C5.67564 31.6618 4.32214 29.6362 3.39871 27.4068C2.47528 25.1775 2 22.788 2 20.375C2 17.962 2.47528 15.5725 3.39871 13.3432C4.32214 11.1138 5.67564 9.08819 7.38191 7.38191C9.08819 5.67564 11.1138 4.32214 13.3432 3.39871C15.5725 2.47528 17.962 2 20.375 2C25.2484 2 29.9221 3.93593 33.3681 7.38191C36.8141 10.8279 38.75 15.5016 38.75 20.375C38.75 25.2484 36.8141 29.9221 33.3681 33.3681C29.9221 36.8141 25.2484 38.75 20.375 38.75Z" stroke="white" stroke-opacity="0.5" stroke-width="4" stroke-linecap="round" stroke-linejoin="round"/>
</svg>
